{
.formatVersion = 3;
axes = (
{
name = Weight;
tag = wght;
}
);
classes = (
{
code = "exclam parenleft parenright comma hyphen period slash colon semicolon question A G I J O bracketleft bracketright g o braceleft braceright Adieresis Edieresis Igrave Iacute Icircumflex Odieresis Udieresis agrave aacute acircumflex atilde adieresis aring edieresis idieresis odieresis udieresis ydieresis amacron abreve aogonek Cdotaccent cdotaccent Edotaccent edotaccent Gcircumflex gcircumflex Gbreve gbreve Gcommaaccent gcommaaccent Itilde Imacron Ibreve Iogonek IJ Ldot Scedilla scedilla Tcedilla tcedilla Ydieresis Zdotaccent zdotaccent Gcaron gcaron dotaccentcomb dieresiscomb dotbelowcomb strokeshortcomb slashshortcomb slashlongcomb Wdieresis wdieresis Adotbelow ahoi acircumflexacute acircumflexgrave acircumflexhoi acircumflextilde Acircumflexdotbelow abreveacute abrevegrave abrevehoi abrevetilde Abrevedotbelow Edotbelow edotbelow Ecircumflexdotbelow ecircumflexdotbelow Ihoi idotbelow Odotbelow odotbelow Ocircumflexdotbelow ocircumflexdotbelow Ohorndotbelow ohorndotbelow Udotbelow udotbelow Uhorndotbelow uhorndotbelow Ydotbelow ydotbelow endash emdash quoteleft quoteright quotesinglbase quotedblleft quotedblright quotedblbase bullet ellipsis fi zero.numr one.numr two.numr three.numr four.numr five.numr six.numr seven.numr eight.numr nine.numr f_f_i t_i.liga exclamdown.ss01 periodcentered.loclCAT.case questiondown.ss01 adieresis.ss05 Gdotaccent.ss01 gdotaccent.ss01 adotbelow.ss05 idotbelow.dotless idotaccent";
name = aalt;
},
{

glyphs = (
{
glyphname = .notdef;
layers = (
{
layerId = "B9F9456E-5A28-482F-A7A9-E399A36E312B";
shapes = (
{
closed = 1;
nodes = (
(359,-12,o),
(373,-6,o),
(373,10,cs),
(373,80,l),
(358,77,o),
(346,76,o),
(334,76,cs),
(298,76,o),
(278,87,o),
(264,103,cs),
(250,119,o),
(241,139,o),
(230,156,cs),
(223,168,o),
(214,177,o),
(204,182,cs),
(194,187,o),
(189,192,o),
(189,199,cs),
(189,206,o),
(194,209,o),
(203,209,cs),
(232,209,o),
(248,187,o),
(265,167,c),
(281,146,o),
(298,124,o),
(330,124,cs),
(346,124,o),
(363,127,o),
(374,134,c),
(378,159,o),
(389,177,o),
(409,186,c),
(293,198,o),
(224,263,o),
(224,366,cs),
(224,417,o),
(239,450,o),
(264,477,c),
(253,509,o),
(255,550,o),
(268,579,c),
(307,582,o),
(348,566,o),
(372,539,c),
(404,550,o),
(436,553,o),
(469,553,cs),
(502,553,o),
(534,550,o),
(566,539,c),
(590,566,o),
(631,582,o),
(670,579,c),
(683,550,o),
(685,509,o),
(674,477,c),
(699,450,o),
(714,417,o),
(714,366,cs),
(714,263,o),
(645,198,o),
(529,186,c),
(552,175,o),
(565,150,o),
(565,115,cs),
(565,10,ls),
(565,-6,o),
(579,-12,o),
(592,-8,cs),
(671,17,o),
(735,64,o),
(781,126,cs),
(827,188,o),
(852,267,o),
(852,356,cs),
(852,471,o),
(814,566,o),
(747,633,cs),
(680,700,o),
(584,738,o),
(469,738,cs),
(354,738,o),
(259,700,o),
(192,633,cs),
(124,566,o),
(86,471,o),
(86,356,cs),
(86,267,o),
(112,188,o),
(158,126,cs),
(204,64,o),
(269,17,o),
(346,-8,cs)
);
},
{
closed = 1;
nodes = (
(262,150,o),
(264,152,o),
(264,155,cs),
(264,158,o),
(261,160,o),
(257,160,cs),
(253,160,o),
(251,158,o),
(251,155,cs),
(251,152,o),
(254,150,o),
(258,150,cs)
);
},
{
closed = 1;
nodes = (
(230,185,o),
(232,186,o),
(232,189,cs),
(232,192,o),
(230,193,o),
(226,193,cs),
(223,193,o),
(221,192,o),
(221,189,cs),
(221,186,o),
(223,185,o),
(227,185,cs)
);
},
{
closed = 1;
nodes = (
(245,171,o),
(247,172,o),
(247,175,cs),
(247,178,o),
(245,179,o),
(241,179,cs),
(238,179,o),
(236,178,o),
(236,175,cs),
(236,172,o),
(238,171,o),
(242,171,cs)
);
},
{
closed = 1;
nodes = (
(306,109,o),
(309,111,o),
(309,115,cs),
(309,119,o),
(306,121,o),
(301,121,cs),
(297,121,o),
(294,119,o),
(294,115,cs),
(294,111,o),
(297,109,o),
(302,109,cs)
);
},
{
closed = 1;
nodes = (
(337,104,o),
(340,106,o),
(340,110,cs),
(340,114,o),
(337,116,o),
(332,116,cs),
(328,116,o),
(325,114,o),
(325,110,cs),
(325,106,o),
(328,104,o),
(333,104,cs)
);
},
{
closed = 1;
nodes = (
(368,110,o),
(371,112,o),
(371,116,cs),
(371,120,o),
(368,122,o),
(363,122,cs),
(359,122,o),
(356,120,o),
(356,116,cs),
(356,112,o),
(359,110,o),
(364,110,cs)
);
},
{
closed = 1;
nodes = (
(280,127,o),
(283,129,o),
(283,133,cs),
(283,137,o),
(280,139,o),
(275,139,cs),
(271,139,o),
(268,137,o),
(268,133,cs),
(268,129,o),
(271,127,o),
(276,127,cs)
);
}
);
width = 894;
},
{
layerId = "D36F68F1-AC05-4452-BDF9-AB186909F070";
shapes = (
{
closed = 1;
nodes = (
(362,-12,o),
(376,-6,o),
(376,10,cs),
(376,80,l),
(361,77,o),
(349,76,o),
(337,76,cs),
(301,76,o),
(281,87,o),
(267,103,cs),
(253,119,o),
(244,139,o),
(233,156,cs),
(226,168,o),
(217,177,o),
(207,182,cs),
(197,187,o),
(192,192,o),
(192,199,cs),
(192,206,o),
(197,209,o),
(206,209,cs),
(235,209,o),
(251,187,o),
(268,167,c),
(284,146,o),
(301,124,o),
(333,124,cs),
(349,124,o),
(366,127,o),
(377,134,c),
(381,159,o),
(392,177,o),
(412,186,c),
(296,198,o),
(227,263,o),
(227,366,cs),
(227,417,o),
(242,450,o),
(267,477,c),
(256,509,o),
(258,550,o),
(271,579,c),
(310,582,o),
(351,566,o),
(375,539,c),
(407,550,o),
(439,553,o),
(472,553,cs),
(505,553,o),
(537,550,o),
(569,539,c),
(593,566,o),
(634,582,o),
(673,579,c),
(686,550,o),
(688,509,o),
(677,477,c),
(702,450,o),
(717,417,o),
(717,366,cs),
(717,263,o),
(648,198,o),
(532,186,c),
(555,175,o),
(568,150,o),
(568,115,cs),
(568,10,ls),
(568,-6,o),
(582,-12,o),
(595,-8,cs),
(674,17,o),
(738,64,o),
(784,126,cs),
(830,188,o),
(855,267,o),
(855,356,cs),
(855,471,o),
(817,566,o),
(750,633,cs),
(683,700,o),
(587,738,o),
(472,738,cs),
(357,738,o),
(262,700,o),
(195,633,cs),
(127,566,o),
(89,471,o),
(89,356,cs),
(89,267,o),
(115,188,o),
(161,126,cs),
(207,64,o),
(272,17,o),
(349,-8,cs)
);
},
{
closed = 1;
nodes = (
(265,150,o),
(267,152,o),
(267,155,cs),
(267,158,o),
(264,160,o),
(260,160,cs),
(256,160,o),
(254,158,o),
(254,155,cs),
(254,152,o),
(257,150,o),
(261,150,cs)
);
},
{
closed = 1;
nodes = (
(233,185,o),
(235,186,o),
(235,189,cs),
(235,192,o),
(233,193,o),
(229,193,cs),
(226,193,o),
(224,192,o),
(224,189,cs),
(224,186,o),
(226,185,o),
(230,185,cs)
);
},
{
closed = 1;
nodes = (
(248,171,o),
(250,172,o),
(250,175,cs),
(250,178,o),
(248,179,o),
(244,179,cs),
(241,179,o),
(239,178,o),
(239,175,cs),
(239,172,o),
(241,171,o),
(245,171,cs)
);
},
{
closed = 1;
nodes = (
(309,109,o),
(312,111,o),
(312,115,cs),
(312,119,o),
(309,121,o),
(304,121,cs),
(300,121,o),
(297,119,o),
(297,115,cs),
(297,111,o),
(300,109,o),
(305,109,cs)
);
},
{
closed = 1;
nodes = (
(340,104,o),
(343,106,o),
(343,110,cs),
(343,114,o),
(340,116,o),
(335,116,cs),
(331,116,o),
(328,114,o),
(328,110,cs),
(328,106,o),
(331,104,o),
(336,104,cs)
);
},
{
closed = 1;
nodes = (
(371,110,o),
(374,112,o),
(374,116,cs),
(374,120,o),
(371,122,o),
(366,122,cs),
(362,122,o),
(359,120,o),
(359,116,cs),
(359,112,o),
(362,110,o),
(367,110,cs)
);
},
{
closed = 1;
nodes = (
(283,127,o),
(286,129,o),
(286,133,cs),
(286,137,o),
(283,139,o),
(278,139,cs),
(274,139,o),
(271,137,o),
(271,133,cs),
(271,129,o),
(274,127,o),
(279,127,cs)
);
}
);
width = 892;
},
{
layerId = "35642718-112C-4883-8033-E2E6DF5C4D00";
shapes = (
{
closed = 1;
nodes = (
(363,-12,o),
(377,-6,o),
(377,10,cs),
(377,80,l),
(362,77,o),
(350,76,o),
(338,76,cs),
(302,76,o),
(282,87,o),
(268,103,cs),
(254,119,o),
(245,139,o),
(234,156,cs),
(227,168,o),
(218,177,o),
(208,182,cs),
(198,187,o),
(193,192,o),
(193,199,cs),
(193,206,o),
(198,209,o),
(207,209,cs),
(236,209,o),
(252,187,o),
(269,167,c),
(285,146,o),
(302,124,o),
(334,124,cs),
(350,124,o),
(367,127,o),
(378,134,c),
(382,159,o),
(393,177,o),
(413,186,c),
(297,198,o),
(228,263,o),
(228,366,cs),
(228,417,o),
(243,450,o),
(268,477,c),
(257,509,o),
(259,550,o),
(272,579,c),
(311,582,o),
(352,566,o),
(376,539,c),
(408,550,o),
(440,553,o),
(473,553,cs),
(506,553,o),
(538,550,o),
(570,539,c),
(594,566,o),
(635,582,o),
(674,579,c),
(687,550,o),
(689,509,o),
(678,477,c),
(703,450,o),
(718,417,o),
(718,366,cs),
(718,263,o),
(649,198,o),
(533,186,c),
(556,175,o),
(569,150,o),
(569,115,cs),
(569,10,ls),
(569,-6,o),
(583,-12,o),
(596,-8,cs),
(675,17,o),
(739,64,o),
(785,126,cs),
(831,188,o),
(856,267,o),
(856,356,cs),
(856,471,o),
(818,566,o),
(751,633,cs),
(684,700,o),
(588,738,o),
(473,738,cs),
(358,738,o),
(263,700,o),
(196,633,cs),
(128,566,o),
(90,471,o),
(90,356,cs),
(90,267,o),
(116,188,o),
(162,126,cs),
(208,64,o),
(273,17,o),
(350,-8,cs)
);
},
{
closed = 1;
nodes = (
(266,150,o),
(268,152,o),
(268,155,cs),
(268,158,o),
(265,160,o),
(261,160,cs),
(257,160,o),
(255,158,o),
(255,155,cs),
(255,152,o),
(258,150,o),
(262,150,cs)
);
},
{
closed = 1;
nodes = (
(234,185,o),
(236,186,o),
(236,189,cs),
(236,192,o),
(234,193,o),
(230,193,cs),
(227,193,o),
(225,192,o),
(225,189,cs),
(225,186,o),
(227,185,o),
(231,185,cs)
);
},
{
closed = 1;
nodes = (
(249,171,o),
(251,172,o),
(251,175,cs),
(251,178,o),
(249,179,o),
(245,179,cs),
(242,179,o),
(240,178,o),
(240,175,cs),
(240,172,o),
(242,171,o),
(246,171,cs)
);
},
{
closed = 1;
nodes = (
(310,109,o),
(313,111,o),
(313,115,cs),
(313,119,o),
(310,121,o),
(305,121,cs),
(301,121,o),
(298,119,o),
(298,115,cs),
(298,111,o),
(301,109,o),
(306,109,cs)
);
},
{
closed = 1;
nodes = (
(341,104,o),
(344,106,o),
(344,110,cs),
(344,114,o),
(341,116,o),
(336,116,cs),
(332,116,o),
(329,114,o),
(329,110,cs),
(329,106,o),
(332,104,o),
(337,104,cs)
);
},
{
closed = 1;
nodes = (
(372,110,o),
(375,112,o),
(375,116,cs),
(375,120,o),
(372,122,o),
(367,122,cs),
(363,122,o),
(360,120,o),
(360,116,cs),
(360,112,o),
(363,110,o),
(368,110,cs)
);
},
{
closed = 1;
nodes = (
(284,127,o),
(287,129,o),
(287,133,cs),
(287,137,o),
(284,139,o),
(279,139,cs),
(275,139,o),
(272,137,o),
(272,133,cs),
(272,129,o),
(275,127,o),
(280,127,cs)
);
}
);
width = 891;
}
);
},
{
glyphname = exclam;
layers = (
{
layerId = "B9F9456E-5A28-482F-A7A9-E399A36E312B";
shapes = (
{
closed = 1;
nodes = (
(203,243,l),
(330,484,l),
(401,729,l),
(166,729,l),
(96,484,l),
(85,243,l)
);
},
{
closed = 1;
nodes = (
(172,-9,o),
(228,34,o),
(229,107,cs),
(230,163,o),
(185,200,o),
(116,200,cs),
(32,200,o),
(-23,157,o),
(-24,82,cs),
(-25,27,o),
(19,-9,o),
(87,-9,cs)
);
}
);
width = 309;
},
{
layerId = "D36F68F1-AC05-4452-BDF9-AB186909F070";
shapes = (
{
closed = 1;
nodes = (
(126,202,l),
(232,491,l),
(300,729,l),
(206,729,l),
(138,491,l),
(79,202,l)
);
},
{
closed = 1;
nodes = (
(89,-8,o),
(114,12,o),
(114,47,c),
(115,75,o),
(94,93,o),
(63,93,cs),
(26,93,o),
(1,73,o),
(0,38,c),
(0,10,o),
(20,-8,o),
(52,-8,cs)
);
}
);
width = 241;
},
{
layerId = "35642718-112C-4883-8033-E2E6DF5C4D00";
shapes = (
{
closed = 1;
nodes = (
(96,186,l),
(193,493,l),
(260,729,l),
(221,729,l),
(154,493,l),
(76,186,l)
);
},
{
closed = 1;
nodes = (
(58,-7,o),
(70,4,o),
(70,23,cs),
(70,40,o),
(59,51,o),
(42,51,cs),
(23,51,o),
(10,40,o),
(10,21,cs),
(10,4,o),
(22,-7,o),
(39,-7,cs)
);
}
);
width = 215;
}
);
unicode = 33;
},
{
glyphname = numbersign;
layers = (
{
layerId = "B9F9456E-5A28-482F-A7A9-E399A36E312B";
shapes = (
{
closed = 1;
nodes = (
(235,0,l),
(280,160,l),
(379,160,l),
(334,0,l),
(510,0,l),
(555,160,l),
(671,160,l),
(716,316,l),
(600,316,l),
(627,411,l),
(743,411,l),
(787,568,l),
(671,568,l),
(717,729,l),
(541,729,l),
(495,568,l),
(397,568,l),
(442,729,l),
(264,729,l),
(219,568,l),
(104,568,l),
(59,411,l),
(174,411,l),
(148,316,l),
(33,316,l),
(-13,160,l),
(102,160,l),
(57,0,l)
);
},
{
closed = 1;
nodes = (
(352,411,l),
(451,411,l),
(424,316,l),
(326,316,l)
);
}
);
width = 726;
},
{
layerId = "D36F68F1-AC05-4452-BDF9-AB186909F070";
shapes = (
{
closed = 1;
nodes = (
(177,0,l),
(239,221,l),
(405,221,l),
(343,0,l),
(416,0,l),
(478,221,l),
(627,221,l),
(645,285,l),
(496,285,l),
(546,460,l),
(695,460,l),
(713,524,l),
(564,524,l),
(621,729,l),
(549,729,l),
(491,524,l),
(325,524,l),
(383,729,l),
(309,729,l),
(252,524,l),
(99,524,l),
(81,460,l),
(234,460,l),
(184,285,l),
(31,285,l),
(13,221,l),
(166,221,l),
(104,0,l)
);
},
{
closed = 1;
nodes = (
(307,460,l),
(473,460,l),
(423,285,l),
(257,285,l)
);
}
);
width = 666;
},
{
layerId = "35642718-112C-4883-8033-E2E6DF5C4D00";
shapes = (
{
closed = 1;
nodes = (
(155,0,l),
(223,245,l),
(415,245,l),
(348,0,l),
(380,0,l),
(447,245,l),
(609,245,l),
(618,273,l),
(456,273,l),
(514,480,l),
(676,480,l),
(684,507,l),
(522,507,l),
(583,729,l),
(551,729,l),
(490,507,l),
(298,507,l),
(359,729,l),
(327,729,l),
(266,507,l),
(98,507,l),
(90,480,l),
(258,480,l),
(200,273,l),
(32,273,l),
(23,245,l),
(191,245,l),
(123,0,l)
);
},
{
closed = 1;
nodes = (
(290,480,l),
(482,480,l),
(424,273,l),
(232,273,l)
);
}
);
width = 642;
}
);
unicode = 35;
},
{
glyphname = dollar;
layers = (
{
layerId = "B9F9456E-5A28-482F-A7A9-E399A36E312B";
shapes = (
{
closed = 1;
nodes = (
(428,8,o),
(515,31,o),
(576,79,cs),
(635,126,o),
(669,195,o),
(670,284,cs),
(671,336,o),
(657,374,o),
(621,406,cs),
(584,438,o),
(524,461,o),
(432,481,c),
(413,488,o),
(397,491,o),
(387,496,c),
(375,500,o),
(368,506,o),
(368,515,cs),
(368,522,o),
(371,527,o),
(377,531,cs),
(383,534,o),
(393,535,o),
(408,535,cs),
(427,535,o),
(441,532,o),
(450,525,c),
(458,517,o),
(462,508,o),
(461,497,c),
(718,497,l),
(721,558,o),
(696,615,o),
(645,656,cs),
(595,696,o),
(520,722,o),
(427,722,cs),
(342,722,o),
(257,704,o),
(195,662,cs),
(134,620,o),
(92,556,o),
(91,467,cs),
(91,418,o),
(106,378,o),
(143,344,c),
(178,310,o),
(235,283,o),
(316,262,c),
(347,251,o),
(368,247,o),
(380,243,cs),
(392,239,o),
(397,235,o),
(397,226,c),
(396,215,o),
(392,208,o),
(383,204,cs),
(374,199,o),
(359,197,o),
(335,197,cs),
(311,197,o),
(292,203,o),
(279,213,cs),
(266,223,o),
(261,234,o),
(261,247,c),
(10,247,l),
(4,172,o),
(32,112,o),
(85,72,cs),
(137,31,o),
(218,8,o),
(317,8,cs)
);
},
{
closed = 1;
nodes = (
(313,-85,l),
(372,130,l),
(207,130,l),
(148,-85,l)
);
},
{
closed = 1;
nodes = (
(511,609,l),
(571,815,l),
(406,815,l),
(347,609,l)
);
}
);
width = 701;
},
{
layerId = "D36F68F1-AC05-4452-BDF9-AB186909F070";
shapes = (
{
closed = 1;
nodes = (
(395,9,o),
(465,30,o),
(517,70,cs),
(568,110,o),
(597,167,o),
(598,238,cs),
(598,286,o),
(583,322,o),
(552,351,c),
(519,379,o),
(468,400,o),
(392,417,cs),
(341,428,o),
(304,442,o),
(281,459,cs),
(256,476,o),
(243,499,o),
(243,524,cs),
(243,561,o),
(261,591,o),
(289,612,cs),
(317,632,o),
(357,643,o),
(402,643,cs),
(451,643,o),
(490,630,o),
(518,608,cs),
(546,586,o),
(560,553,o),
(557,516,c),
(657,516,l),
(661,577,o),
(638,629,o),
(595,665,cs),
(551,701,o),
(488,722,o),
(412,722,cs),
(333,722,o),
(264,703,o),
(216,667,cs),
(167,630,o),
(136,576,o),
(136,508,cs),
(136,464,o),
(149,429,o),
(184,400,cs),
(219,371,o),
(274,348,o),
(357,328,cs),
(405,316,o),
(440,303,o),
(461,286,cs),
(482,269,o),
(490,247,o),
(490,218,c),
(489,181,o),
(474,148,o),
(444,125,cs),
(414,101,o),
(370,87,o),
(314,87,cs),
(259,87,o),
(214,101,o),
(183,126,cs),
(151,151,o),
(135,188,o),
(137,235,c),
(38,235,l),
(32,166,o),
(55,109,o),
(103,70,c),
(149,30,o),
(220,9,o),
(312,9,cs)
);
},
{
closed = 1;
nodes = (
(254,-85,l),
(294,62,l),
(224,62,l),
(184,-85,l)
);
},
{
closed = 1;
nodes = (
(470,679,l),
(508,814,l),
(438,814,l),
(400,679,l)
);
}
);
width = 660;
},
{
layerId = "35642718-112C-4883-8033-E2E6DF5C4D00";
shapes = (
{
closed = 1;
nodes = (
(382,9,o),
(446,30,o),
(493,67,cs),
(541,103,o),
(569,156,o),
(569,220,cs),
(570,267,o),
(556,302,o),
(525,329,cs),
(494,356,o),
(445,376,o),
(376,392,c),
(313,405,o),
(269,422,o),
(239,445,cs),
(209,468,o),
(194,496,o),
(194,528,cs),
(194,577,o),
(218,616,o),
(255,644,cs),
(291,671,o),
(341,685,o),
(400,685,cs),
(460,685,o),
(510,669,o),
(545,641,cs),
(580,612,o),
(598,571,o),
(595,523,c),
(633,523,l),
(637,586,o),
(615,636,o),
(575,670,cs),
(534,704,o),
(474,722,o),
(405,722,cs),
(330,722,o),
(268,703,o),
(224,668,cs),
(180,633,o),
(153,584,o),
(153,524,cs),
(153,483,o),
(167,450,o),
(201,423,c),
(234,395,o),
(289,373,o),
(372,354,cs),
(429,341,o),
(468,325,o),
(493,303,cs),
(518,281,o),
(527,252,o),
(527,216,cs),
(527,167,o),
(507,124,o),
(468,93,cs),
(428,62,o),
(373,44,o),
(305,44,cs),
(240,44,o),
(183,61,o),
(145,92,cs),
(106,123,o),
(85,170,o),
(88,230,c),
(48,230,l),
(44,162,o),
(65,107,o),
(109,69,cs),
(153,31,o),
(221,9,o),
(309,9,cs)
);
},
{
closed = 1;
nodes = (
(231,-85,l),
(264,35,l),
(231,35,l),
(198,-85,l)
);
},
{
closed = 1;
nodes = (
(453,707,l),
(484,814,l),
(451,814,l),
(421,707,l)
);
}
);
width = 645;
}
);
unicode = 36;
},
{
glyphname = percent;
layers = (
{
layerId = "B9F9456E-5A28-482F-A7A9-E399A36E312B";
shapes = (
{
closed = 1;
nodes = (
(278,0,l),
(954,729,l),
(778,729,l),
(100,0,l)
);
},
{
closed = 1;
nodes = (
(338,329,o),
(392,355,o),
(428,398,cs),
(465,441,o),
(486,499,o),
(485,563,c),
(486,611,o),
(471,652,o),
(444,682,cs),
(416,712,o),
(374,729,o),
(319,729,cs),
(254,729,o),
(200,703,o),
(163,660,cs),
(127,617,o),
(106,560,o),
(107,495,c),
(106,447,o),
(121,406,o),
(148,376,cs),
(176,346,o),
(218,329,o),
(273,329,cs)
);
},
{
closed = 1;
nodes = (
(272,459,o),
(265,470,o),
(263,486,cs),
(262,501,o),
(265,523,o),
(269,544,c),
(274,560,o),
(278,574,o),
(284,584,cs),
(289,594,o),
(296,599,o),
(307,599,cs),
(322,599,o),
(328,588,o),
(329,572,cs),
(331,556,o),
(327,535,o),
(323,514,cs),
(319,497,o),
(313,483,o),
(308,474,cs),
(303,465,o),
(296,459,o),
(285,459,cs)
);
},
{
closed = 1;
nodes = (
(793,-8,o),
(847,19,o),
(884,61,cs),
(920,103,o),
(941,161,o),
(942,225,c),
(941,273,o),
(928,315,o),
(900,345,cs),
(872,375,o),
(830,392,o),
(775,392,cs),
(710,392,o),
(656,366,o),
(620,324,cs),
(583,282,o),
(562,222,o),
(563,157,c),
(562,112,o),
(577,68,o),
(604,39,cs),
(632,10,o),
(673,-8,o),
(728,-8,cs)
);
},
{
closed = 1;
nodes = (
(726,122,o),
(721,133,o),
(720,149,c),
(718,164,o),
(721,185,o),
(725,206,c),
(730,223,o),
(735,237,o),
(740,247,cs),
(745,257,o),
(752,261,o),
(763,261,cs),
(776,261,o),
(784,251,o),
(785,236,c),
(785,220,o),
(782,198,o),
(778,177,cs),
(774,160,o),
(769,146,o),
(764,137,cs),
(758,128,o),
(752,122,o),
(741,122,cs)
);
}
);
width = 1002;
},
{
layerId = "D36F68F1-AC05-4452-BDF9-AB186909F070";
shapes = (
{
closed = 1;
nodes = (
(163,0,l),
(846,729,l),
(763,729,l),
(80,0,l)
);
},
{
closed = 1;
nodes = (
(311,349,o),
(358,375,o),
(391,418,cs),
(424,461,o),
(444,521,o),
(446,590,cs),
(447,630,o),
(436,665,o),
(414,690,cs),
(392,714,o),
(358,729,o),
(315,729,cs),
(259,729,o),
(212,703,o),
(179,660,cs),
(146,617,o),
(127,557,o),
(124,488,c),
(123,448,o),
(135,413,o),
(157,389,cs),
(179,364,o),
(212,349,o),
(256,349,cs)
);
},
{
closed = 1;
nodes = (
(235,409,o),
(218,419,o),
(207,435,cs),
(196,451,o),
(193,475,o),
(196,500,c),
(199,551,o),
(212,593,o),
(232,623,cs),
(252,653,o),
(279,670,o),
(311,670,cs),
(335,670,o),
(351,660,o),
(362,644,cs),
(373,627,o),
(378,603,o),
(374,578,c),
(371,527,o),
(359,486,o),
(339,456,cs),
(318,426,o),
(291,409,o),
(258,409,cs)
);
},
{
closed = 1;
nodes = (
(657,-10,o),
(704,15,o),
(737,59,cs),
(770,102,o),
(790,162,o),
(792,231,cs),
(793,271,o),
(782,306,o),
(760,331,c),
(737,355,o),
(704,370,o),
(661,370,cs),
(605,370,o),
(559,344,o),
(525,301,cs),
(492,258,o),
(473,199,o),
(471,128,cs),
(470,89,o),
(479,54,o),
(502,30,cs),
(525,5,o),
(558,-10,o),
(601,-10,cs)
);
},
{
closed = 1;
nodes = (
(581,49,o),
(564,59,o),
(554,76,c),
(543,92,o),
(539,116,o),
(542,141,c),
(545,192,o),
(558,234,o),
(578,264,cs),
(598,294,o),
(625,310,o),
(657,310,cs),
(681,310,o),
(697,301,o),
(709,285,c),
(720,268,o),
(724,245,o),
(721,218,c),
(717,169,o),
(704,127,o),
(685,97,cs),
(665,67,o),
(636,49,o),
(604,49,cs)
);
}
);
width = 864;
},
{
layerId = "35642718-112C-4883-8033-E2E6DF5C4D00";
shapes = (
{
closed = 1;
nodes = (
(118,0,l),
(803,729,l),
(757,729,l),
(72,0,l)
);
},
{
closed = 1;
nodes = (
(301,357,o),
(345,383,o),
(378,426,c),
(409,469,o),
(427,530,o),
(431,601,c),
(432,638,o),
(422,670,o),
(402,693,cs),
(382,716,o),
(352,729,o),
(313,729,cs),
(261,729,o),
(218,704,o),
(186,661,cs),
(154,617,o),
(135,556,o),
(132,485,c),
(129,448,o),
(140,417,o),
(160,394,cs),
(180,371,o),
(209,357,o),
(249,357,cs)
);
},
{
closed = 1;
nodes = (
(221,389,o),
(200,399,o),
(186,415,cs),
(173,431,o),
(166,455,o),
(167,483,cs),
(170,547,o),
(187,601,o),
(212,639,cs),
(237,677,o),
(273,698,o),
(314,698,cs),
(341,698,o),
(362,688,o),
(376,672,cs),
(390,655,o),
(398,631,o),
(395,603,c),
(393,539,o),
(376,485,o),
(351,448,cs),
(325,411,o),
(289,389,o),
(248,389,cs)
);
},
{
closed = 1;
nodes = (
(603,-11,o),
(648,14,o),
(680,58,cs),
(712,102,o),
(730,162,o),
(733,234,cs),
(735,270,o),
(726,302,o),
(706,325,cs),
(685,348,o),
(655,361,o),
(616,361,cs),
(564,361,o),
(520,336,o),
(489,293,cs),
(456,249,o),
(438,189,o),
(435,117,cs),
(433,80,o),
(442,49,o),
(463,26,c),
(483,2,o),
(514,-11,o),
(551,-11,cs)
);
},
{
closed = 1;
nodes = (
(524,20,o),
(504,30,o),
(490,47,cs),
(476,63,o),
(469,87,o),
(470,116,cs),
(473,179,o),
(489,233,o),
(515,271,cs),
(540,309,o),
(576,330,o),
(617,330,cs),
(644,330,o),
(664,320,o),
(679,304,cs),
(694,287,o),
(702,263,o),
(698,235,c),
(695,172,o),
(679,119,o),
(653,81,cs),
(628,43,o),
(592,20,o),
(551,20,cs)
);
}
);
width = 809;
}
);
leftKerningGroup = percent;
unicode = 37;
},
{
glyphname = ampersand;
layers = (
{
layerId = "B9F9456E-5A28-482F-A7A9-E399A36E312B";
shapes = (
{
closed = 1;
nodes = (
(253,-10,o),
(294,-5,o),
(329,4,cs),
(364,13,o),
(394,27,o),
(414,44,c),
(323,191,l),
(307,178,o),
(285,178,o),
(281,178,c),
(266,177,o),
(255,181,o),
(247,189,c),
(238,196,o),
(233,207,o),
(232,220,c),
(234,228,o),
(236,236,o),
(240,243,cs),
(243,250,o),
(249,258,o),
(254,263,c),
(426,0,l),
(687,0,l),
(569,181,l),
(569,161,l),
(582,168,o),
(595,178,o),
(608,188,cs),
(620,198,o),
(632,208,o),
(641,217,c),
(702,217,l),
(746,392,l),
(540,392,l),
(535,376,o),
(526,361,o),
(517,348,cs),
(508,335,o),
(498,322,o),
(484,311,c),
(455,354,l),
(455,362,l),
(503,374,o),
(544,400,o),
(574,433,c),
(602,466,o),
(622,506,o),
(623,553,c),
(627,606,o),
(607,654,o),
(569,687,cs),
(529,720,o),
(471,739,o),
(398,739,cs),
(333,739,o),
(267,718,o),
(219,679,cs),
(170,640,o),
(138,587,o),
(134,520,cs),
(130,473,o),
(143,424,o),
(178,380,c),
(184,394,l),
(128,381,o),
(81,356,o),
(47,320,cs),
(12,283,o),
(-9,236,o),
(-13,177,cs),
(-17,122,o),
(4,75,o),
(43,43,c),
(82,10,o),
(140,-10,o),
(213,-10,cs)
);
},
{
closed = 1;
nodes = (
(374,473,l),
(365,482,o),
(354,503,o),
(357,518,c),
(356,529,o),
(362,538,o),
(369,544,cs),
(376,550,o),
(384,553,o),
(391,553,cs),
(404,553,o),
(416,541,o),
(416,525,cs),
(416,516,o),
(411,505,o),
(404,497,cs),
(396,488,o),
(389,480,o),
(381,473,c)
);
}
);
width = 757;
},
{
layerId = "D36F68F1-AC05-4452-BDF9-AB186909F070";
shapes = (
{
closed = 1;
nodes = (
(261,-10,o),
(306,-1,o),
(346,16,cs),
(385,33,o),
(418,57,o),
(446,88,c),
(407,150,l),
(367,97,o),
(309,67,o),
(234,67,cs),
(198,67,o),
(165,78,o),
(142,99,cs),
(118,120,o),
(106,152,o),
(107,192,c),
(111,233,o),
(127,267,o),
(155,295,cs),
(182,322,o),
(223,342,o),
(268,354,c),
(487,0,l),
(591,0,l),
(494,156,l),
(492,128,l),
(512,149,o),
(530,177,o),
(547,207,cs),
(563,237,o),
(577,269,o),
(584,300,c),
(685,300,l),
(704,373,l),
(535,373,l),
(531,345,o),
(520,314,o),
(508,284,cs),
(496,254,o),
(481,224,o),
(465,203,c),
(353,383,l),
(354,388,l),
(417,403,o),
(465,429,o),
(501,462,cs),
(536,495,o),
(556,537,o),
(557,582,c),
(561,630,o),
(545,668,o),
(515,696,cs),
(486,723,o),
(442,739,o),
(389,739,cs),
(334,739,o),
(285,719,o),
(248,687,cs),
(211,654,o),
(189,606,o),
(185,553,cs),
(182,505,o),
(198,460,o),
(238,399,c),
(242,410,l),
(174,395,o),
(118,366,o),
(79,326,cs),
(38,285,o),
(16,233,o),
(12,176,cs),
(9,116,o),
(30,70,o),
(66,39,cs),
(103,7,o),
(156,-10,o),
(216,-10,cs)
);
},
{
closed = 1;
nodes = (
(316,437,l),
(289,478,o),
(271,512,o),
(274,552,c),
(275,585,o),
(289,613,o),
(309,633,cs),
(328,652,o),
(354,663,o),
(385,663,cs),
(444,663,o),
(476,625,o),
(472,572,c),
(472,540,o),
(458,512,o),
(432,489,cs),
(406,466,o),
(369,448,o),
(321,437,c)
);
}
);
width = 699;
},
{
layerId = "35642718-112C-4883-8033-E2E6DF5C4D00";
shapes = (
{
closed = 1;
nodes = (
(266,-10,o),
(312,1,o),
(353,21,cs),
(393,41,o),
(429,69,o),
(459,105,c),
(441,133,l),
(391,64,o),
(317,23,o),
(216,23,c),
(171,24,o),
(129,37,o),
(101,64,cs),
(73,91,o),
(56,130,o),
(59,181,cs),
(62,236,o),
(85,280,o),
(122,316,cs),
(159,351,o),
(212,376,o),
(273,391,c),
(511,0,l),
(554,0,l),
(465,146,l),
(463,115,l),
(484,142,o),
(506,177,o),
(523,215,cs),
(541,253,o),
(555,293,o),
(563,333,c),
(679,333,l),
(688,365,l),
(534,365,l),
(529,333,o),
(519,295,o),
(506,259,cs),
(492,222,o),
(476,187,o),
(457,160,c),
(312,395,l),
(314,398,l),
(382,414,o),
(436,440,o),
(473,473,cs),
(509,506,o),
(530,547,o),
(532,594,c),
(535,638,o),
(521,674,o),
(494,699,cs),
(467,724,o),
(430,739,o),
(385,739,cs),
(334,739,o),
(291,721,o),
(260,690,cs),
(228,659,o),
(209,616,o),
(205,565,cs),
(202,518,o),
(219,475,o),
(261,406,c),
(266,416,l),
(193,401,o),
(134,371,o),
(92,329,cs),
(50,287,o),
(25,232,o),
(22,176,cs),
(19,115,o),
(40,68,o),
(76,37,cs),
(112,6,o),
(162,-10,o),
(218,-10,cs)
);
},
{
closed = 1;
nodes = (
(294,423,l),
(258,476,o),
(239,515,o),
(242,566,c),
(246,607,o),
(260,643,o),
(285,667,cs),
(309,691,o),
(343,706,o),
(383,706,cs),
(459,706,o),
(499,659,o),
(496,590,cs),
(494,550,o),
(476,515,o),
(443,487,cs),
(410,458,o),
(362,436,o),
(298,423,c)
);
}
);
width = 677;
}
);
unicode = 38;
},
{
glyphname = quotesingle;
layers = (
{
layerId = "B9F9456E-5A28-482F-A7A9-E399A36E312B";
shapes = (
{
closed = 1;
nodes = (
(205,389,l),
(320,601,l),
(356,729,l),
(148,729,l),
(111,601,l),
(104,389,l)
);
}
);
width = 244;
},
{
layerId = "D36F68F1-AC05-4452-BDF9-AB186909F070";
shapes = (
{
closed = 1;
nodes = (
(168,463,l),
(232,617,l),
(263,729,l),
(181,729,l),
(149,617,l),
(125,463,l)
);
}
);
width = 181;
},
{
layerId = "35642718-112C-4883-8033-E2E6DF5C4D00";
shapes = (
{
closed = 1;
nodes = (
(153,492,l),
(197,623,l),
(226,729,l),
(193,729,l),
(164,623,l),
(133,492,l)
);
}
);
width = 157;
}
);
leftKerningGroup = quotedbl;
rightKerningGroup = quotedbl2;
unicode = 39;
},
{
glyphname = parenleft;
layers = (
{
layerId = "B9F9456E-5A28-482F-A7A9-E399A36E312B";
shapes = (
{
closed = 1;
nodes = (
(270,-167,l),
(247,-102,o),
(234,-22,o),
(232,61,cs),
(229,144,o),
(239,229,o),
(259,304,c),
(285,404,o),
(329,500,o),
(383,585,cs),
(436,669,o),
(501,742,o),
(573,793,c),
(353,793,l),
(283,748,o),
(217,679,o),
(161,599,cs),
(105,519,o),
(61,426,o),
(36,334,cs),
(12,245,o),
(5,149,o),
(15,61,cs),
(25,-27,o),
(50,-107,o),
(89,-167,c)
);
}
);
width = 425;
},
{
layerId = "D36F68F1-AC05-4452-BDF9-AB186909F070";
shapes = (
{
closed = 1;
nodes = (
(200,-167,l),
(163,-107,o),
(138,-30,o),
(130,57,cs),
(122,143,o),
(129,235,o),
(153,326,cs),
(177,421,o),
(220,513,o),
(276,595,cs),
(331,677,o),
(398,746,o),
(470,793,c),
(378,793,l),
(306,746,o),
(237,677,o),
(185,598,cs),
(131,518,o),
(88,428,o),
(64,336,cs),
(39,244,o),
(32,149,o),
(43,61,cs),
(54,-27,o),
(81,-107,o),
(125,-167,c)
);
}
);
width = 353;
},
{
layerId = "35642718-112C-4883-8033-E2E6DF5C4D00";
shapes = (
{
closed = 1;
nodes = (
(173,-167,l),
(129,-110,o),
(102,-32,o),
(91,55,cs),
(80,142,o),
(85,238,o),
(111,335,cs),
(136,426,o),
(178,518,o),
(234,599,cs),
(289,679,o),
(356,748,o),
(430,793,c),
(389,793,l),
(313,745,o),
(247,677,o),
(195,598,cs),
(141,518,o),
(100,428,o),
(75,337,cs),
(50,244,o),
(43,149,o),
(54,62,cs),
(66,-26,o),
(93,-107,o),
(140,-167,c)
);
}
);
width = 325;
}
);
unicode = 40;
},
{
glyphname = parenright;
layers = (
{
layerId = "B9F9456E-5A28-482F-A7A9-E399A36E312B";
shapes = (
{
closed = 1;
nodes = (
(174,793,l),
(198,728,o),
(211,648,o),
(213,565,cs),
(215,482,o),
(205,397,o),
(186,322,cs),
(159,222,o),
(117,126,o),
(62,42,cs),
(8,-43,o),
(-58,-116,o),
(-128,-167,c),
(91,-167,l),
(161,-122,o),
(227,-53,o),
(283,27,cs),
(339,107,o),
(384,200,o),
(409,292,cs),
(433,381,o),
(439,477,o),
(430,565,cs),
(421,653,o),
(394,733,o),
(355,793,c)
);
}
);
width = 425;
},
{
layerId = "D36F68F1-AC05-4452-BDF9-AB186909F070";
shapes = (
{
closed = 1;
nodes = (
(180,793,l),
(217,733,o),
(242,656,o),
(250,570,cs),
(258,484,o),
(251,391,o),
(227,300,cs),
(203,205,o),
(160,114,o),
(104,32,cs),
(49,-51,o),
(-18,-120,o),
(-90,-167,c),
(2,-167,l),
(75,-120,o),
(143,-51,o),
(196,29,cs),
(249,108,o),
(292,198,o),
(316,290,cs),
(341,382,o),
(348,477,o),
(337,565,cs),
(326,653,o),
(299,733,o),
(255,793,c)
);
}
);
width = 353;
},
{
layerId = "35642718-112C-4883-8033-E2E6DF5C4D00";
shapes = (
{
closed = 1;
nodes = (
(183,793,l),
(225,736,o),
(254,658,o),
(265,571,cs),
(276,484,o),
(269,388,o),
(244,291,cs),
(219,200,o),
(177,108,o),
(122,28,cs),
(68,-53,o),
(-2,-122,o),
(-75,-167,c),
(-33,-167,l),
(42,-119,o),
(109,-51,o),
(162,29,cs),
(215,109,o),
(256,198,o),
(281,289,cs),
(305,382,o),
(312,477,o),
(301,565,cs),
(290,652,o),
(262,733,o),
(216,793,c)
);
}
);
width = 325;
}
);
unicode = 41;
},
{
glyphname = asterisk;
layers = (
{
layerId = "B9F9456E-5A28-482F-A7A9-E399A36E312B";
shapes = (
{
closed = 1;
nodes = (
(239,446,l),
(249,483,l),
(248,542,l),
(279,497,l),
(306,479,l),
(367,552,l),
(339,570,l),
(284,587,l),
(349,603,l),
(386,622,l),
(363,694,l),
(325,676,l),
(270,631,l),
(303,691,l),
(313,729,l),
(229,729,l),
(219,691,l),
(221,631,l),
(189,676,l),
(161,694,l),
(101,622,l),
(128,603,l),
(185,587,l),
(119,570,l),
(83,552,l),
(103,479,l),
(142,497,l),
(198,542,l),
(166,483,l),
(156,446,l)
);
}
);
width = 293;
},
{
layerId = "D36F68F1-AC05-4452-BDF9-AB186909F070";
shapes = (
{
closed = 1;
nodes = (
(226,452,l),
(240,505,l),
(245,570,l),
(286,528,l),
(326,502,l),
(356,540,l),
(317,567,l),
(265,591,l),
(331,615,l),
(381,640,l),
(369,679,l),
(318,653,l),
(257,612,l),
(282,677,l),
(297,729,l),
(252,729,l),
(238,677,l),
(234,612,l),
(193,653,l),
(153,679,l),
(124,640,l),
(161,615,l),
(215,591,l),
(148,567,l),
(97,540,l),
(110,502,l),
(161,528,l),
(222,570,l),
(195,505,l),
(182,452,l)
);
}
);
width = 298;
},
{
layerId = "35642718-112C-4883-8033-E2E6DF5C4D00";
shapes = (
{
closed = 1;
nodes = (
(222,454,l),
(236,513,l),
(244,581,l),
(290,541,l),
(334,511,l),
(352,536,l),
(309,566,l),
(259,593,l),
(324,619,l),
(380,647,l),
(372,672,l),
(316,644,l),
(252,605,l),
(275,672,l),
(290,729,l),
(261,729,l),
(246,672,l),
(240,605,l),
(195,644,l),
(151,672,l),
(133,647,l),
(174,619,l),
(227,593,l),
(160,566,l),
(103,536,l),
(112,511,l),
(169,541,l),
(232,581,l),
(207,513,l),
(193,454,l)
);
}
);
width = 300;
}
);
unicode = 42;
},
{
glyphname = plus;
layers = (
{
layerId = "B9F9456E-5A28-482F-A7A9-E399A36E312B";
shapes = (
{
closed = 1;
nodes = (
(367,115,l),
(412,266,l),
(557,266,l),
(611,455,l),
(466,455,l),
(511,606,l),
(316,606,l),
(272,455,l),
(128,455,l),
(74,266,l),
(218,266,l),
(174,115,l)
);
}
);
width = 636;
},
{
layerId = "D36F68F1-AC05-4452-BDF9-AB186909F070";
shapes = (
{
closed = 1;
nodes = (
(315,118,l),
(373,323,l),
(573,323,l),
(595,399,l),
(396,399,l),
(455,604,l),
(375,604,l),
(317,399,l),
(117,399,l),
(95,323,l),
(295,323,l),
(236,118,l)
);
}
);
width = 636;
},
{
layerId = "35642718-112C-4883-8033-E2E6DF5C4D00";
shapes = (
{
closed = 1;
nodes = (
(294,120,l),
(358,345,l),
(580,345,l),
(589,377,l),
(367,377,l),
(432,603,l),
(398,603,l),
(334,377,l),
(113,377,l),
(104,345,l),
(325,345,l),
(260,120,l)
);
}
);
width = 636;
}
);
unicode = 43;
},
{
glyphname = comma;
layers = (
{
layerId = "B9F9456E-5A28-482F-A7A9-E399A36E312B";
shapes = (
{
closed = 1;
nodes = (
(16,-178,l),
(60,-153,o),
(110,-111,o),
(147,-63,cs),
(184,-15,o),
(210,38,o),
(211,89,cs),
(212,156,o),
(167,200,o),
(94,200,cs),
(11,200,o),
(-37,155,o),
(-38,91,cs),
(-39,39,o),
(4,3,o),
(63,3,cs),
(83,3,o),
(96,6,o),
(104,9,c),
(85,29,l),
(50,-35,o),
(-26,-110,o),
(-134,-178,c)
);
}
);
width = 277;
},
{
layerId = "D36F68F1-AC05-4452-BDF9-AB186909F070";
shapes = (
{
closed = 1;
nodes = (
(-25,-139,l),
(3,-118,o),
(31,-86,o),
(56,-54,c),
(79,-21,o),
(94,12,o),
(94,39,cs),
(95,72,o),
(75,93,o),
(39,93,cs),
(2,93,o),
(-21,72,o),
(-22,39,cs),
(-22,11,o),
(0,-6,o),
(29,-6,cs),
(38,-6,o),
(45,-4,o),
(50,-3,c),
(43,8,l),
(23,-37,o),
(-26,-92,o),
(-85,-139,c)
);
}
);
width = 198;
},
{
layerId = "35642718-112C-4883-8033-E2E6DF5C4D00";
shapes = (
{
closed = 1;
nodes = (
(-41,-124,l),
(-21,-104,o),
(2,-77,o),
(19,-50,cs),
(36,-23,o),
(48,3,o),
(48,20,cs),
(48,39,o),
(37,51,o),
(16,51,cs),
(-3,51,o),
(-15,40,o),
(-15,19,cs),
(-15,0,o),
(-3,-9,o),
(16,-9,cs),
(20,-9,o),
(24,-9,o),
(29,-8,c),
(26,0,l),
(11,-39,o),
(-27,-85,o),
(-66,-124,c)
);
}
);
width = 167;
}
);
unicode = 44;
},
{
glyphname = hyphen;
layers = (
{
layerId = "B9F9456E-5A28-482F-A7A9-E399A36E312B";
shapes = (
{
closed = 1;
nodes = (
(375,177,l),
(433,373,l),
(60,373,l),
(4,177,l)
);
}
);
width = 433;
},
{
layerId = "D36F68F1-AC05-4452-BDF9-AB186909F070";
shapes = (
{
closed = 1;
nodes = (
(334,224,l),
(357,303,l),
(61,303,l),
(39,224,l)
);
}
);
width = 392;
},
{
layerId = "35642718-112C-4883-8033-E2E6DF5C4D00";
shapes = (
{
closed = 1;
nodes = (
(316,242,l),
(327,275,l),
(62,275,l),
(52,242,l)
);
}
);
width = 376;
}
);
leftKerningGroup = hyphen2;
rightKerningGroup = hyphen;
unicode = 45;
},
{
glyphname = period;
layers = (
{
layerId = "B9F9456E-5A28-482F-A7A9-E399A36E312B";
shapes = (
{
closed = 1;
nodes = (
(157,-9,o),
(213,34,o),
(214,107,cs),
(215,163,o),
(171,200,o),
(102,200,cs),
(18,200,o),
(-38,157,o),
(-39,82,cs),
(-40,27,o),
(4,-9,o),
(73,-9,cs)
);
}
);
width = 274;
},
{
layerId = "D36F68F1-AC05-4452-BDF9-AB186909F070";
shapes = (
{
closed = 1;
nodes = (
(69,-8,o),
(93,12,o),
(93,47,cs),
(94,75,o),
(74,93,o),
(42,93,cs),
(5,93,o),
(-20,73,o),
(-21,38,cs),
(-21,10,o),
(0,-8,o),
(32,-8,cs)
);
}
);
width = 194;
},
{
layerId = "35642718-112C-4883-8033-E2E6DF5C4D00";
shapes = (
{
closed = 1;
nodes = (
(34,-7,o),
(46,4,o),
(46,23,cs),
(46,40,o),
(34,51,o),
(17,51,cs),
(-2,51,o),
(-14,40,o),
(-14,21,cs),
(-14,4,o),
(-2,-7,o),
(15,-7,cs)
);
}
);
width = 163;
}
);
unicode = 46;
},
{
glyphname = slash;
layers = (
{
layerId = "B9F9456E-5A28-482F-A7A9-E399A36E312B";
shapes = (
{
closed = 1;
nodes = (
(134,-82,l),
(661,729,l),
(412,729,l),
(-112,-82,l)
);
}
);
width = 533;
},
{
layerId = "D36F68F1-AC05-4452-BDF9-AB186909F070";
shapes = (
{
closed = 1;
nodes = (
(-5,-81,l),
(557,729,l),
(459,729,l),
(-103,-81,l)
);
}
);
width = 436;
},
{
layerId = "35642718-112C-4883-8033-E2E6DF5C4D00";
shapes = (
{
closed = 1;
nodes = (
(-59,-81,l),
(515,729,l),
(477,729,l),
(-98,-81,l)
);
}
);
width = 397;
}
);
unicode = 47;
},
{
glyphname = zero.lf;
layers = (
{
layerId = "B9F9456E-5A28-482F-A7A9-E399A36E312B";
shapes = (
{
closed = 1;
nodes = (
(398,-9,o),
(481,18,o),
(548,74,cs),
(614,129,o),
(665,211,o),
(691,321,cs),
(720,447,o),
(711,551,o),
(668,624,cs),
(625,696,o),
(545,736,o),
(436,736,cs),
(344,736,o),
(262,709,o),
(194,653,cs),
(127,598,o),
(78,517,o),
(53,406,c),
(21,281,o),
(31,177,o),
(76,104,cs),
(120,31,o),
(198,-9,o),
(306,-9,cs)
);
},
{
closed = 1;
nodes = (
(298,193,o),
(280,215,o),
(275,249,c),
(269,281,o),
(276,327,o),
(289,375,cs),
(305,433,o),
(319,473,o),
(339,498,c),
(357,523,o),
(380,534,o),
(411,534,cs),
(444,534,o),
(463,513,o),
(468,480,cs),
(474,447,o),
(468,401,o),
(453,353,c),
(437,293,o),
(423,254,o),
(403,230,cs),
(383,204,o),
(361,193,o),
(332,193,cs)
);
}
);
width = 689;
},
{
layerId = "D36F68F1-AC05-4452-BDF9-AB186909F070";
shapes = (
{
closed = 1;
nodes = (
(376,-9,o),
(450,22,o),
(511,84,cs),
(570,146,o),
(616,238,o),
(637,359,c),
(659,465,o),
(654,560,o),
(620,628,cs),
(584,696,o),
(520,737,o),
(423,737,cs),
(339,737,o),
(263,705,o),
(203,643,cs),
(143,581,o),
(99,490,o),
(77,369,cs),
(56,260,o),
(61,166,o),
(97,98,cs),
(131,30,o),
(195,-9,o),
(292,-9,cs)
);
},
{
closed = 1;
nodes = (
(239,73,o),
(198,102,o),
(178,151,cs),
(158,199,o),
(157,269,o),
(171,346,cs),
(187,446,o),
(217,523,o),
(259,575,cs),
(300,627,o),
(353,655,o),
(414,655,cs),
(477,655,o),
(517,626,o),
(536,577,cs),
(556,528,o),
(558,459,o),
(544,381,cs),
(528,287,o),
(499,209,o),
(458,156,cs),
(417,102,o),
(364,73,o),
(300,73,cs)
);
}
);
width = 654;
},
{
layerId = "35642718-112C-4883-8033-E2E6DF5C4D00";
shapes = (
{
closed = 1;
nodes = (
(368,-10,o),
(440,23,o),
(497,88,cs),
(553,153,o),
(596,249,o),
(616,374,c),
(636,472,o),
(631,564,o),
(601,630,cs),
(569,696,o),
(510,737,o),
(417,737,cs),
(337,737,o),
(265,704,o),
(208,640,cs),
(151,575,o),
(108,479,o),
(88,354,c),
(69,253,o),
(73,162,o),
(105,96,cs),
(136,30,o),
(194,-10,o),
(287,-10,cs)
);
},
{
closed = 1;
nodes = (
(214,24,o),
(165,57,o),
(141,112,cs),
(115,168,o),
(110,246,o),
(124,335,cs),
(142,451,o),
(178,542,o),
(228,606,cs),
(278,669,o),
(342,703,o),
(415,703,cs),
(490,703,o),
(538,670,o),
(564,615,cs),
(589,559,o),
(594,482,o),
(579,392,c),
(564,283,o),
(530,192,o),
(480,127,cs),
(430,62,o),
(365,24,o),
(288,24,cs)
);
}
);
width = 640;
}
);
},
{
glyphname = one.lf;
layers = (
{
layerId = "B9F9456E-5A28-482F-A7A9-E399A36E312B";
shapes = (
{
closed = 1;
nodes = (
(365,0,l),
(574,729,l),
(343,729,l),
(327,689,o),
(295,655,o),
(259,632,cs),
(221,608,o),
(178,594,o),
(133,594,cs),
(103,594,l),
(50,406,l),
(235,406,l),
(117,0,l)
);
}
);
width = 488;
},
{
layerId = "D36F68F1-AC05-4452-BDF9-AB186909F070";
shapes = (
{
closed = 1;
nodes = (
(206,0,l),
(414,729,l),
(321,729,l),
(305,692,o),
(284,661,o),
(256,641,cs),
(226,621,o),
(191,609,o),
(147,609,cs),
(119,609,l),
(98,535,l),
(260,535,l),
(108,0,l)
);
}
);
width = 356;
},
{
layerId = "35642718-112C-4883-8033-E2E6DF5C4D00";
shapes = (
{
closed = 1;
nodes = (
(144,0,l),
(349,729,l),
(312,729,l),
(299,693,o),
(280,664,o),
(255,645,cs),
(229,625,o),
(196,615,o),
(153,615,cs),
(126,615,l),
(117,585,l),
(269,585,l),
(105,0,l)
);
}
);
width = 304;
}
);
},
{
glyphname = two.lf;
layers = (
{
layerId = "B9F9456E-5A28-482F-A7A9-E399A36E312B";
shapes = (
{
closed = 1;
nodes = (
(538,0,l),
(594,203,l),
(314,203,l),
(333,212,o),
(354,221,o),
(379,232,c),
(427,251,o),
(477,275,o),
(526,306,cs),
(550,322,o),
(572,340,o),
(591,361,c),
(630,401,o),
(655,454,o),
(656,522,cs),
(657,590,o),
(634,643,o),
(588,680,cs),
(542,717,o),
(474,737,o),
(390,737,cs),
(306,737,o),
(231,711,o),
(176,666,cs),
(121,621,o),
(84,556,o),
(78,480,c),
(313,480,l),
(311,520,o),
(339,541,o),
(371,541,cs),
(387,541,o),
(398,539,o),
(404,533,cs),
(410,527,o),
(414,518,o),
(414,506,c),
(413,488,o),
(403,473,o),
(384,459,cs),
(346,431,o),
(284,401,o),
(212,362,cs),
(177,342,o),
(142,317,o),
(107,288,cs),
(39,230,o),
(-20,151,o),
(-47,34,cs),
(-55,0,l)
);
}
);
width = 628;
},
{
layerId = "D36F68F1-AC05-4452-BDF9-AB186909F070";
shapes = (
{
closed = 1;
nodes = (
(489,0,l),
(513,82,l),
(130,82,l),
(142,110,o),
(162,135,o),
(189,157,c),
(246,200,o),
(317,238,o),
(393,278,cs),
(431,297,o),
(466,320,o),
(498,345,cs),
(561,393,o),
(606,453,o),
(607,538,cs),
(608,599,o),
(585,647,o),
(546,682,c),
(508,718,o),
(451,737,o),
(385,737,cs),
(309,737,o),
(246,717,o),
(196,677,cs),
(148,638,o),
(114,582,o),
(101,511,c),
(198,511,l),
(218,607,o),
(281,657,o),
(379,657,cs),
(420,657,o),
(453,644,o),
(475,623,cs),
(497,602,o),
(510,570,o),
(510,534,cs),
(510,499,o),
(498,469,o),
(476,444,cs),
(432,392,o),
(362,351,o),
(280,309,cs),
(239,288,o),
(200,266,o),
(163,242,cs),
(87,192,o),
(22,130,o),
(0,44,c),
(-10,0,l)
);
}
);
width = 588;
},
{
layerId = "35642718-112C-4883-8033-E2E6DF5C4D00";
shapes = (
{
closed = 1;
nodes = (
(471,0,l),
(481,34,l),
(58,34,l),
(67,70,o),
(86,101,o),
(115,127,cs),
(173,180,o),
(255,223,o),
(342,267,cs),
(385,288,o),
(425,312,o),
(461,339,c),
(534,390,o),
(587,453,o),
(587,545,cs),
(588,602,o),
(567,650,o),
(531,684,c),
(493,717,o),
(443,737,o),
(382,737,cs),
(310,737,o),
(250,718,o),
(205,681,cs),
(160,645,o),
(127,593,o),
(110,523,c),
(152,523,l),
(182,641,o),
(258,703,o),
(382,703,cs),
(432,703,o),
(474,687,o),
(504,659,c),
(532,631,o),
(549,590,o),
(548,545,cs),
(548,504,o),
(537,468,o),
(514,439,c),
(467,378,o),
(393,331,o),
(308,289,cs),
(265,268,o),
(223,247,o),
(185,223,c),
(107,177,o),
(40,122,o),
(18,49,c),
(7,0,l)
);
}
);
width = 572;
}
);
},
{
glyphname = three.lf;
layers = (
{
layerId = "B9F9456E-5A28-482F-A7A9-E399A36E312B";
shapes = (
{
closed = 1;
nodes = (
(370,-9,o),
(453,13,o),
(515,54,cs),
(574,94,o),
(611,153,o),
(611,222,c),
(612,260,o),
(599,293,o),
(583,318,cs),
(566,344,o),
(544,360,o),
(524,367,c),
(526,375,l),
(575,395,o),
(612,423,o),
(635,453,cs),
(658,483,o),
(669,517,o),
(669,552,cs),
(670,608,o),
(645,654,o),
(603,687,c),
(559,719,o),
(498,736,o),
(429,736,cs),
(340,736,o),
(258,715,o),
(197,675,cs),
(134,635,o),
(93,576,o),
(81,503,c),
(320,503,l),
(326,523,o),
(345,538,o),
(376,538,cs),
(391,538,o),
(400,535,o),
(407,530,cs),
(415,525,o),
(418,518,o),
(418,507,c),
(417,490,o),
(408,476,o),
(395,467,cs),
(382,458,o),
(362,453,o),
(339,453,cs),
(267,453,l),
(215,282,l),
(302,282,ls),
(315,282,o),
(330,282,o),
(343,276,cs),
(355,270,o),
(363,258,o),
(363,238,c),
(362,218,o),
(354,207,o),
(342,199,cs),
(330,191,o),
(314,188,o),
(295,188,cs),
(282,188,o),
(269,192,o),
(258,198,cs),
(247,204,o),
(239,213,o),
(237,231,c),
(-4,231,l),
(-8,159,o),
(17,100,o),
(66,58,c),
(112,15,o),
(183,-9,o),
(273,-9,cs)
);
}
);
width = 635;
},
{
layerId = "D36F68F1-AC05-4452-BDF9-AB186909F070";
shapes = (
{
closed = 1;
nodes = (
(334,-11,o),
(404,12,o),
(456,53,cs),
(509,93,o),
(539,150,o),
(540,218,cs),
(540,255,o),
(528,287,o),
(509,314,cs),
(490,342,o),
(466,360,o),
(442,368,c),
(444,373,l),
(497,385,o),
(541,411,o),
(570,444,c),
(601,476,o),
(616,518,o),
(616,563,cs),
(617,615,o),
(597,659,o),
(558,690,cs),
(521,720,o),
(467,737,o),
(399,737,cs),
(326,737,o),
(262,721,o),
(210,686,c),
(160,650,o),
(123,599,o),
(106,527,c),
(200,527,l),
(224,605,o),
(281,656,o),
(383,656,cs),
(425,656,o),
(458,646,o),
(482,627,c),
(506,607,o),
(517,579,o),
(517,546,cs),
(517,503,o),
(498,469,o),
(466,446,cs),
(435,423,o),
(392,411,o),
(341,411,cs),
(257,411,l),
(237,338,l),
(306,338,ls),
(350,338,o),
(383,328,o),
(405,308,cs),
(429,288,o),
(442,260,o),
(442,223,cs),
(441,178,o),
(425,140,o),
(393,112,cs),
(362,85,o),
(318,70,o),
(261,70,cs),
(215,70,o),
(176,82,o),
(150,106,c),
(123,129,o),
(109,164,o),
(114,207,c),
(20,207,l),
(15,144,o),
(35,89,o),
(75,51,cs),
(114,12,o),
(174,-11,o),
(252,-11,cs)
);
}
);
width = 593;
},
{
layerId = "35642718-112C-4883-8033-E2E6DF5C4D00";
shapes = (
{
closed = 1;
nodes = (
(321,-11,o),
(386,11,o),
(435,52,cs),
(483,92,o),
(513,149,o),
(513,217,c),
(514,253,o),
(500,285,o),
(481,312,cs),
(461,340,o),
(436,360,o),
(411,368,c),
(412,372,l),
(468,381,o),
(513,406,o),
(546,440,cs),
(577,473,o),
(596,518,o),
(596,567,cs),
(597,617,o),
(576,660,o),
(541,691,c),
(505,721,o),
(452,737,o),
(387,737,cs),
(319,737,o),
(261,722,o),
(215,690,c),
(170,656,o),
(134,607,o),
(116,537,c),
(153,537,l),
(185,637,o),
(257,703,o),
(386,703,cs),
(439,703,o),
(482,690,o),
(512,665,cs),
(541,640,o),
(557,606,o),
(556,561,cs),
(556,509,o),
(533,466,o),
(496,438,cs),
(458,408,o),
(403,393,o),
(342,393,cs),
(253,393,l),
(245,360,l),
(308,360,ls),
(362,360,o),
(403,345,o),
(432,321,c),
(459,295,o),
(474,260,o),
(473,218,cs),
(473,162,o),
(452,113,o),
(414,79,cs),
(376,44,o),
(320,23,o),
(248,23,cs),
(188,23,o),
(139,39,o),
(106,70,cs),
(75,100,o),
(61,144,o),
(66,199,c),
(30,199,l),
(25,138,o),
(42,84,o),
(79,48,c),
(115,11,o),
(171,-11,o),
(245,-11,cs)
);
}
);
width = 577;
}
);
},
{
glyphname = four.lf;
layers = (
{
layerId = "B9F9456E-5A28-482F-A7A9-E399A36E312B";
shapes = (
{
closed = 1;
nodes = (
(504,0,l),
(715,729,l),
(420,729,l),
(19,312,l),
(-28,140,l),
(644,140,l),
(701,334,l),
(270,334,l),
(399,474,l),
(399,474,l),
(260,0,l)
);
}
);
width = 692;
},
{
layerId = "D36F68F1-AC05-4452-BDF9-AB186909F070";
shapes = (
{
closed = 1;
nodes = (
(414,0,l),
(622,729,l),
(510,729,l),
(20,256,l),
(-1,182,l),
(595,182,l),
(618,261,l),
(123,261,l),
(493,612,l),
(494,612,l),
(319,0,l)
);
}
);
width = 637;
},
{
layerId = "35642718-112C-4883-8033-E2E6DF5C4D00";
shapes = (
{
closed = 1;
nodes = (
(379,0,l),
(584,729,l),
(545,729,l),
(20,234,l),
(11,198,l),
(576,198,l),
(585,232,l),
(66,232,l),
(531,666,l),
(531,666,l),
(343,0,l)
);
}
);
width = 615;
}
);
},
{
glyphname = five.lf;
layers = (
{
layerId = "B9F9456E-5A28-482F-A7A9-E399A36E312B";
shapes = (
{
closed = 1;
nodes = (
(382,-9,o),
(467,20,o),
(529,70,cs),
(590,118,o),
(625,189,o),
(626,275,cs),
(627,333,o),
(607,384,o),
(572,421,cs),
(537,457,o),
(485,477,o),
(424,477,cs),
(398,477,o),
(361,480,o),
(326,465,c),
(318,468,l),
(346,524,l),
(648,524,l),
(707,729,l),
(182,729,l),
(24,257,l),
(258,257,l),
(262,280,o),
(288,299,o),
(326,299,cs),
(342,299,o),
(356,295,o),
(365,287,cs),
(374,278,o),
(379,267,o),
(379,255,cs),
(379,235,o),
(373,218,o),
(361,207,cs),
(349,195,o),
(331,189,o),
(309,189,cs),
(296,189,o),
(284,191,o),
(276,196,cs),
(268,200,o),
(260,208,o),
(256,216,c),
(6,216,l),
(7,148,o),
(32,91,o),
(82,52,c),
(129,12,o),
(198,-9,o),
(282,-9,cs)
);
}
);
width = 641;
},
{
layerId = "D36F68F1-AC05-4452-BDF9-AB186909F070";
shapes = (
{
closed = 1;
nodes = (
(355,-11,o),
(429,17,o),
(481,65,c),
(535,112,o),
(565,179,o),
(566,259,cs),
(566,323,o),
(547,374,o),
(511,411,c),
(474,447,o),
(425,467,o),
(361,467,cs),
(304,467,o),
(239,452,o),
(198,420,c),
(193,421,l),
(271,646,l),
(642,646,l),
(665,729,l),
(207,729,l),
(76,328,l),
(171,328,l),
(204,368,o),
(267,393,o),
(328,393,cs),
(369,393,o),
(405,380,o),
(431,356,c),
(455,332,o),
(468,296,o),
(468,253,cs),
(468,201,o),
(450,156,o),
(418,123,c),
(384,90,o),
(336,70,o),
(276,70,cs),
(231,70,o),
(193,83,o),
(167,107,cs),
(141,130,o),
(124,164,o),
(124,203,c),
(28,203,l),
(27,139,o),
(52,85,o),
(92,49,cs),
(133,11,o),
(194,-11,o),
(266,-11,cs)
);
}
);
width = 606;
},
{
layerId = "35642718-112C-4883-8033-E2E6DF5C4D00";
shapes = (
{
closed = 1;
nodes = (
(345,-11,o),
(414,17,o),
(464,64,c),
(516,110,o),
(543,176,o),
(544,254,cs),
(544,317,o),
(524,370,o),
(487,406,c),
(451,443,o),
(400,464,o),
(336,464,cs),
(267,464,o),
(193,442,o),
(148,401,c),
(144,401,l),
(242,695,l),
(639,695,l),
(648,729,l),
(216,729,l),
(95,355,l),
(136,355,l),
(182,403,o),
(260,431,o),
(329,431,cs),
(381,431,o),
(424,415,o),
(455,384,cs),
(486,354,o),
(504,308,o),
(504,253,cs),
(503,189,o),
(481,131,o),
(441,90,c),
(398,49,o),
(339,23,o),
(263,23,cs),
(203,23,o),
(156,41,o),
(123,72,cs),
(91,102,o),
(72,147,o),
(73,198,c),
(36,198,l),
(36,136,o),
(58,83,o),
(97,47,cs),
(137,10,o),
(193,-11,o),
(261,-11,cs)
);
}
);
width = 592;
}
);
},
{
glyphname = six.lf;
layers = (
{
layerId = "B9F9456E-5A28-482F-A7A9-E399A36E312B";
shapes = (
{
closed = 1;
nodes = (
(422,-10,o),
(502,17,o),
(561,66,cs),
(620,113,o),
(654,183,o),
(655,268,cs),
(656,334,o),
(632,387,o),
(592,425,c),
(551,461,o),
(494,481,o),
(429,481,cs),
(391,481,o),
(334,474,o),
(302,452,c),
(294,456,l),
(303,484,o),
(318,506,o),
(338,520,cs),
(357,534,o),
(381,540,o),
(409,540,cs),
(429,540,o),
(445,536,o),
(457,532,cs),
(469,527,o),
(478,520,o),
(479,509,c),
(717,509,l),
(714,578,o),
(683,634,o),
(634,674,cs),
(583,714,o),
(514,736,o),
(436,736,cs),
(303,736,o),
(203,684,o),
(137,600,cs),
(71,516,o),
(37,400,o),
(37,274,c),
(39,198,o),
(61,127,o),
(110,76,c),
(158,23,o),
(231,-10,o),
(332,-10,cs)
);
},
{
closed = 1;
nodes = (
(311,188,o),
(297,194,o),
(287,203,cs),
(277,212,o),
(271,223,o),
(272,240,c),
(272,260,o),
(277,279,o),
(289,292,cs),
(301,305,o),
(322,314,o),
(350,314,cs),
(369,314,o),
(384,308,o),
(394,300,cs),
(404,291,o),
(411,277,o),
(411,261,cs),
(411,237,o),
(401,217,o),
(388,206,cs),
(375,194,o),
(354,188,o),
(329,188,cs)
);
}
);
width = 671;
},
{
layerId = "D36F68F1-AC05-4452-BDF9-AB186909F070";
shapes = (
{
closed = 1;
nodes = (
(402,-11,o),
(473,17,o),
(524,66,cs),
(572,113,o),
(602,179,o),
(603,256,cs),
(603,321,o),
(580,373,o),
(541,409,cs),
(500,446,o),
(448,466,o),
(384,466,cs),
(299,466,o),
(211,434,o),
(180,384,c),
(175,385,l),
(176,452,o),
(208,527,o),
(254,578,cs),
(300,630,o),
(362,656,o),
(431,656,cs),
(474,656,o),
(510,645,o),
(536,626,cs),
(562,606,o),
(577,576,o),
(581,543,c),
(675,543,l),
(671,603,o),
(644,650,o),
(603,685,cs),
(562,719,o),
(505,737,o),
(439,737,cs),
(331,737,o),
(242,691,o),
(178,613,cs),
(113,535,o),
(75,424,o),
(69,294,cs),
(64,198,o),
(82,122,o),
(124,71,cs),
(166,18,o),
(232,-11,o),
(321,-11,cs)
);
},
{
closed = 1;
nodes = (
(270,70,o),
(233,85,o),
(206,110,cs),
(180,135,o),
(165,174,o),
(166,219,cs),
(166,272,o),
(186,316,o),
(220,347,cs),
(254,377,o),
(301,395,o),
(357,395,cs),
(401,395,o),
(439,381,o),
(465,357,cs),
(491,333,o),
(506,296,o),
(506,253,cs),
(506,197,o),
(484,152,o),
(452,120,cs),
(419,88,o),
(371,70,o),
(315,70,cs)
);
}
);
width = 645;
},
{
layerId = "35642718-112C-4883-8033-E2E6DF5C4D00";
shapes = (
{
closed = 1;
nodes = (
(396,-11,o),
(463,18,o),
(509,66,cs),
(555,113,o),
(582,178,o),
(582,251,cs),
(583,315,o),
(560,367,o),
(521,403,cs),
(482,440,o),
(428,460,o),
(367,460,cs),
(259,460,o),
(165,415,o),
(117,315,c),
(113,315,l),
(126,440,o),
(165,536,o),
(222,602,cs),
(279,667,o),
(354,703,o),
(440,703,cs),
(491,703,o),
(534,690,o),
(566,663,cs),
(598,637,o),
(618,601,o),
(622,556,c),
(660,556,l),
(653,612,o),
(629,656,o),
(591,689,cs),
(554,720,o),
(501,737,o),
(440,737,cs),
(342,737,o),
(256,695,o),
(195,619,cs),
(132,542,o),
(92,433,o),
(83,302,c),
(73,200,o),
(90,120,o),
(129,69,cs),
(169,16,o),
(233,-11,o),
(316,-11,cs)
);
},
{
closed = 1;
nodes = (
(254,23,o),
(207,41,o),
(175,74,cs),
(143,106,o),
(124,154,o),
(124,211,cs),
(125,276,o),
(151,331,o),
(193,368,cs),
(236,405,o),
(294,427,o),
(360,427,cs),
(416,427,o),
(460,411,o),
(492,379,c),
(525,348,o),
(544,304,o),
(543,249,cs),
(543,183,o),
(519,125,o),
(478,86,cs),
(436,47,o),
(378,23,o),
(309,23,cs)
);
}
);
width = 635;
}
);
},
{
glyphname = seven.lf;
layers = (
{
layerId = "B9F9456E-5A28-482F-A7A9-E399A36E312B";
shapes = (
{
closed = 1;
nodes = (
(346,0,l),
(391,128,o),
(448,233,o),
(511,322,cs),
(572,409,o),
(641,485,o),
(711,555,c),
(761,729,l),
(149,729,l),
(89,521,l),
(277,521,l),
(277,521,l),
(438,521,l),
(375,465,o),
(308,387,o),
(248,298,cs),
(187,208,o),
(133,106,o),
(95,0,c)
);
}
);
width = 637;
},
{
layerId = "D36F68F1-AC05-4452-BDF9-AB186909F070";
shapes = (
{
closed = 1;
nodes = (
(222,0,l),
(272,112,o),
(330,221,o),
(401,331,cs),
(472,439,o),
(557,547,o),
(662,653,c),
(685,729,l),
(166,729,l),
(142,646,l),
(218,646,l),
(218,646,l),
(557,646,l),
(471,562,o),
(390,466,o),
(316,358,cs),
(242,250,o),
(177,129,o),
(120,0,c)
);
}
);
width = 571;
},
{
layerId = "35642718-112C-4883-8033-E2E6DF5C4D00";
shapes = (
{
closed = 1;
nodes = (
(175,0,l),
(224,105,o),
(283,217,o),
(358,335,cs),
(433,451,o),
(525,571,o),
(644,692,c),
(654,729,l),
(173,729,l),
(163,696,l),
(195,696,l),
(195,696,l),
(605,696,l),
(511,602,o),
(422,497,o),
(343,382,cs),
(265,267,o),
(193,139,o),
(131,0,c)
);
}
);
width = 545;
}
);
},
{
glyphname = eight.lf;
layers = (
{
layerId = "B9F9456E-5A28-482F-A7A9-E399A36E312B";
shapes = (
{
closed = 1;
nodes = (
(398,-10,o),
(479,10,o),
(537,47,cs),
(593,83,o),
(624,136,o),
(625,202,c),
(627,239,o),
(616,270,o),
(597,296,cs),
(578,323,o),
(553,344,o),
(525,352,c),
(527,360,l),
(574,372,o),
(615,394,o),
(644,425,cs),
(671,455,o),
(689,493,o),
(689,539,cs),
(690,596,o),
(664,644,o),
(617,680,cs),
(568,716,o),
(496,737,o),
(406,737,cs),
(322,737,o),
(247,716,o),
(191,679,cs),
(134,642,o),
(102,588,o),
(101,519,cs),
(100,491,o),
(108,462,o),
(121,441,cs),
(134,420,o),
(152,402,o),
(172,391,c),
(170,381,l),
(121,373,o),
(79,350,o),
(48,316,c),
(14,283,o),
(-4,240,o),
(-5,188,cs),
(-6,120,o),
(26,71,o),
(80,38,cs),
(135,6,o),
(209,-10,o),
(297,-10,cs)
);
},
{
closed = 1;
nodes = (
(286,188,o),
(272,193,o),
(261,201,cs),
(250,209,o),
(245,221,o),
(246,235,c),
(246,251,o),
(252,265,o),
(264,275,cs),
(275,285,o),
(294,290,o),
(320,290,cs),
(339,290,o),
(353,284,o),
(364,275,cs),
(375,266,o),
(381,254,o),
(381,239,cs),
(381,225,o),
(374,212,o),
(362,203,cs),
(350,194,o),
(332,188,o),
(306,188,cs)
);
},
{
closed = 1;
nodes = (
(369,457,o),
(355,462,o),
(346,470,cs),
(337,478,o),
(331,488,o),
(332,500,c),
(332,529,o),
(356,546,o),
(400,546,cs),
(416,546,o),
(429,541,o),
(438,534,cs),
(447,527,o),
(452,517,o),
(452,506,c),
(451,489,o),
(445,477,o),
(434,470,cs),
(423,462,o),
(406,457,o),
(386,457,cs)
);
}
);
width = 656;
},
{
layerId = "D36F68F1-AC05-4452-BDF9-AB186909F070";
shapes = (
{
closed = 1;
nodes = (
(362,-9,o),
(434,12,o),
(485,50,c),
(538,87,o),
(567,142,o),
(568,210,cs),
(568,247,o),
(555,280,o),
(534,307,c),
(514,335,o),
(484,353,o),
(449,361,c),
(450,365,l),
(508,372,o),
(556,393,o),
(590,427,c),
(626,460,o),
(645,505,o),
(645,558,cs),
(646,612,o),
(622,659,o),
(579,690,cs),
(538,720,o),
(477,737,o),
(405,737,cs),
(328,737,o),
(259,715,o),
(211,677,cs),
(163,640,o),
(135,586,o),
(134,522,cs),
(134,489,o),
(146,460,o),
(163,437,cs),
(181,413,o),
(205,394,o),
(237,385,c),
(236,380,l),
(176,376,o),
(123,352,o),
(83,315,cs),
(43,279,o),
(19,229,o),
(18,171,cs),
(18,115,o),
(42,71,o),
(86,39,cs),
(130,8,o),
(194,-9,o),
(274,-9,cs)
);
},
{
closed = 1;
nodes = (
(234,71,o),
(192,82,o),
(164,102,c),
(134,121,o),
(117,152,o),
(117,188,cs),
(118,234,o),
(138,272,o),
(170,297,cs),
(202,323,o),
(249,338,o),
(304,338,cs),
(356,338,o),
(397,329,o),
(425,309,cs),
(453,289,o),
(469,261,o),
(469,221,cs),
(468,174,o),
(450,136,o),
(418,111,cs),
(385,86,o),
(340,71,o),
(283,71,cs)
);
},
{
closed = 1;
nodes = (
(338,409,o),
(300,419,o),
(273,436,cs),
(245,453,o),
(227,479,o),
(227,516,cs),
(228,606,o),
(293,659,o),
(401,659,cs),
(442,659,o),
(479,650,o),
(508,631,cs),
(535,612,o),
(551,584,o),
(551,545,cs),
(551,502,o),
(533,468,o),
(500,445,cs),
(469,422,o),
(427,409,o),
(377,409,cs)
);
}
);
width = 624;
},
{
layerId = "35642718-112C-4883-8033-E2E6DF5C4D00";
shapes = (
{
closed = 1;
nodes = (
(347,-9,o),
(417,12,o),
(466,51,c),
(517,89,o),
(546,145,o),
(546,212,cs),
(546,252,o),
(533,286,o),
(511,312,cs),
(488,339,o),
(456,356,o),
(420,364,c),
(420,367,l),
(481,371,o),
(533,393,o),
(571,428,cs),
(608,462,o),
(629,509,o),
(629,565,cs),
(630,619,o),
(605,663,o),
(564,693,cs),
(524,722,o),
(467,737,o),
(405,737,cs),
(328,737,o),
(264,715,o),
(219,677,cs),
(174,640,o),
(149,584,o),
(149,523,cs),
(149,489,o),
(160,459,o),
(180,435,c),
(198,409,o),
(226,391,o),
(262,382,c),
(262,379,l),
(198,376,o),
(140,353,o),
(99,315,cs),
(58,278,o),
(29,225,o),
(29,164,cs),
(29,114,o),
(49,71,o),
(89,40,cs),
(129,10,o),
(189,-9,o),
(266,-9,cs)
);
},
{
closed = 1;
nodes = (
(212,25,o),
(161,38,o),
(124,63,cs),
(89,87,o),
(69,124,o),
(69,170,cs),
(69,227,o),
(94,275,o),
(134,307,cs),
(175,339,o),
(233,357,o),
(298,357,cs),
(363,357,o),
(415,345,o),
(450,322,cs),
(485,298,o),
(505,263,o),
(504,215,cs),
(504,155,o),
(481,107,o),
(441,75,cs),
(400,42,o),
(343,25,o),
(273,25,cs)
);
},
{
closed = 1;
nodes = (
(326,390,o),
(280,400,o),
(246,422,c),
(210,443,o),
(187,476,o),
(187,522,cs),
(188,636,o),
(269,704,o),
(402,704,cs),
(452,704,o),
(499,693,o),
(535,669,cs),
(570,645,o),
(591,610,o),
(590,561,cs),
(590,508,o),
(567,464,o),
(529,436,cs),
(489,406,o),
(435,390,o),
(373,390,cs)
);
}
);
width = 611;
}
);
},
{
glyphname = nine.lf;
layers = (
{
layerId = "B9F9456E-5A28-482F-A7A9-E399A36E312B";
shapes = (
{
closed = 1;
nodes = (
(302,736,o),
(223,709,o),
(165,661,cs),
(107,613,o),
(71,543,o),
(70,458,cs),
(69,392,o),
(93,339,o),
(133,302,cs),
(174,265,o),
(231,245,o),
(296,245,cs),
(335,245,o),
(390,252,o),
(423,274,c),
(432,270,l),
(423,242,o),
(407,221,o),
(388,207,cs),
(369,193,o),
(344,186,o),
(315,186,cs),
(296,186,o),
(281,190,o),
(269,195,cs),
(257,199,o),
(249,206,o),
(246,217,c),
(8,217,l),
(12,148,o),
(42,92,o),
(93,53,c),
(143,12,o),
(211,-10,o),
(289,-10,cs),
(423,-10,o),
(522,42,o),
(588,126,cs),
(654,210,o),
(690,327,o),
(688,452,cs),
(686,528,o),
(664,599,o),
(616,651,cs),
(568,703,o),
(495,736,o),
(394,736,cs)
);
},
{
closed = 1;
nodes = (
(414,538,o),
(429,533,o),
(439,524,cs),
(449,515,o),
(454,503,o),
(453,486,c),
(453,466,o),
(448,447,o),
(436,434,cs),
(424,421,o),
(404,412,o),
(376,412,cs),
(357,412,o),
(343,418,o),
(332,427,cs),
(321,435,o),
(314,449,o),
(314,465,cs),
(314,489,o),
(325,509,o),
(338,521,cs),
(351,532,o),
(372,538,o),
(396,538,cs)
);
}
);
width = 671;
},
{
layerId = "D36F68F1-AC05-4452-BDF9-AB186909F070";
shapes = (
{
closed = 1;
nodes = (
(302,737,o),
(232,709,o),
(183,661,cs),
(133,613,o),
(103,547,o),
(103,470,cs),
(102,405,o),
(125,353,o),
(165,316,cs),
(204,280,o),
(260,260,o),
(322,260,cs),
(405,260,o),
(495,295,o),
(526,342,c),
(532,342,l),
(529,275,o),
(497,199,o),
(451,148,cs),
(405,96,o),
(345,70,o),
(275,70,cs),
(234,70,o),
(196,81,o),
(171,101,cs),
(146,120,o),
(128,150,o),
(123,183,c),
(29,183,l),
(34,123,o),
(62,77,o),
(102,42,c),
(144,8,o),
(201,-11,o),
(267,-11,cs),
(375,-11,o),
(463,35,o),
(528,113,cs),
(592,191,o),
(630,302,o),
(636,432,cs),
(642,528,o),
(625,604,o),
(582,656,cs),
(540,708,o),
(474,737,o),
(386,737,cs)
);
},
{
closed = 1;
nodes = (
(436,656,o),
(474,641,o),
(500,616,cs),
(527,590,o),
(540,552,o),
(540,507,cs),
(539,454,o),
(520,411,o),
(486,380,cs),
(453,350,o),
(405,331,o),
(350,331,cs),
(304,331,o),
(268,345,o),
(242,369,cs),
(215,393,o),
(200,430,o),
(201,473,cs),
(201,529,o),
(220,574,o),
(255,607,cs),
(287,638,o),
(335,656,o),
(391,656,cs)
);
}
);
width = 645;
},
{
layerId = "35642718-112C-4883-8033-E2E6DF5C4D00";
shapes = (
{
closed = 1;
nodes = (
(302,737,o),
(236,709,o),
(190,661,cs),
(145,613,o),
(116,548,o),
(116,475,cs),
(115,412,o),
(139,359,o),
(178,323,cs),
(217,286,o),
(271,266,o),
(333,266,cs),
(438,266,o),
(534,312,o),
(580,411,c),
(584,411,l),
(572,286,o),
(534,190,o),
(477,124,cs),
(420,59,o),
(345,23,o),
(259,23,cs),
(207,23,o),
(165,38,o),
(132,64,cs),
(101,89,o),
(82,125,o),
(77,170,c),
(38,170,l),
(46,114,o),
(69,70,o),
(107,38,cs),
(146,6,o),
(197,-11,o),
(259,-11,cs),
(357,-11,o),
(442,31,o),
(505,108,cs),
(566,184,o),
(608,293,o),
(617,424,cs),
(625,528,o),
(610,606,o),
(570,658,cs),
(530,711,o),
(466,737,o),
(382,737,cs)
);
},
{
closed = 1;
nodes = (
(445,703,o),
(491,685,o),
(525,652,cs),
(557,620,o),
(574,572,o),
(574,515,cs),
(574,450,o),
(549,395,o),
(507,359,cs),
(464,322,o),
(404,299,o),
(340,299,cs),
(284,299,o),
(239,317,o),
(206,348,cs),
(174,378,o),
(156,422,o),
(156,477,cs),
(156,545,o),
(181,601,o),
(222,640,cs),
(263,679,o),
(320,703,o),
(388,703,cs)
);
}
);
width = 635;
}
);
},
{
glyphname = less;
layers = (
{
layerId = "B9F9456E-5A28-482F-A7A9-E399A36E312B";
shapes = (
{
closed = 1;
nodes = (
(110,495,l),
(34,230,l),
(506,57,l),
(574,295,l),
(305,354,l),
(310,372,l),
(612,428,l),
(681,664,l)
);
}
);
width = 636;
},
{
layerId = "D36F68F1-AC05-4452-BDF9-AB186909F070";
shapes = (
{
closed = 1;
nodes = (
(107,416,l),
(76,309,l),
(519,108,l),
(545,199,l),
(182,357,l),
(185,364,l),
(636,519,l),
(663,614,l)
);
}
);
width = 636;
},
{
layerId = "35642718-112C-4883-8033-E2E6DF5C4D00";
shapes = (
{
closed = 1;
nodes = (
(105,385,l),
(92,340,l),
(523,128,l),
(533,162,l),
(132,357,l),
(134,361,l),
(644,554,l),
(655,594,l)
);
}
);
width = 636;
}
);
unicode = 60;
},
{
glyphname = equal;
layers = (
{
layerId = "B9F9456E-5A28-482F-A7A9-E399A36E312B";
shapes = (
{
closed = 1;
nodes = (
(589,395,l),
(646,583,l),
(171,583,l),
(115,395,l)
);
},
{
closed = 1;
nodes = (
(516,138,l),
(570,326,l),
(96,326,l),
(41,138,l)
);
}
);
width = 636;
},
{
layerId = "D36F68F1-AC05-4452-BDF9-AB186909F070";
shapes = (
{
closed = 1;
nodes = (
(605,440,l),
(627,516,l),
(151,516,l),
(129,440,l)
);
},
{
closed = 1;
nodes = (
(539,206,l),
(561,282,l),
(85,282,l),
(63,206,l)
);
}
);
width = 636;
},
{
layerId = "35642718-112C-4883-8033-E2E6DF5C4D00";
shapes = (
{
closed = 1;
nodes = (
(612,458,l),
(620,490,l),
(144,490,l),
(136,458,l)
);
},
{
closed = 1;
nodes = (
(548,233,l),
(559,265,l),
(82,265,l),
(71,233,l)
);
}
);
width = 636;
}
);
unicode = 61;
},
{
glyphname = greater;
layers = (
{
layerId = "B9F9456E-5A28-482F-A7A9-E399A36E312B";
shapes = (
{
closed = 1;
nodes = (
(574,226,l),
(649,491,l),
(178,664,l),
(109,426,l),
(378,367,l),
(373,349,l),
(71,293,l),
(2,57,l)
);
}
);
width = 636;
},
{
layerId = "D36F68F1-AC05-4452-BDF9-AB186909F070";
shapes = (
{
closed = 1;
nodes = (
(583,306,l),
(615,413,l),
(173,614,l),
(146,522,l),
(510,365,l),
(507,357,l),
(55,203,l),
(28,108,l)
);
}
);
width = 636;
},
{
layerId = "35642718-112C-4883-8033-E2E6DF5C4D00";
shapes = (
{
closed = 1;
nodes = (
(587,337,l),
(600,382,l),
(170,594,l),
(159,560,l),
(560,365,l),
(558,361,l),
(48,168,l),
(38,128,l)
);
}
);
width = 636;
}
);
unicode = 62;
},
{
glyphname = question;
layers = (
{
layerId = "B9F9456E-5A28-482F-A7A9-E399A36E312B";
shapes = (
{
closed = 1;
nodes = (
(401,236,l),
(401,239,l),
(404,250,o),
(412,260,o),
(425,271,cs),
(451,291,o),
(488,313,o),
(530,340,cs),
(550,353,o),
(569,369,o),
(587,387,cs),
(624,422,o),
(650,466,o),
(654,526,cs),
(659,614,o),
(623,667,o),
(572,698,cs),
(520,729,o),
(452,738,o),
(393,738,cs),
(309,738,o),
(236,716,o),
(181,674,cs),
(125,632,o),
(89,571,o),
(73,492,c),
(302,492,l),
(312,527,o),
(331,542,o),
(367,542,cs),
(375,542,o),
(385,539,o),
(393,535,cs),
(401,530,o),
(405,522,o),
(405,507,c),
(404,493,o),
(399,481,o),
(390,470,cs),
(372,449,o),
(344,432,o),
(312,413,cs),
(295,403,o),
(279,392,o),
(264,380,cs),
(235,355,o),
(209,322,o),
(197,274,c),
(189,236,l)
);
},
{
closed = 1;
nodes = (
(328,-9,o),
(383,34,o),
(384,107,cs),
(385,163,o),
(343,200,o),
(272,200,cs),
(188,200,o),
(133,157,o),
(132,82,cs),
(131,27,o),
(175,-9,o),
(244,-9,cs)
);
}
);
width = 599;
},
{
layerId = "D36F68F1-AC05-4452-BDF9-AB186909F070";
shapes = (
{
closed = 1;
nodes = (
(288,186,l),
(294,200,l),
(301,221,o),
(312,239,o),
(328,255,cs),
(360,287,o),
(401,316,o),
(446,347,cs),
(468,362,o),
(488,379,o),
(507,398,cs),
(543,435,o),
(572,482,o),
(575,549,c),
(580,613,o),
(557,659,o),
(518,691,cs),
(480,722,o),
(426,737,o),
(366,737,cs),
(303,737,o),
(247,721,o),
(202,688,cs),
(157,655,o),
(124,605,o),
(107,536,c),
(197,536,l),
(219,612,o),
(267,658,o),
(354,658,cs),
(390,658,o),
(422,649,o),
(445,630,cs),
(468,610,o),
(478,581,o),
(477,544,cs),
(476,517,o),
(469,493,o),
(458,474,cs),
(433,434,o),
(397,404,o),
(356,377,cs),
(335,364,o),
(316,349,o),
(297,334,cs),
(258,302,o),
(224,265,o),
(211,210,c),
(205,186,l)
);
},
{
closed = 1;
nodes = (
(244,-8,o),
(269,12,o),
(269,47,c),
(270,75,o),
(250,93,o),
(218,93,cs),
(181,93,o),
(156,73,o),
(155,38,c),
(155,10,o),
(175,-8,o),
(207,-8,cs)
);
}
);
width = 537;
},
{
layerId = "35642718-112C-4883-8033-E2E6DF5C4D00";
shapes = (
{
closed = 1;
nodes = (
(246,167,l),
(252,185,ls),
(261,210,o),
(273,231,o),
(290,250,cs),
(324,286,o),
(368,318,o),
(413,350,cs),
(436,366,o),
(456,384,o),
(475,403,cs),
(513,442,o),
(541,490,o),
(545,558,cs),
(549,611,o),
(530,656,o),
(497,688,cs),
(464,719,o),
(415,736,o),
(355,736,cs),
(302,736,o),
(251,723,o),
(211,694,cs),
(170,665,o),
(138,619,o),
(120,554,c),
(156,554,l),
(184,645,o),
(242,704,o),
(349,704,cs),
(397,704,o),
(437,691,o),
(465,667,cs),
(493,642,o),
(510,606,o),
(506,558,c),
(505,526,o),
(498,498,o),
(485,475,cs),
(460,428,o),
(419,394,o),
(375,364,cs),
(352,349,o),
(331,333,o),
(310,316,cs),
(268,282,o),
(232,242,o),
(216,185,c),
(212,167,l)
);
},
{
closed = 1;
nodes = (
(212,-7,o),
(225,4,o),
(225,23,cs),
(225,40,o),
(213,51,o),
(196,51,cs),
(177,51,o),
(165,40,o),
(165,21,cs),
(165,4,o),
(176,-7,o),
(193,-7,cs)
);
}
);
width = 513;
}
);
rightKerningGroup = question;
unicode = 63;
},
{
glyphname = at;
layers = (
{
layerId = "B9F9456E-5A28-482F-A7A9-E399A36E312B";
shapes = (
{
closed = 1;
nodes = (
(492,-99,o),
(580,-77,o),
(634,-44,c),
(615,57,l),
(563,29,o),
(500,14,o),
(431,14,cs),
(351,14,o),
(284,36,o),
(238,77,cs),
(191,118,o),
(165,180,o),
(166,259,cs),
(167,363,o),
(206,453,o),
(269,517,cs),
(331,581,o),
(416,619,o),
(513,619,cs),
(588,619,o),
(647,598,o),
(689,560,cs),
(732,522,o),
(755,465,o),
(754,392,cs),
(754,344,o),
(742,295,o),
(722,259,cs),
(701,222,o),
(672,198,o),
(637,198,cs),
(610,198,o),
(599,210,o),
(597,230,c),
(594,249,o),
(601,272,o),
(609,292,c),
(673,489,l),
(594,494,l),
(569,452,l),
(561,453,l),
(549,492,o),
(510,517,o),
(455,517,cs),
(402,517,o),
(349,488,o),
(312,441,cs),
(274,394,o),
(249,330,o),
(248,259,cs),
(247,214,o),
(258,175,o),
(279,151,c),
(298,126,o),
(330,112,o),
(369,112,cs),
(420,112,o),
(462,132,o),
(484,164,c),
(492,163,l),
(497,140,o),
(511,120,o),
(534,106,cs),
(557,92,o),
(586,83,o),
(623,83,cs),
(696,83,o),
(762,118,o),
(809,175,cs),
(856,231,o),
(883,311,o),
(885,403,cs),
(886,503,o),
(852,587,o),
(789,645,cs),
(726,703,o),
(636,735,o),
(524,735,cs),
(387,735,o),
(265,685,o),
(177,600,cs),
(89,515,o),
(33,394,o),
(32,253,cs),
(31,142,o),
(70,54,o),
(134,-7,cs),
(197,-67,o),
(290,-99,o),
(395,-99,cs)
);
},
{
closed = 1;
nodes = (
(401,222,o),
(392,227,o),
(385,237,cs),
(377,247,o),
(374,261,o),
(374,281,cs),
(374,313,o),
(384,343,o),
(400,366,cs),
(415,389,o),
(437,403,o),
(460,403,cs),
(477,403,o),
(488,397,o),
(495,386,cs),
(502,375,o),
(504,362,o),
(505,347,c),
(505,314,o),
(496,283,o),
(480,260,cs),
(464,237,o),
(441,222,o),
(417,222,cs)
);
}
);
width = 883;
},
{
layerId = "D36F68F1-AC05-4452-BDF9-AB186909F070";
shapes = (
{
closed = 1;
nodes = (
(506,-99,o),
(590,-79,o),
(640,-47,c),
(626,1,l),
(581,-27,o),
(512,-44,o),
(435,-44,cs),
(343,-44,o),
(266,-16,o),
(212,35,cs),
(159,86,o),
(127,161,o),
(128,254,cs),
(129,374,o),
(170,479,o),
(241,556,cs),
(313,632,o),
(413,679,o),
(534,679,cs),
(626,679,o),
(701,653,o),
(753,605,cs),
(804,556,o),
(834,488,o),
(833,401,cs),
(833,333,o),
(816,267,o),
(787,219,cs),
(757,171,o),
(716,140,o),
(663,140,cs),
(634,140,o),
(614,152,o),
(606,176,cs),
(598,200,o),
(600,236,o),
(615,281,cs),
(686,492,l),
(640,494,l),
(612,416,l),
(606,417,l),
(602,476,o),
(558,514,o),
(494,514,cs),
(439,514,o),
(389,484,o),
(350,436,cs),
(312,387,o),
(286,322,o),
(286,251,cs),
(286,207,o),
(297,173,o),
(318,150,cs),
(339,127,o),
(369,115,o),
(406,115,cs),
(466,115,o),
(518,146,o),
(550,201,c),
(555,201,l),
(551,168,o),
(560,139,o),
(578,119,cs),
(596,98,o),
(623,87,o),
(658,87,cs),
(723,87,o),
(781,119,o),
(824,175,cs),
(868,231,o),
(893,311,o),
(894,406,cs),
(895,505,o),
(860,588,o),
(798,645,cs),
(736,702,o),
(647,735,o),
(540,735,cs),
(404,735,o),
(285,684,o),
(202,598,cs),
(117,512,o),
(67,391,o),
(66,251,cs),
(65,143,o),
(100,56,o),
(163,-5,cs),
(226,-65,o),
(315,-99,o),
(419,-99,cs)
);
},
{
closed = 1;
nodes = (
(402,166,o),
(381,173,o),
(367,188,cs),
(354,203,o),
(346,226,o),
(346,257,cs),
(346,310,o),
(363,360,o),
(391,399,cs),
(418,438,o),
(457,462,o),
(498,462,cs),
(530,462,o),
(553,447,o),
(566,423,cs),
(578,399,o),
(581,363,o),
(572,323,c),
(563,276,o),
(544,238,o),
(520,210,c),
(494,182,o),
(462,166,o),
(427,166,cs)
);
}
);
width = 918;
},
{
layerId = "35642718-112C-4883-8033-E2E6DF5C4D00";
shapes = (
{
closed = 1;
nodes = (
(512,-98,o),
(595,-80,o),
(644,-48,c),
(632,-21,l),
(588,-49,o),
(517,-67,o),
(437,-67,cs),
(340,-67,o),
(259,-36,o),
(202,19,cs),
(145,74,o),
(113,152,o),
(113,252,cs),
(114,377,o),
(157,490,o),
(231,571,cs),
(306,652,o),
(412,703,o),
(543,703,cs),
(642,703,o),
(722,674,o),
(778,622,cs),
(833,570,o),
(865,496,o),
(864,405,cs),
(864,329,o),
(846,256,o),
(813,204,cs),
(780,151,o),
(734,117,o),
(675,117,cs),
(644,117,o),
(621,130,o),
(610,155,cs),
(599,180,o),
(601,222,o),
(619,277,c),
(691,493,l),
(659,494,l),
(629,402,l),
(625,402,l),
(623,470,o),
(578,512,o),
(510,512,cs),
(455,512,o),
(404,482,o),
(366,434,cs),
(327,385,o),
(303,319,o),
(302,248,cs),
(302,204,o),
(314,172,o),
(335,150,cs),
(355,128,o),
(385,117,o),
(421,117,cs),
(485,117,o),
(541,151,o),
(576,216,c),
(580,216,l),
(573,179,o),
(579,147,o),
(595,124,cs),
(611,101,o),
(638,88,o),
(673,88,cs),
(734,88,o),
(790,120,o),
(831,176,cs),
(872,231,o),
(897,311,o),
(897,408,cs),
(898,505,o),
(863,588,o),
(802,645,cs),
(740,702,o),
(652,735,o),
(545,735,cs),
(410,735,o),
(294,683,o),
(212,596,cs),
(129,509,o),
(80,389,o),
(79,250,c),
(79,145,o),
(114,57,o),
(176,-4,cs),
(238,-64,o),
(325,-98,o),
(429,-98,cs)
);
},
{
closed = 1;
nodes = (
(403,144,o),
(378,152,o),
(362,169,cs),
(345,186,o),
(335,212,o),
(335,248,cs),
(336,309,o),
(355,368,o),
(388,412,cs),
(421,456,o),
(464,485,o),
(512,485,cs),
(551,485,o),
(579,468,o),
(595,438,c),
(609,408,o),
(611,365,o),
(600,314,cs),
(588,262,o),
(564,219,o),
(535,190,cs),
(506,161,o),
(471,144,o),
(432,144,cs)
);
}
);
width = 931;
}
);
unicode = 64;
},
{
glyphname = A;
layers = (
{
layerId = "B9F9456E-5A28-482F-A7A9-E399A36E312B";
shapes = (
{
closed = 1;
nodes = (
(178,0,l),
(380,373,l),
(435,475,l),
(444,475,l),
(449,375,l),
(444,0,l),
(683,0,l),
(650,729,l),
(356,729,l),
(-78,0,l)
);
},
{
closed = 1;
nodes = (
(461,110,l),
(456,301,l),
(326,301,l),
(216,110,l)
);
}
);
width = 762;
},
{
layerId = "D36F68F1-AC05-4452-BDF9-AB186909F070";
shapes = (
{
closed = 1;
nodes = (
(47,0,l),
(401,534,l),
(460,628,l),
(464,628,l),
(474,531,l),
(526,0,l),
(621,0,l),
(544,729,l),
(428,729,l),
(-57,0,l)
);
},
{
closed = 1;
nodes = (
(519,174,l),
(512,252,l),
(198,252,l),
(149,174,l)
);
}
);
width = 716;
},
{
layerId = "35642718-112C-4883-8033-E2E6DF5C4D00";
shapes = (
{
closed = 1;
nodes = (
(-5,0,l),
(411,597,l),
(469,689,l),
(472,689,l),
(484,592,l),
(559,0,l),
(597,0,l),
(502,729,l),
(456,729,l),
(-48,0,l)
);
},
{
closed = 1;
nodes = (
(543,200,l),
(535,232,l),
(148,232,l),
(123,200,l)
);
}
);
width = 698;
}
);
leftKerningGroup = A2;
rightKerningGroup = A;
unicode = 65;
},
{
glyphname = B;
layers = (
{
layerId = "B9F9456E-5A28-482F-A7A9-E399A36E312B";
shapes = (
{
closed = 1;
nodes = (
(371,0,ls),
(470,0,o),
(547,20,o),
(603,57,cs),
(658,94,o),
(688,147,o),
(691,214,c),
(695,251,o),
(683,285,o),
(666,312,cs),
(650,339,o),
(627,357,o),
(599,368,c),
(600,376,l),
(651,389,o),
(690,414,o),
(715,444,cs),
(739,474,o),
(756,511,o),
(756,551,c),
(762,658,o),
(696,729,o),
(535,729,cs),
(177,729,l),
(-31,0,l)
);
},
{
closed = 1;
nodes = (
(373,545,l),
(459,545,ls),
(483,545,o),
(501,536,o),
(501,511,cs),
(501,494,o),
(494,480,o),
(483,472,cs),
(471,464,o),
(456,459,o),
(437,459,cs),
(331,459,l),
(279,284,l),
(386,284,ls),
(415,284,o),
(437,274,o),
(438,247,c),
(438,226,o),
(428,210,o),
(415,200,cs),
(402,190,o),
(385,184,o),
(362,184,cs),
(268,184,l)
);
}
);
width = 726;
},
{
layerId = "D36F68F1-AC05-4452-BDF9-AB186909F070";
shapes = (
{
closed = 1;
nodes = (
(361,0,ls),
(449,0,o),
(520,21,o),
(569,60,cs),
(619,99,o),
(647,154,o),
(649,222,cs),
(650,259,o),
(640,293,o),
(622,318,cs),
(605,342,o),
(578,362,o),
(546,371,c),
(547,376,l),
(595,388,o),
(636,411,o),
(665,443,cs),
(695,475,o),
(713,517,o),
(714,565,cs),
(716,666,o),
(650,729,o),
(521,729,cs),
(207,729,l),
(0,0,l)
);
},
{
closed = 1;
nodes = (
(283,651,l),
(497,651,ls),
(572,651,o),
(614,616,o),
(612,555,cs),
(612,508,o),
(595,474,o),
(563,450,cs),
(532,425,o),
(489,412,o),
(436,412,cs),
(203,412,l),
(182,337,l),
(425,337,ls),
(502,337,o),
(549,301,o),
(549,232,c),
(547,183,o),
(529,145,o),
(497,118,cs),
(465,91,o),
(418,78,o),
(361,78,cs),
(120,78,l)
);
}
);
width = 705;
},
{
layerId = "35642718-112C-4883-8033-E2E6DF5C4D00";
shapes = (
{
closed = 1;
nodes = (
(357,0,ls),
(442,0,o),
(510,22,o),
(557,62,cs),
(605,101,o),
(632,156,o),
(633,225,cs),
(634,262,o),
(624,295,o),
(605,320,cs),
(586,344,o),
(558,364,o),
(525,372,c),
(526,376,l),
(573,388,o),
(615,410,o),
(647,443,cs),
(678,476,o),
(697,519,o),
(697,570,cs),
(699,670,o),
(633,729,o),
(514,729,cs),
(218,729,l),
(13,0,l)
);
},
{
closed = 1;
nodes = (
(248,693,l),
(512,693,ls),
(608,693,o),
(658,649,o),
(656,572,cs),
(656,515,o),
(635,471,o),
(597,440,cs),
(558,409,o),
(504,393,o),
(436,393,cs),
(153,393,l),
(143,358,l),
(439,358,ls),
(538,358,o),
(594,313,o),
(593,226,cs),
(592,166,o),
(570,118,o),
(531,86,cs),
(490,54,o),
(432,36,o),
(360,36,cs),
(61,36,l)
);
}
);
width = 696;
}
);
leftKerningGroup = B;
unicode = 66;
},
{
glyphname = C;
layers = (
{
layerId = "B9F9456E-5A28-482F-A7A9-E399A36E312B";
shapes = (
{
closed = 1;
nodes = (
(503,-9,o),
(586,16,o),
(651,62,cs),
(714,108,o),
(757,175,o),
(774,259,c),
(516,259,l),
(508,235,o),
(493,219,o),
(474,209,cs),
(455,199,o),
(431,195,o),
(400,196,cs),
(369,197,o),
(343,209,o),
(325,232,cs),
(306,255,o),
(297,288,o),
(299,332,c),
(303,385,o),
(318,436,o),
(343,472,cs),
(369,508,o),
(408,532,o),
(457,532,cs),
(488,532,o),
(514,526,o),
(534,514,cs),
(554,502,o),
(566,483,o),
(571,459,c),
(826,459,l),
(826,543,o),
(790,611,o),
(726,660,cs),
(663,708,o),
(573,736,o),
(464,736,cs),
(345,736,o),
(243,696,o),
(169,626,cs),
(95,556,o),
(49,456,o),
(41,337,c),
(36,236,o),
(64,148,o),
(124,88,cs),
(184,27,o),
(277,-9,o),
(404,-9,cs)
);
}
);
width = 790;
},
{
layerId = "D36F68F1-AC05-4452-BDF9-AB186909F070";
shapes = (
{
closed = 1;
nodes = (
(450,-10,o),
(529,13,o),
(592,57,cs),
(656,100,o),
(703,163,o),
(724,243,c),
(625,243,l),
(605,191,o),
(573,148,o),
(530,120,cs),
(486,91,o),
(432,75,o),
(369,75,cs),
(306,75,o),
(254,95,o),
(218,134,cs),
(182,173,o),
(164,230,o),
(167,309,cs),
(173,412,o),
(206,499,o),
(259,560,cs),
(312,620,o),
(387,655,o),
(478,655,cs),
(535,655,o),
(585,638,o),
(622,608,cs),
(657,578,o),
(679,536,o),
(682,485,c),
(779,485,l),
(779,560,o),
(749,623,o),
(697,668,cs),
(644,712,o),
(570,739,o),
(481,739,cs),
(365,739,o),
(264,696,o),
(192,621,cs),
(119,545,o),
(74,439,o),
(66,311,cs),
(62,214,o),
(87,134,o),
(139,78,cs),
(190,22,o),
(266,-10,o),
(365,-10,cs)
);
}
);
width = 762;
},
{
layerId = "35642718-112C-4883-8033-E2E6DF5C4D00";
shapes = (
{
closed = 1;
nodes = (
(431,-10,o),
(507,13,o),
(570,55,cs),
(634,97,o),
(681,159,o),
(705,236,c),
(667,236,l),
(646,173,o),
(606,121,o),
(553,85,cs),
(499,48,o),
(433,27,o),
(357,27,cs),
(282,27,o),
(220,50,o),
(178,95,cs),
(134,140,o),
(112,208,o),
(117,299,cs),
(123,423,o),
(161,523,o),
(226,594,cs),
(290,665,o),
(379,704,o),
(486,704,cs),
(555,704,o),
(613,682,o),
(656,645,cs),
(699,608,o),
(725,556,o),
(726,495,c),
(760,495,l),
(761,567,o),
(733,627,o),
(685,671,cs),
(637,715,o),
(568,740,o),
(487,740,cs),
(372,740,o),
(273,695,o),
(201,619,cs),
(128,542,o),
(86,432,o),
(78,301,cs),
(72,206,o),
(97,129,o),
(144,74,cs),
(192,19,o),
(263,-10,o),
(350,-10,cs)
);
}
);
width = 751;
}
);
leftKerningGroup = C2;
rightKerningGroup = C;
unicode = 67;
},
{
glyphname = D;
layers = (
{
layerId = "B9F9456E-5A28-482F-A7A9-E399A36E312B";
shapes = (
{
closed = 1;
nodes = (
(306,0,ls),
(442,0,o),
(555,43,o),
(636,120,cs),
(717,197,o),
(768,308,o),
(775,444,cs),
(780,535,o),
(754,606,o),
(703,655,cs),
(653,703,o),
(576,729,o),
(483,729,cs),
(176,729,l),
(-31,0,l)
);
},
{
closed = 1;
nodes = (
(370,525,l),
(423,525,ls),
(451,525,o),
(476,517,o),
(493,500,cs),
(508,483,o),
(517,456,o),
(516,420,c),
(511,356,o),
(493,302,o),
(462,264,cs),
(430,226,o),
(383,204,o),
(324,204,cs),
(279,204,l)
);
}
);
width = 760;
},
{
layerId = "D36F68F1-AC05-4452-BDF9-AB186909F070";
shapes = (
{
closed = 1;
nodes = (
(303,0,ls),
(428,0,o),
(534,42,o),
(611,118,cs),
(687,194,o),
(735,304,o),
(741,436,cs),
(746,528,o),
(720,602,o),
(669,652,cs),
(618,702,o),
(543,729,o),
(450,729,cs),
(207,729,l),
(0,0,l)
);
},
{
closed = 1;
nodes = (
(281,646,l),
(431,646,ls),
(502,646,o),
(555,626,o),
(591,589,cs),
(625,552,o),
(642,498,o),
(638,430,cs),
(632,325,o),
(599,238,o),
(543,178,cs),
(487,118,o),
(409,84,o),
(316,84,cs),
(121,84,l)
);
}
);
width = 749;
},
{
layerId = "35642718-112C-4883-8033-E2E6DF5C4D00";
shapes = (
{
closed = 1;
nodes = (
(302,0,ls),
(423,0,o),
(527,42,o),
(602,118,cs),
(676,193,o),
(722,302,o),
(728,433,cs),
(733,525,o),
(707,599,o),
(656,650,cs),
(605,701,o),
(530,729,o),
(437,729,cs),
(218,729,l),
(13,0,l)
);
},
{
closed = 1;
nodes = (
(246,693,l),
(435,693,ls),
(520,693,o),
(586,669,o),
(630,625,c),
(672,580,o),
(691,516,o),
(687,433,cs),
(681,313,o),
(641,213,o),
(577,145,cs),
(511,76,o),
(420,36,o),
(312,36,cs),
(59,36,l)
);
}
);
width = 744;
}
);
leftKerningGroup = B;
rightKerningGroup = D;
unicode = 68;
},
{
glyphname = E;
layers = (
{
layerId = "B9F9456E-5A28-482F-A7A9-E399A36E312B";
shapes = (
{
closed = 1;
nodes = (
(550,0,l),
(608,210,l),
(226,210,l),
(267,157,l),
(383,571,l),
(315,519,l),
(694,519,l),
(754,729,l),
(176,729,l),
(-31,0,l)
);
},
{
closed = 1;
nodes = (
(573,264,l),
(629,460,l),
(297,460,l),
(240,264,l)
);
}
);
width = 658;
},
{
layerId = "D36F68F1-AC05-4452-BDF9-AB186909F070";
shapes = (
{
closed = 1;
nodes = (
(516,0,l),
(540,85,l),
(99,85,l),
(114,60,l),
(288,672,l),
(256,644,l),
(697,644,l),
(721,729,l),
(207,729,l),
(0,0,l)
);
},
{
closed = 1;
nodes = (
(564,331,l),
(585,411,l),
(193,411,l),
(173,331,l)
);
}
);
width = 624;
},
{
layerId = "35642718-112C-4883-8033-E2E6DF5C4D00";
shapes = (
{
closed = 1;
nodes = (
(503,0,l),
(513,36,l),
(49,36,l),
(55,22,l),
(251,713,l),
(233,693,l),
(699,693,l),
(708,729,l),
(218,729,l),
(13,0,l)
);
},
{
closed = 1;
nodes = (
(560,358,l),
(569,392,l),
(152,392,l),
(146,358,l)
);
}
);
width = 610;
}
);
leftKerningGroup = B;
rightKerningGroup = E;
unicode = 69;
},
{
glyphname = F;
layers = (
{
layerId = "B9F9456E-5A28-482F-A7A9-E399A36E312B";
shapes = (
{
closed = 1;
nodes = (
(220,0,l),
(384,579,l),
(308,519,l),
(670,519,l),
(731,729,l),
(176,729,l),
(-31,0,l)
);
},
{
closed = 1;
nodes = (
(550,238,l),
(609,436,l),
(267,436,l),
(211,238,l)
);
}
);
width = 618;
},
{
layerId = "D36F68F1-AC05-4452-BDF9-AB186909F070";
shapes = (
{
closed = 1;
nodes = (
(98,0,l),
(287,670,l),
(255,644,l),
(690,644,l),
(714,729,l),
(207,729,l),
(0,0,l)
);
},
{
closed = 1;
nodes = (
(558,318,l),
(581,399,l),
(175,399,l),
(147,318,l)
);
}
);
width = 607;
},
{
layerId = "35642718-112C-4883-8033-E2E6DF5C4D00";
shapes = (
{
closed = 1;
nodes = (
(51,0,l),
(249,706,l),
(234,693,l),
(697,693,l),
(706,729,l),
(218,729,l),
(13,0,l)
);
},
{
closed = 1;
nodes = (
(562,349,l),
(570,384,l),
(139,384,l),
(123,349,l)
);
}
);
width = 603;
}
);
leftKerningGroup = B;
unicode = 70;
},
{
glyphname = G;
layers = (
{
layerId = "B9F9456E-5A28-482F-A7A9-E399A36E312B";
shapes = (
{
closed = 1;
nodes = (
(407,-9,o),
(489,4,o),
(536,55,c),
(543,55,l),
(542,0,l),
(722,0,l),
(843,417,l),
(464,417,l),
(413,243,l),
(549,243,l),
(538,257,l),
(538,258,l),
(531,235,o),
(515,220,o),
(495,210,cs),
(474,200,o),
(449,196,o),
(422,196,cs),
(382,196,o),
(349,208,o),
(329,228,cs),
(308,248,o),
(296,277,o),
(295,313,cs),
(295,378,o),
(313,433,o),
(342,470,cs),
(371,507,o),
(413,528,o),
(461,528,cs),
(496,528,o),
(525,521,o),
(547,510,cs),
(569,499,o),
(581,483,o),
(585,463,c),
(840,463,l),
(841,544,o),
(802,612,o),
(737,660,cs),
(673,708,o),
(582,736,o),
(482,736,cs),
(343,736,o),
(233,687,o),
(156,607,cs),
(79,527,o),
(38,414,o),
(37,289,cs),
(37,258,o),
(41,230,o),
(47,204,cs),
(61,151,o),
(85,106,o),
(122,72,cs),
(140,55,o),
(159,40,o),
(182,28,cs),
(227,4,o),
(282,-9,o),
(342,-9,cs)
);
}
);
width = 832;
},
{
layerId = "D36F68F1-AC05-4452-BDF9-AB186909F070";
shapes = (
{
closed = 1;
nodes = (
(453,-10,o),
(547,27,o),
(594,89,c),
(600,89,l),
(584,0,l),
(658,0,l),
(768,388,l),
(406,388,l),
(385,313,l),
(653,313,l),
(647,321,l),
(632,265,l),
(615,208,o),
(583,159,o),
(540,126,cs),
(497,93,o),
(442,74,o),
(375,74,cs),
(311,74,o),
(257,94,o),
(221,132,cs),
(185,170,o),
(166,226,o),
(167,299,cs),
(171,407,o),
(204,496,o),
(257,558,cs),
(311,620,o),
(388,654,o),
(477,654,cs),
(536,654,o),
(585,638,o),
(621,611,cs),
(656,584,o),
(678,545,o),
(682,500,c),
(784,500,l),
(783,573,o),
(752,633,o),
(698,675,cs),
(645,717,o),
(571,739,o),
(488,739,cs),
(365,739,o),
(260,693,o),
(187,614,cs),
(113,535,o),
(70,424,o),
(66,293,cs),
(65,262,o),
(68,234,o),
(74,207,cs),
(84,153,o),
(107,108,o),
(140,73,cs),
(156,55,o),
(175,40,o),
(196,28,cs),
(239,3,o),
(290,-10,o),
(349,-10,cs)
);
}
);
width = 787;
},
{
layerId = "35642718-112C-4883-8033-E2E6DF5C4D00";
shapes = (
{
closed = 1;
nodes = (
(469,-10,o),
(574,39,o),
(631,145,c),
(637,145,l),
(601,0,l),
(633,0,l),
(739,376,l),
(384,376,l),
(375,340,l),
(695,340,l),
(691,346,l),
(670,268,l),
(648,197,o),
(611,136,o),
(559,93,cs),
(506,50,o),
(440,26,o),
(357,26,cs),
(282,26,o),
(221,49,o),
(180,94,cs),
(138,138,o),
(114,205,o),
(118,293,cs),
(122,418,o),
(160,521,o),
(225,593,cs),
(288,664,o),
(378,704,o),
(483,704,cs),
(551,704,o),
(609,684,o),
(651,651,cs),
(693,618,o),
(717,571,o),
(721,515,c),
(761,515,l),
(761,586,o),
(731,641,o),
(683,680,cs),
(634,719,o),
(566,740,o),
(490,740,cs),
(373,740,o),
(273,695,o),
(201,617,cs),
(127,539,o),
(84,427,o),
(78,294,cs),
(77,263,o),
(79,235,o),
(84,208,cs),
(95,154,o),
(116,108,o),
(148,73,cs),
(164,55,o),
(182,40,o),
(203,28,cs),
(244,3,o),
(294,-10,o),
(353,-10,cs)
);
}
);
width = 770;
}
);
leftKerningGroup = C2;
rightKerningGroup = G;
unicode = 71;
},
{
glyphname = H;
layers = (
{
layerId = "B9F9456E-5A28-482F-A7A9-E399A36E312B";
shapes = (
{
closed = 1;
nodes = (
(220,0,l),
(429,729,l),
(176,729,l),
(-31,0,l)
);
},
{
closed = 1;
nodes = (
(686,0,l),
(896,729,l),
(642,729,l),
(434,0,l)
);
},
{
closed = 1;
nodes = (
(593,265,l),
(651,474,l),
(275,474,l),
(216,265,l)
);
}
);
width = 812;
},
{
layerId = "D36F68F1-AC05-4452-BDF9-AB186909F070";
shapes = (
{
closed = 1;
nodes = (
(98,0,l),
(305,729,l),
(207,729,l),
(0,0,l)
);
},
{
closed = 1;
nodes = (
(626,0,l),
(833,729,l),
(734,729,l),
(528,0,l)
);
},
{
closed = 1;
nodes = (
(658,325,l),
(680,410,l),
(179,410,l),
(151,325,l)
);
}
);
width = 778;
},
{
layerId = "35642718-112C-4883-8033-E2E6DF5C4D00";
shapes = (
{
closed = 1;
nodes = (
(51,0,l),
(256,729,l),
(218,729,l),
(13,0,l)
);
},
{
closed = 1;
nodes = (
(603,0,l),
(808,729,l),
(770,729,l),
(565,0,l)
);
},
{
closed = 1;
nodes = (
(685,349,l),
(692,385,l),
(141,385,l),
(127,349,l)
);
}
);
width = 764;
}
);
leftKerningGroup = B;
rightKerningGroup = H;
unicode = 72;
},
{
glyphname = I;
layers = (
{
layerId = "B9F9456E-5A28-482F-A7A9-E399A36E312B";
shapes = (
{
closed = 1;
nodes = (
(220,0,l),
(429,729,l),
(176,729,l),
(-31,0,l)
);
}
);
width = 346;
},
{
layerId = "D36F68F1-AC05-4452-BDF9-AB186909F070";
shapes = (
{
closed = 1;
nodes = (
(98,0,l),
(306,729,l),
(207,729,l),
(0,0,l)
);
}
);
width = 250;
},
{
layerId = "35642718-112C-4883-8033-E2E6DF5C4D00";
shapes = (
{
closed = 1;
nodes = (
(51,0,l),
(256,729,l),
(218,729,l),
(13,0,l)
);
}
);
width = 213;
}
);
leftKerningGroup = B;
rightKerningGroup = H;
unicode = 73;
},
{
glyphname = J;
layers = (
{
layerId = "B9F9456E-5A28-482F-A7A9-E399A36E312B";
shapes = (
{
closed = 1;
nodes = (
(130,-11,o),
(193,-3,o),
(246,33,cs),
(300,68,o),
(343,132,o),
(377,247,cs),
(516,729,l),
(264,729,l),
(138,305,l),
(127,260,o),
(117,232,o),
(101,217,cs),
(86,201,o),
(67,197,o),
(40,197,cs),
(20,197,o),
(-6,203,o),
(-14,212,c),
(-71,16,l),
(-50,1,o),
(6,-11,o),
(66,-11,cs)
);
}
);
width = 459;
},
{
layerId = "D36F68F1-AC05-4452-BDF9-AB186909F070";
shapes = (
{
closed = 1;
nodes = (
(96,-10,o),
(146,4,o),
(188,36,cs),
(231,68,o),
(263,120,o),
(284,196,cs),
(436,729,l),
(338,729,l),
(190,215,l),
(176,163,o),
(156,128,o),
(131,106,cs),
(106,84,o),
(74,74,o),
(35,74,cs),
(3,74,o),
(-26,82,o),
(-41,97,c),
(-64,15,l),
(-45,2,o),
(-8,-10,o),
(37,-10,cs)
);
}
);
width = 402;
},
{
layerId = "35642718-112C-4883-8033-E2E6DF5C4D00";
shapes = (
{
closed = 1;
nodes = (
(82,-9,o),
(129,6,o),
(166,37,cs),
(202,68,o),
(231,115,o),
(247,176,cs),
(404,729,l),
(367,729,l),
(211,180,ls),
(196,124,o),
(174,86,o),
(143,62,c),
(113,37,o),
(77,26,o),
(34,26,cs),
(-5,26,o),
(-35,36,o),
(-52,52,c),
(-61,15,l),
(-44,2,o),
(-14,-9,o),
(26,-9,cs)
);
}
);
width = 380;
}
);
leftKerningGroup = J2;
rightKerningGroup = J;
unicode = 74;
},
{
glyphname = K;
layers = (
{
layerId = "B9F9456E-5A28-482F-A7A9-E399A36E312B";
shapes = (
{
closed = 1;
nodes = (
(725,0,l),
(564,418,l),
(912,729,l),
(598,729,l),
(347,486,l),
(257,169,l),
(360,257,l),
(450,0,l)
);
},
{
closed = 1;
nodes = (
(220,0,l),
(429,729,l),
(176,729,l),
(-31,0,l)
);
}
);
width = 803;
},
{
layerId = "D36F68F1-AC05-4452-BDF9-AB186909F070";
shapes = (
{
closed = 1;
nodes = (
(602,0,l),
(422,419,l),
(798,729,l),
(669,729,l),
(181,325,l),
(146,199,l),
(344,358,l),
(495,0,l)
);
},
{
closed = 1;
nodes = (
(98,0,l),
(306,729,l),
(207,729,l),
(0,0,l)
);
}
);
width = 695;
},
{
layerId = "35642718-112C-4883-8033-E2E6DF5C4D00";
shapes = (
{
closed = 1;
nodes = (
(553,0,l),
(367,420,l),
(752,729,l),
(696,729,l),
(117,262,l),
(102,212,l),
(337,398,l),
(513,0,l)
);
},
{
closed = 1;
nodes = (
(51,0,l),
(256,729,l),
(218,729,l),
(13,0,l)
);
}
);
width = 653;
}
);
leftKerningGroup = B;
rightKerningGroup = K;
unicode = 75;
},
{
glyphname = L;
layers = (
{
layerId = "B9F9456E-5A28-482F-A7A9-E399A36E312B";
shapes = (
{
closed = 1;
nodes = (
(494,0,l),
(556,218,l),
(263,218,l),
(276,199,l),
(429,729,l),
(176,729,l),
(-31,0,l)
);
}
);
width = 586;
},
{
layerId = "D36F68F1-AC05-4452-BDF9-AB186909F070";
shapes = (
{
closed = 1;
nodes = (
(454,0,l),
(478,88,l),
(111,88,l),
(119,77,l),
(305,729,l),
(207,729,l),
(0,0,l)
);
}
);
width = 550;
},
{
layerId = "35642718-112C-4883-8033-E2E6DF5C4D00";
shapes = (
{
closed = 1;
nodes = (
(439,0,l),
(448,37,l),
(51,37,l),
(57,29,l),
(256,729,l),
(218,729,l),
(13,0,l)
);
}
);
width = 536;
}
);
leftKerningGroup = B;
rightKerningGroup = L;
unicode = 76;
},
{
glyphname = M;
layers = (
{
layerId = "B9F9456E-5A28-482F-A7A9-E399A36E312B";
shapes = (
{
closed = 1;
nodes = (
(210,0,l),
(283,254,l),
(348,494,l),
(358,494,l),
(335,298,l),
(301,0,l),
(507,0,l),
(641,291,l),
(731,494,l),
(740,494,l),
(671,255,l),
(598,0,l),
(838,0,l),
(1047,729,l),
(672,729,l),
(551,457,l),
(507,338,l),
(498,338,l),
(521,458,l),
(551,729,l),
(176,729,l),
(-31,0,l)
);
}
);
width = 965;
},
{
layerId = "D36F68F1-AC05-4452-BDF9-AB186909F070";
shapes = (
{
closed = 1;
nodes = (
(95,0,l),
(202,373,l),
(273,631,l),
(280,631,l),
(297,409,l),
(335,0,l),
(423,0,l),
(694,415,l),
(834,631,l),
(841,631,l),
(765,373,l),
(659,0,l),
(754,0,l),
(961,729,l),
(808,729,l),
(525,297,l),
(417,132,l),
(411,132,l),
(401,293,l),
(354,729,l),
(207,729,l),
(0,0,l)
);
}
);
width = 906;
},
{
layerId = "35642718-112C-4883-8033-E2E6DF5C4D00";
shapes = (
{
closed = 1;
nodes = (
(51,0,l),
(169,420,l),
(243,685,l),
(249,685,l),
(282,453,l),
(350,0,l),
(390,0,l),
(716,464,l),
(874,685,l),
(881,685,l),
(802,420,l),
(683,0,l),
(722,0,l),
(927,729,l),
(862,729,l),
(516,234,l),
(383,50,l),
(378,50,l),
(355,229,l),
(276,729,l),
(218,729,l),
(13,0,l)
);
}
);
width = 883;
}
);
leftKerningGroup = B;
rightKerningGroup = H;
unicode = 77;
},
{
glyphname = N;
layers = (
{
layerId = "B9F9456E-5A28-482F-A7A9-E399A36E312B";
shapes = (
{
closed = 1;
nodes = (
(219,0,l),
(272,184,l),
(313,371,l),
(322,371,l),
(390,0,l),
(675,0,l),
(885,729,l),
(634,729,l),
(581,541,l),
(538,351,l),
(529,351,l),
(460,729,l),
(176,729,l),
(-31,0,l)
);
}
);
width = 803;
},
{
layerId = "D36F68F1-AC05-4452-BDF9-AB186909F070";
shapes = (
{
closed = 1;
nodes = (
(98,0,l),
(202,365,l),
(263,598,l),
(269,598,l),
(501,0,l),
(619,0,l),
(826,729,l),
(729,729,l),
(627,370,l),
(564,129,l),
(558,129,l),
(324,729,l),
(207,729,l),
(0,0,l)
);
}
);
width = 771;
},
{
layerId = "35642718-112C-4883-8033-E2E6DF5C4D00";
shapes = (
{
closed = 1;
nodes = (
(51,0,l),
(174,436,l),
(243,687,l),
(247,687,l),
(546,0,l),
(597,0,l),
(803,729,l),
(765,729,l),
(646,303,l),
(575,42,l),
(570,42,l),
(270,729,l),
(218,729,l),
(13,0,l)
);
}
);
width = 759;
}
);
leftKerningGroup = B;
rightKerningGroup = H;
unicode = 78;
},
{
glyphname = O;
layers = (
{
layerId = "B9F9456E-5A28-482F-A7A9-E399A36E312B";
shapes = (
{
closed = 1;
nodes = (
(521,-9,o),
(623,32,o),
(698,102,cs),
(773,172,o),
(820,272,o),
(826,391,cs),
(828,425,o),
(826,457,o),
(821,488,c),
(810,548,o),
(784,599,o),
(744,640,cs),
(723,661,o),
(700,678,o),
(673,693,c),
(618,721,o),
(550,737,o),
(467,737,cs),
(347,737,o),
(245,698,o),
(170,628,cs),
(95,558,o),
(49,457,o),
(41,337,c),
(36,237,o),
(63,149,o),
(123,88,cs),
(183,27,o),
(276,-9,o),
(401,-9,cs)
);
},
{
closed = 1;
nodes = (
(374,197,o),
(345,209,o),
(327,232,cs),
(307,255,o),
(297,288,o),
(299,332,c),
(303,387,o),
(318,437,o),
(344,473,cs),
(371,508,o),
(408,531,o),
(459,531,cs),
(494,531,o),
(522,520,o),
(542,497,c),
(560,473,o),
(571,439,o),
(567,396,cs),
(564,343,o),
(550,292,o),
(525,256,cs),
(499,220,o),
(462,197,o),
(410,197,cs)
);
}
);
width = 818;
},
{
layerId = "D36F68F1-AC05-4452-BDF9-AB186909F070";
shapes = (
{
closed = 1;
nodes = (
(481,-10,o),
(581,34,o),
(654,109,cs),
(726,184,o),
(772,291,o),
(778,418,cs),
(779,450,o),
(779,480,o),
(774,509,cs),
(764,565,o),
(742,614,o),
(708,651,cs),
(691,670,o),
(671,686,o),
(648,699,cs),
(604,725,o),
(548,739,o),
(481,739,cs),
(365,739,o),
(264,696,o),
(192,621,cs),
(119,545,o),
(74,438,o),
(66,311,cs),
(62,215,o),
(87,134,o),
(139,78,cs),
(190,22,o),
(266,-10,o),
(365,-10,cs)
);
},
{
closed = 1;
nodes = (
(307,74,o),
(254,94,o),
(218,134,cs),
(182,173,o),
(164,232,o),
(167,309,cs),
(173,413,o),
(206,500,o),
(258,561,cs),
(311,621,o),
(385,656,o),
(473,656,cs),
(538,656,o),
(592,635,o),
(628,596,c),
(662,556,o),
(681,497,o),
(677,420,cs),
(671,317,o),
(639,230,o),
(586,170,cs),
(533,109,o),
(459,74,o),
(371,74,cs)
);
}
);
width = 790;
},
{
layerId = "35642718-112C-4883-8033-E2E6DF5C4D00";
shapes = (
{
closed = 1;
nodes = (
(465,-10,o),
(565,35,o),
(637,112,cs),
(708,188,o),
(755,300,o),
(761,429,cs),
(762,460,o),
(761,490,o),
(756,518,cs),
(747,573,o),
(726,619,o),
(694,655,cs),
(678,673,o),
(660,688,o),
(639,701,cs),
(597,726,o),
(546,740,o),
(486,740,cs),
(371,740,o),
(272,695,o),
(201,618,cs),
(129,541,o),
(86,430,o),
(78,301,cs),
(72,206,o),
(97,129,o),
(145,74,cs),
(193,19,o),
(263,-10,o),
(352,-10,cs)
);
},
{
closed = 1;
nodes = (
(280,25,o),
(219,49,o),
(177,94,cs),
(134,139,o),
(112,208,o),
(117,299,cs),
(123,423,o),
(161,524,o),
(226,595,cs),
(289,666,o),
(376,705,o),
(479,705,cs),
(555,705,o),
(618,680,o),
(661,635,cs),
(704,590,o),
(725,521,o),
(721,430,cs),
(715,307,o),
(675,206,o),
(612,135,cs),
(547,64,o),
(459,25,o),
(355,25,cs)
);
}
);
width = 779;
}
);
leftKerningGroup = C2;
rightKerningGroup = O;
unicode = 79;
},
{
glyphname = P;
layers = (
{
layerId = "B9F9456E-5A28-482F-A7A9-E399A36E312B";
shapes = (
{
closed = 1;
nodes = (
(223,0,l),
(376,535,l),
(362,524,l),
(418,524,ls),
(435,524,o),
(450,520,o),
(461,513,cs),
(472,505,o),
(477,494,o),
(475,479,c),
(475,455,o),
(467,438,o),
(451,426,cs),
(435,414,o),
(414,408,o),
(389,408,cs),
(322,408,l),
(268,222,l),
(412,222,ls),
(500,222,o),
(578,248,o),
(635,296,cs),
(692,343,o),
(729,412,o),
(734,496,cs),
(738,568,o),
(721,625,o),
(677,666,cs),
(634,706,o),
(567,729,o),
(471,729,cs),
(176,729,l),
(-31,0,l)
);
}
);
width = 689;
},
{
layerId = "D36F68F1-AC05-4452-BDF9-AB186909F070";
shapes = (
{
closed = 1;
nodes = (
(99,0,l),
(286,654,l),
(271,645,l),
(454,645,ls),
(501,645,o),
(538,635,o),
(563,615,cs),
(588,594,o),
(601,564,o),
(601,524,c),
(600,468,o),
(578,423,o),
(542,393,cs),
(505,363,o),
(452,347,o),
(387,347,cs),
(186,347,l),
(164,268,l),
(391,268,ls),
(482,268,o),
(559,293,o),
(614,338,cs),
(668,382,o),
(699,449,o),
(701,530,c),
(705,590,o),
(685,639,o),
(646,675,cs),
(607,710,o),
(549,729,o),
(472,729,cs),
(207,729,l),
(0,0,l)
);
}
);
width = 667;
},
{
layerId = "35642718-112C-4883-8033-E2E6DF5C4D00";
shapes = (
{
closed = 1;
nodes = (
(51,0,l),
(250,702,l),
(235,693,l),
(469,693,ls),
(526,693,o),
(572,680,o),
(604,655,cs),
(635,630,o),
(652,591,o),
(650,543,c),
(649,472,o),
(623,417,o),
(578,380,cs),
(533,343,o),
(469,323,o),
(386,323,cs),
(133,323,l),
(124,287,l),
(383,287,ls),
(476,287,o),
(552,310,o),
(605,354,cs),
(657,398,o),
(688,463,o),
(689,543,cs),
(690,599,o),
(671,646,o),
(634,678,cs),
(597,710,o),
(542,729,o),
(471,729,cs),
(218,729,l),
(13,0,l)
);
}
);
width = 658;
}
);
leftKerningGroup = B;
unicode = 80;
},
{
glyphname = Q;
layers = (
{
layerId = "B9F9456E-5A28-482F-A7A9-E399A36E312B";
shapes = (
{
closed = 1;
nodes = (
(726,21,l),
(669,21,o),
(612,27,o),
(555,39,c),
(555,34,l),
(634,48,o),
(699,97,o),
(747,163,cs),
(791,225,o),
(819,304,o),
(824,391,cs),
(828,492,o),
(801,579,o),
(742,641,cs),
(683,703,o),
(588,737,o),
(465,737,cs),
(346,737,o),
(244,698,o),
(168,628,cs),
(92,558,o),
(48,457,o),
(40,337,cs),
(35,245,o),
(56,164,o),
(106,104,cs),
(159,41,o),
(243,1,o),
(359,-8,c),
(328,1,l),
(437,-86,o),
(588,-170,o),
(666,-186,c)
);
},
{
closed = 1;
nodes = (
(372,197,o),
(343,209,o),
(324,232,cs),
(304,255,o),
(293,288,o),
(297,332,c),
(300,387,o),
(315,437,o),
(341,473,c),
(368,508,o),
(406,531,o),
(457,531,cs),
(492,531,o),
(521,520,o),
(541,497,c),
(559,473,o),
(569,439,o),
(565,396,c),
(562,343,o),
(547,292,o),
(523,256,c),
(497,220,o),
(457,197,o),
(408,197,cs)
);
}
);
width = 822;
},
{
layerId = "D36F68F1-AC05-4452-BDF9-AB186909F070";
shapes = (
{
closed = 1;
nodes = (
(586,-80,l),
(513,-56,o),
(451,-22,o),
(409,19,c),
(403,1,l),
(509,8,o),
(597,57,o),
(661,135,cs),
(721,209,o),
(756,307,o),
(762,418,cs),
(767,515,o),
(743,595,o),
(692,651,cs),
(640,707,o),
(565,739,o),
(465,739,cs),
(349,739,o),
(248,696,o),
(176,621,cs),
(103,545,o),
(58,439,o),
(50,311,cs),
(46,220,o),
(68,143,o),
(114,88,cs),
(162,28,o),
(237,-7,o),
(334,-9,c),
(305,1,l),
(372,-78,o),
(479,-150,o),
(559,-173,c)
);
},
{
closed = 1;
nodes = (
(291,74,o),
(238,94,o),
(202,134,cs),
(166,173,o),
(148,232,o),
(152,309,cs),
(157,413,o),
(190,500,o),
(243,561,cs),
(296,621,o),
(369,656,o),
(457,656,cs),
(522,656,o),
(576,635,o),
(612,596,c),
(646,556,o),
(665,497,o),
(660,420,cs),
(655,317,o),
(624,230,o),
(571,170,cs),
(518,109,o),
(443,74,o),
(355,74,cs)
);
}
);
width = 766;
},
{
layerId = "35642718-112C-4883-8033-E2E6DF5C4D00";
shapes = (
{
closed = 1;
nodes = (
(527,-133,l),
(467,-104,o),
(388,-47,o),
(348,-3,c),
(344,-13,l),
(460,-9,o),
(558,42,o),
(627,124,cs),
(692,202,o),
(733,308,o),
(739,429,cs),
(743,524,o),
(720,602,o),
(673,655,cs),
(625,708,o),
(554,740,o),
(465,740,cs),
(350,740,o),
(251,695,o),
(180,618,cs),
(107,541,o),
(64,432,o),
(56,301,cs),
(51,210,o),
(72,134,o),
(116,81,cs),
(163,24,o),
(234,-9,o),
(325,-9,c),
(296,0,l),
(366,-75,o),
(464,-149,o),
(517,-167,c)
);
},
{
closed = 1;
nodes = (
(259,25,o),
(198,49,o),
(156,94,cs),
(113,139,o),
(91,208,o),
(96,299,cs),
(102,423,o),
(141,524,o),
(205,595,cs),
(268,666,o),
(355,705,o),
(458,705,cs),
(534,705,o),
(598,680,o),
(640,635,cs),
(682,590,o),
(703,521,o),
(699,430,cs),
(693,307,o),
(654,206,o),
(591,135,cs),
(526,64,o),
(438,25,o),
(334,25,cs)
);
}
);
width = 744;
}
);
leftKerningGroup = C2;
unicode = 81;
},
{
glyphname = R;
layers = (
{
layerId = "B9F9456E-5A28-482F-A7A9-E399A36E312B";
shapes = (
{
closed = 1;
nodes = (
(221,0,l),
(372,535,l),
(486,535,ls),
(514,535,o),
(530,525,o),
(539,513,cs),
(548,500,o),
(548,482,o),
(541,466,c),
(532,430,o),
(495,413,o),
(446,414,c),
(321,414,l),
(264,222,l),
(377,222,ls),
(397,222,o),
(415,218,o),
(424,207,cs),
(433,196,o),
(435,180,o),
(428,153,cs),
(402,55,l),
(393,34,o),
(391,19,o),
(390,0,c),
(645,0,l),
(645,7,o),
(645,13,o),
(646,22,cs),
(647,31,o),
(651,44,o),
(657,68,c),
(688,176,l),
(696,209,o),
(697,237,o),
(688,260,cs),
(679,283,o),
(658,301,o),
(626,314,c),
(627,321,l),
(715,345,o),
(774,398,o),
(796,471,c),
(801,482,o),
(805,496,o),
(807,513,cs),
(810,547,o),
(805,585,o),
(785,624,c),
(774,643,o),
(759,661,o),
(740,677,cs),
(699,708,o),
(635,729,o),
(542,729,cs),
(176,729,l),
(-31,0,l)
);
}
);
width = 755;
},
{
layerId = "D36F68F1-AC05-4452-BDF9-AB186909F070";
shapes = (
{
closed = 1;
nodes = (
(98,0,l),
(282,648,l),
(494,648,ls),
(566,648,o),
(606,624,o),
(624,592,cs),
(641,560,o),
(640,520,o),
(628,491,c),
(608,420,o),
(543,383,o),
(459,383,cs),
(195,383,l),
(172,304,l),
(450,304,ls),
(481,304,o),
(506,296,o),
(520,276,cs),
(534,256,o),
(536,224,o),
(522,175,cs),
(493,73,l),
(483,37,o),
(478,16,o),
(479,0,c),
(579,0,l),
(578,7,o),
(578,12,o),
(579,23,cs),
(580,34,o),
(584,49,o),
(590,72,c),
(622,183,ls),
(635,226,o),
(635,259,o),
(624,285,cs),
(613,311,o),
(593,330,o),
(561,342,c),
(562,348,l),
(646,365,o),
(706,418,o),
(730,494,cs),
(734,506,o),
(737,520,o),
(739,537,cs),
(742,569,o),
(737,605,o),
(720,639,cs),
(711,656,o),
(698,671,o),
(681,684,cs),
(646,711,o),
(596,729,o),
(521,729,cs),
(207,729,l),
(0,0,l)
);
}
);
width = 710;
},
{
layerId = "35642718-112C-4883-8033-E2E6DF5C4D00";
shapes = (
{
closed = 1;
nodes = (
(51,0,l),
(246,693,l),
(498,693,ls),
(586,693,o),
(636,662,o),
(658,623,c),
(679,583,o),
(675,536,o),
(662,501,c),
(638,417,o),
(562,371,o),
(465,371,cs),
(146,371,l),
(137,336,l),
(479,336,ls),
(514,336,o),
(542,327,o),
(558,304,c),
(573,280,o),
(575,243,o),
(560,184,c),
(529,80,l),
(520,39,o),
(512,15,o),
(515,0,c),
(553,0,l),
(552,7,o),
(552,12,o),
(553,24,cs),
(554,35,o),
(558,50,o),
(563,74,c),
(597,186,ls),
(610,231,o),
(611,267,o),
(600,295,cs),
(589,322,o),
(567,341,o),
(536,353,c),
(537,358,l),
(620,375,o),
(682,426,o),
(703,503,c),
(708,516,o),
(711,530,o),
(712,546,cs),
(715,578,o),
(711,612,o),
(695,644,c),
(686,660,o),
(674,674,o),
(659,687,c),
(627,712,o),
(580,729,o),
(512,729,cs),
(218,729,l),
(13,0,l)
);
}
);
width = 692;
}
);
leftKerningGroup = B;
rightKerningGroup = R;
unicode = 82;
},
{
glyphname = S;
layers = (
{
layerId = "B9F9456E-5A28-482F-A7A9-E399A36E312B";
shapes = (
{
closed = 1;
nodes = (
(417,-10,o),
(505,17,o),
(566,66,cs),
(626,115,o),
(660,188,o),
(661,280,cs),
(662,335,o),
(647,375,o),
(610,406,cs),
(572,437,o),
(511,461,o),
(422,481,c),
(405,486,o),
(389,489,o),
(379,495,cs),
(367,501,o),
(360,506,o),
(360,517,cs),
(360,528,o),
(363,537,o),
(370,543,cs),
(377,549,o),
(389,553,o),
(405,553,cs),
(426,553,o),
(441,548,o),
(450,539,cs),
(459,530,o),
(461,519,o),
(460,503,c),
(715,503,l),
(718,570,o),
(694,628,o),
(643,670,cs),
(593,712,o),
(518,738,o),
(425,738,cs),
(332,738,o),
(248,715,o),
(187,671,cs),
(126,627,o),
(86,561,o),
(85,472,cs),
(85,420,o),
(102,379,o),
(139,345,cs),
(175,311,o),
(234,284,o),
(315,261,c),
(339,253,o),
(359,249,o),
(371,245,cs),
(383,240,o),
(390,233,o),
(389,220,cs),
(389,208,o),
(387,198,o),
(377,190,cs),
(367,182,o),
(351,178,o),
(324,178,cs),
(300,178,o),
(279,184,o),
(266,196,cs),
(253,207,o),
(247,222,o),
(249,239,c),
(0,239,l),
(-6,160,o),
(21,98,o),
(74,56,cs),
(126,14,o),
(206,-10,o),
(306,-10,cs)
);
}
);
width = 686;
},
{
layerId = "D36F68F1-AC05-4452-BDF9-AB186909F070";
shapes = (
{
closed = 1;
nodes = (
(388,-11,o),
(460,12,o),
(511,53,cs),
(563,94,o),
(593,154,o),
(594,231,cs),
(594,272,o),
(583,308,o),
(552,339,cs),
(520,370,o),
(467,395,o),
(382,418,c),
(329,431,o),
(292,447,o),
(269,466,cs),
(245,485,o),
(234,507,o),
(234,535,cs),
(234,575,o),
(253,607,o),
(282,628,cs),
(310,649,o),
(351,660,o),
(398,660,cs),
(450,660,o),
(491,647,o),
(519,623,cs),
(547,598,o),
(561,564,o),
(558,523,c),
(658,523,l),
(662,588,o),
(638,643,o),
(594,680,cs),
(550,717,o),
(486,739,o),
(407,739,cs),
(330,739,o),
(260,720,o),
(209,684,cs),
(159,647,o),
(128,592,o),
(127,520,cs),
(127,473,o),
(140,436,o),
(176,405,cs),
(211,374,o),
(265,351,o),
(342,331,cs),
(406,314,o),
(443,295,o),
(463,275,cs),
(483,254,o),
(487,233,o),
(487,212,cs),
(486,163,o),
(468,128,o),
(436,104,cs),
(404,80,o),
(358,68,o),
(303,68,cs),
(247,68,o),
(199,83,o),
(167,110,cs),
(135,137,o),
(117,176,o),
(122,227,c),
(23,227,l),
(17,154,o),
(40,94,o),
(87,53,cs),
(135,12,o),
(208,-11,o),
(300,-11,cs)
);
}
);
width = 646;
},
{
layerId = "35642718-112C-4883-8033-E2E6DF5C4D00";
shapes = (
{
closed = 1;
nodes = (
(376,-11,o),
(443,10,o),
(491,48,cs),
(539,86,o),
(567,141,o),
(567,212,cs),
(567,247,o),
(559,281,o),
(530,313,cs),
(501,344,o),
(450,371,o),
(366,392,c),
(299,411,o),
(255,431,o),
(226,455,cs),
(197,479,o),
(184,507,o),
(184,542,cs),
(185,594,o),
(209,635,o),
(247,662,cs),
(285,689,o),
(337,703,o),
(396,703,cs),
(459,703,o),
(510,686,o),
(546,656,cs),
(581,626,o),
(600,583,o),
(597,531,c),
(636,531,l),
(640,596,o),
(617,648,o),
(575,684,cs),
(533,720,o),
(472,739,o),
(400,739,cs),
(328,739,o),
(264,723,o),
(218,688,cs),
(172,653,o),
(144,604,o),
(143,539,cs),
(143,495,o),
(158,460,o),
(191,430,cs),
(223,400,o),
(277,377,o),
(353,358,cs),
(433,338,o),
(477,313,o),
(500,286,cs),
(523,259,o),
(526,233,o),
(526,209,cs),
(526,145,o),
(501,101,o),
(460,70,cs),
(419,39,o),
(361,25,o),
(294,25,cs),
(226,25,o),
(167,43,o),
(128,76,cs),
(89,109,o),
(67,159,o),
(71,222,c),
(32,222,l),
(25,151,o),
(48,93,o),
(93,53,cs),
(139,12,o),
(208,-11,o),
(299,-11,cs)
);
}
);
width = 631;
}
);
leftKerningGroup = S2;
rightKerningGroup = S;
unicode = 83;
},
{
glyphname = T;
layers = (
{
layerId = "B9F9456E-5A28-482F-A7A9-E399A36E312B";
shapes = (
{
closed = 1;
nodes = (
(365,0,l),
(517,535,l),
(266,535,l),
(113,0,l)
);
},
{
closed = 1;
nodes = (
(701,517,l),
(762,729,l),
(142,729,l),
(81,517,l)
);
}
);
width = 645;
},
{
layerId = "D36F68F1-AC05-4452-BDF9-AB186909F070";
shapes = (
{
closed = 1;
nodes = (
(277,0,l),
(463,655,l),
(365,655,l),
(179,0,l)
);
},
{
closed = 1;
nodes = (
(695,643,l),
(719,729,l),
(152,729,l),
(128,643,l)
);
}
);
width = 610;
},
{
layerId = "35642718-112C-4883-8033-E2E6DF5C4D00";
shapes = (
{
closed = 1;
nodes = (
(244,0,l),
(442,702,l),
(404,702,l),
(206,0,l)
);
},
{
closed = 1;
nodes = (
(693,693,l),
(702,729,l),
(156,729,l),
(147,693,l)
);
}
);
width = 596;
}
);
leftKerningGroup = T2;
rightKerningGroup = T;
unicode = 84;
},
{
glyphname = U;
layers = (
{
layerId = "B9F9456E-5A28-482F-A7A9-E399A36E312B";
shapes = (
{
closed = 1;
nodes = (
(417,-10,o),
(499,11,o),
(564,56,cs),
(628,100,o),
(676,168,o),
(702,261,cs),
(836,729,l),
(589,729,l),
(468,310,l),
(460,286,o),
(451,261,o),
(435,242,cs),
(418,222,o),
(393,209,o),
(353,209,cs),
(325,209,o),
(304,216,o),
(293,233,cs),
(281,249,o),
(279,275,o),
(288,311,c),
(408,729,l),
(163,729,l),
(45,325,ls),
(17,226,o),
(27,142,o),
(72,83,cs),
(117,24,o),
(201,-10,o),
(322,-10,cs)
);
}
);
width = 743;
},
{
layerId = "D36F68F1-AC05-4452-BDF9-AB186909F070";
shapes = (
{
closed = 1;
nodes = (
(406,-10,o),
(480,12,o),
(537,56,cs),
(594,100,o),
(635,168,o),
(660,259,cs),
(794,729,l),
(697,729,l),
(568,279,ls),
(548,207,o),
(518,157,o),
(479,125,cs),
(439,92,o),
(389,77,o),
(329,77,cs),
(262,77,o),
(213,98,o),
(183,135,cs),
(153,172,o),
(146,227,o),
(165,294,cs),
(290,729,l),
(194,729,l),
(69,299,ls),
(44,207,o),
(52,131,o),
(95,76,cs),
(137,21,o),
(212,-10,o),
(315,-10,cs)
);
}
);
width = 728;
},
{
layerId = "35642718-112C-4883-8033-E2E6DF5C4D00";
shapes = (
{
closed = 1;
nodes = (
(402,-10,o),
(473,12,o),
(527,57,cs),
(582,101,o),
(619,169,o),
(645,258,cs),
(777,729,l),
(739,729,l),
(608,267,ls),
(583,176,o),
(546,115,o),
(497,78,cs),
(448,41,o),
(388,25,o),
(319,25,cs),
(238,25,o),
(176,51,o),
(141,97,c),
(104,143,o),
(95,208,o),
(117,287,cs),
(242,729,l),
(206,729,l),
(79,289,ls),
(54,201,o),
(64,126,o),
(104,74,cs),
(145,21,o),
(218,-10,o),
(313,-10,cs)
);
}
);
width = 722;
}
);
leftKerningGroup = U2;
rightKerningGroup = U;
unicode = 85;
},
{
glyphname = V;
layers = (
{
layerId = "B9F9456E-5A28-482F-A7A9-E399A36E312B";
shapes = (
{
closed = 1;
nodes = (
(484,0,l),
(936,729,l),
(650,729,l),
(480,414,l),
(390,241,l),
(381,241,l),
(368,410,l),
(388,729,l),
(129,729,l),
(173,0,l)
);
}
);
width = 807;
},
{
layerId = "D36F68F1-AC05-4452-BDF9-AB186909F070";
shapes = (
{
closed = 1;
nodes = (
(351,0,l),
(845,729,l),
(732,729,l),
(364,165,l),
(314,94,l),
(308,94,l),
(310,163,l),
(250,729,l),
(150,729,l),
(226,0,l)
);
}
);
width = 733;
},
{
layerId = "35642718-112C-4883-8033-E2E6DF5C4D00";
shapes = (
{
closed = 1;
nodes = (
(300,0,l),
(809,729,l),
(764,729,l),
(319,66,l),
(285,36,l),
(280,36,l),
(288,66,l),
(195,729,l),
(158,729,l),
(248,0,l)
);
}
);
width = 704;
}
);
unicode = 86;
},
{
glyphname = W;
layers = (
{
layerId = "B9F9456E-5A28-482F-A7A9-E399A36E312B";
shapes = (
{
closed = 1;
nodes = (
(411,0,l),
(482,193,l),
(549,338,l),
(557,338,l),
(537,193,l),
(496,0,l),
(834,0,l),
(1179,729,l),
(903,729,l),
(786,425,l),
(727,277,l),
(718,277,l),
(749,431,l),
(802,729,l),
(513,729,l),
(398,425,l),
(337,280,l),
(326,280,l),
(357,421,l),
(406,729,l),
(134,729,l),
(66,0,l)
);
}
);
width = 1054;
},
{
layerId = "D36F68F1-AC05-4452-BDF9-AB186909F070";
shapes = (
{
closed = 1;
nodes = (
(257,0,l),
(519,479,l),
(587,591,l),
(593,591,l),
(584,472,l),
(584,0,l),
(715,0,l),
(1102,729,l),
(994,729,l),
(769,300,l),
(676,110,l),
(669,110,l),
(675,290,l),
(685,729,l),
(566,729,l),
(322,286,l),
(227,111,l),
(220,111,l),
(232,312,l),
(256,729,l),
(155,729,l),
(123,0,l)
);
}
);
width = 995;
},
{
layerId = "35642718-112C-4883-8033-E2E6DF5C4D00";
shapes = (
{
closed = 1;
nodes = (
(196,0,l),
(534,592,l),
(601,690,l),
(606,690,l),
(601,583,l),
(620,0,l),
(669,0,l),
(1070,729,l),
(1030,729,l),
(764,250,l),
(657,44,l),
(650,44,l),
(647,235,l),
(639,729,l),
(586,729,l),
(293,231,l),
(184,45,l),
(179,45,l),
(185,269,l),
(196,729,l),
(163,729,l),
(146,0,l)
);
}
);
width = 971;
}
);
leftKerningGroup = W2;
rightKerningGroup = W;
unicode = 87;
},
{
glyphname = X;
layers = (
{
layerId = "B9F9456E-5A28-482F-A7A9-E399A36E312B";
shapes = (
{
closed = 1;
nodes = (
(214,0,l),
(316,101,l),
(411,201,l),
(417,201,l),
(456,103,l),
(490,0,l),
(777,0,l),
(623,368,l),
(991,729,l),
(683,729,l),
(609,651,l),
(520,555,l),
(514,555,l),
(483,646,l),
(465,729,l),
(178,729,l),
(316,399,l),
(-81,0,l)
);
}
);
width = 857;
},
{
layerId = "D36F68F1-AC05-4452-BDF9-AB186909F070";
shapes = (
{
closed = 1;
nodes = (
(59,0,l),
(305,252,l),
(371,317,l),
(374,317,l),
(401,249,l),
(506,0,l),
(618,0,l),
(454,379,l),
(801,729,l),
(678,729,l),
(477,520,l),
(411,453,l),
(409,453,l),
(386,514,l),
(298,729,l),
(187,729,l),
(332,395,l),
(-60,0,l)
);
}
);
width = 712;
},
{
layerId = "35642718-112C-4883-8033-E2E6DF5C4D00";
shapes = (
{
closed = 1;
nodes = (
(-1,0,l),
(301,311,l),
(355,362,l),
(357,362,l),
(379,307,l),
(513,0,l),
(556,0,l),
(387,384,l),
(726,729,l),
(675,729,l),
(426,468,l),
(369,414,l),
(368,413,l),
(349,462,l),
(231,729,l),
(190,729,l),
(338,393,l),
(-51,0,l)
);
}
);
width = 654;
}
);
unicode = 88;
},
{
glyphname = Y;
layers = (
{
layerId = "B9F9456E-5A28-482F-A7A9-E399A36E312B";
shapes = (
{
closed = 1;
nodes = (
(443,0,l),
(516,250,l),
(928,729,l),
(631,729,l),
(538,608,l),
(446,483,l),
(436,483,l),
(411,609,l),
(399,729,l),
(127,729,l),
(266,264,l),
(192,0,l)
);
}
);
width = 795;
},
{
layerId = "D36F68F1-AC05-4452-BDF9-AB186909F070";
shapes = (
{
closed = 1;
nodes = (
(309,0,l),
(389,282,l),
(794,729,l),
(675,729,l),
(451,474,l),
(364,376,l),
(358,376,l),
(333,474,l),
(251,729,l),
(147,729,l),
(292,290,l),
(211,0,l)
);
}
);
width = 679;
},
{
layerId = "35642718-112C-4883-8033-E2E6DF5C4D00";
shapes = (
{
closed = 1;
nodes = (
(257,0,l),
(340,295,l),
(741,729,l),
(692,729,l),
(416,421,l),
(332,334,l),
(327,334,l),
(302,420,l),
(191,729,l),
(154,729,l),
(304,300,l),
(219,0,l)
);
}
);
width = 633;
}
);
leftKerningGroup = Y2;
rightKerningGroup = Y;
unicode = 89;
},
{
glyphname = Z;
layers = (
{
layerId = "B9F9456E-5A28-482F-A7A9-E399A36E312B";
shapes = (
{
closed = 1;
nodes = (
(552,0,l),
(611,209,l),
(331,209,l),
(696,540,l),
(752,729,l),
(172,729,l),
(112,518,l),
(362,518,l),
(-1,192,l),
(-57,0,l)
);
}
);
width = 657;
},
{
layerId = "D36F68F1-AC05-4452-BDF9-AB186909F070";
shapes = (
{
closed = 1;
nodes = (
(525,0,l),
(549,86,l),
(111,86,l),
(698,653,l),
(721,729,l),
(176,729,l),
(152,644,l),
(563,644,l),
(-25,77,l),
(-48,0,l)
);
}
);
width = 629;
},
{
layerId = "35642718-112C-4883-8033-E2E6DF5C4D00";
shapes = (
{
closed = 1;
nodes = (
(515,0,l),
(524,37,l),
(24,37,l),
(700,698,l),
(708,729,l),
(177,729,l),
(168,693,l),
(642,693,l),
(-34,32,l),
(-44,0,l)
);
}
);
width = 618;
}
);
leftKerningGroup = Z2;
rightKerningGroup = Z;
unicode = 90;
},
{
glyphname = bracketleft;
layers = (
{
layerId = "B9F9456E-5A28-482F-A7A9-E399A36E312B";
shapes = (
{
closed = 1;
nodes = (
(250,-167,l),
(302,9,l),
(191,9,l),
(367,616,l),
(478,616,l),
(529,793,l),
(201,793,l),
(-78,-167,l)
);
}
);
width = 404;
},
{
layerId = "D36F68F1-AC05-4452-BDF9-AB186909F070";
shapes = (
{
closed = 1;
nodes = (
(201,-167,l),
(222,-94,l),
(67,-94,l),
(300,720,l),
(456,720,l),
(476,793,l),
(234,793,l),
(-41,-167,l)
);
}
);
width = 358;
},
{
layerId = "35642718-112C-4883-8033-E2E6DF5C4D00";
shapes = (
{
closed = 1;
nodes = (
(182,-167,l),
(191,-135,l),
(19,-135,l),
(273,761,l),
(447,761,l),
(456,793,l),
(248,793,l),
(-27,-167,l)
);
}
);
width = 340;
}
);
unicode = 91;
},
{
glyphname = backslash;
layers = (
{
layerId = "B9F9456E-5A28-482F-A7A9-E399A36E312B";
shapes = (
{
closed = 1;
nodes = (
(378,-82,l),
(327,729,l),
(112,729,l),
(167,-82,l)
);
}
);
width = 464;
},
{
layerId = "D36F68F1-AC05-4452-BDF9-AB186909F070";
shapes = (
{
closed = 1;
nodes = (
(305,-81,l),
(206,729,l),
(122,729,l),
(219,-81,l)
);
}
);
width = 394;
},
{
layerId = "35642718-112C-4883-8033-E2E6DF5C4D00";
shapes = (
{
closed = 1;
nodes = (
(277,-81,l),
(157,729,l),
(125,729,l),
(241,-81,l)
);
}
);
width = 366;
}
);
unicode = 92;
},
{
glyphname = bracketright;
layers = (
{
layerId = "B9F9456E-5A28-482F-A7A9-E399A36E312B";
shapes = (
{
closed = 1;
nodes = (
(173,793,l),
(121,617,l),
(232,617,l),
(56,10,l),
(-55,10,l),
(-106,-167,l),
(222,-167,l),
(501,793,l)
);
}
);
width = 404;
},
{
layerId = "D36F68F1-AC05-4452-BDF9-AB186909F070";
shapes = (
{
closed = 1;
nodes = (
(184,793,l),
(163,720,l),
(318,720,l),
(85,-94,l),
(-71,-94,l),
(-92,-167,l),
(150,-167,l),
(425,793,l)
);
}
);
width = 358;
},
{
layerId = "35642718-112C-4883-8033-E2E6DF5C4D00";
shapes = (
{
closed = 1;
nodes = (
(189,793,l),
(180,761,l),
(351,761,l),
(97,-135,l),
(-77,-135,l),
(-86,-167,l),
(122,-167,l),
(397,793,l)
);
}
);
width = 340;
}
);
unicode = 93;
},
{
glyphname = asciicircum;
layers = (
{
layerId = "B9F9456E-5A28-482F-A7A9-E399A36E312B";
shapes = (
{
closed = 1;
nodes = (
(307,466,l),
(400,556,l),
(437,466,l),
(610,466,l),
(517,729,l),
(381,729,l),
(136,466,l)
);
}
);
width = 636;
},
{
layerId = "D36F68F1-AC05-4452-BDF9-AB186909F070";
shapes = (
{
closed = 1;
nodes = (
(276,473,l),
(431,654,l),
(481,473,l),
(558,473,l),
(483,729,l),
(418,729,l),
(197,473,l)
);
}
);
width = 636;
},
{
layerId = "35642718-112C-4883-8033-E2E6DF5C4D00";
shapes = (
{
closed = 1;
nodes = (
(264,475,l),
(443,693,l),
(498,475,l),
(537,475,l),
(469,729,l),
(432,729,l),
(221,475,l)
);
}
);
width = 636;
}
);
unicode = 94;
},
{
glyphname = underscore;
layers = (
{
layerId = "B9F9456E-5A28-482F-A7A9-E399A36E312B";
shapes = (
{
closed = 1;
nodes = (
(317,-192,l),
(373,0,l),
(-44,0,l),
(-102,-192,l)
);
}
);
width = 477;
},
{
layerId = "D36F68F1-AC05-4452-BDF9-AB186909F070";
shapes = (
{
closed = 1;
nodes = (
(327,-77,l),
(350,0,l),
(-24,0,l),
(-47,-77,l)
);
}
);
width = 471;
},
{
layerId = "35642718-112C-4883-8033-E2E6DF5C4D00";
shapes = (
{
closed = 1;
nodes = (
(332,-32,l),
(341,0,l),
(-16,0,l),
(-25,-32,l)
);
}
);
width = 468;
}
);
unicode = 95;
},
{
glyphname = a;
layers = (
{
layerId = "B9F9456E-5A28-482F-A7A9-E399A36E312B";
shapes = (
{
closed = 1;
nodes = (
(265,-10,o),
(313,14,o),
(338,47,c),
(347,47,l),
(338,0,l),
(573,0,l),
(731,551,l),
(497,551,l),
(465,472,l),
(459,472,l),
(436,532,o),
(365,562,o),
(304,562,cs),
(223,562,o),
(160,530,o),
(112,479,cs),
(64,428,o),
(32,360,o),
(18,285,c),
(4,200,o),
(14,125,o),
(46,73,cs),
(77,20,o),
(131,-10,o),
(198,-10,cs)
);
},
{
closed = 1;
nodes = (
(303,178,o),
(283,188,o),
(271,208,cs),
(260,227,o),
(256,256,o),
(263,295,c),
(272,319,o),
(283,339,o),
(299,352,cs),
(314,365,o),
(333,373,o),
(354,372,c),
(378,372,o),
(398,360,o),
(408,344,cs),
(418,328,o),
(419,307,o),
(412,286,c),
(402,249,l),
(394,229,o),
(386,211,o),
(375,199,cs),
(363,186,o),
(348,178,o),
(324,178,cs)
);
}
);
width = 697;
},
{
layerId = "D36F68F1-AC05-4452-BDF9-AB186909F070";
shapes = (
{
closed = 1;
nodes = (
(299,-10,o),
(369,21,o),
(406,54,c),
(410,54,l),
(392,0,l),
(483,0,l),
(633,527,l),
(544,527,l),
(510,436,l),
(504,436,l),
(484,491,o),
(407,536,o),
(325,536,cs),
(242,536,o),
(174,504,o),
(124,448,cs),
(75,392,o),
(44,312,o),
(39,217,cs),
(34,149,o),
(50,93,o),
(82,53,c),
(114,12,o),
(163,-10,o),
(223,-10,cs)
);
},
{
closed = 1;
nodes = (
(222,67,o),
(189,82,o),
(166,110,cs),
(143,137,o),
(132,175,o),
(136,223,cs),
(140,291,o),
(162,351,o),
(196,392,cs),
(230,433,o),
(279,458,o),
(338,458,cs),
(391,458,o),
(431,438,o),
(454,403,cs),
(477,367,o),
(481,316,o),
(464,255,cs),
(452,214,ls),
(438,167,o),
(414,131,o),
(383,106,cs),
(351,81,o),
(310,67,o),
(265,67,cs)
);
}
);
width = 627;
},
{
layerId = "35642718-112C-4883-8033-E2E6DF5C4D00";
shapes = (
{
closed = 1;
nodes = (
(313,-11,o),
(390,24,o),
(439,99,c),
(442,99,l),
(413,0,l),
(447,0,l),
(593,517,l),
(562,517,l),
(522,381,l),
(516,381,l),
(500,473,o),
(425,526,o),
(333,526,cs),
(250,526,o),
(180,494,o),
(130,436,cs),
(79,378,o),
(48,293,o),
(46,190,cs),
(46,130,o),
(63,80,o),
(96,45,c),
(128,9,o),
(176,-11,o),
(232,-11,cs)
);
},
{
closed = 1;
nodes = (
(189,23,o),
(151,41,o),
(124,71,cs),
(98,101,o),
(85,143,o),
(86,194,c),
(87,279,o),
(112,355,o),
(154,408,cs),
(197,460,o),
(257,492,o),
(330,492,cs),
(395,492,o),
(444,469,o),
(472,426,c),
(498,382,o),
(505,319,o),
(484,243,c),
(471,200,l),
(456,144,o),
(426,100,o),
(385,70,cs),
(345,40,o),
(295,23,o),
(240,23,cs)
);
}
);
width = 600;
}
);
leftKerningGroup = a2;
rightKerningGroup = a;
unicode = 97;
},
{
glyphname = b;
layers = (
{
layerId = "B9F9456E-5A28-482F-A7A9-E399A36E312B";
shapes = (
{
closed = 1;
nodes = (
(473,-11,o),
(537,22,o),
(586,75,cs),
(634,127,o),
(664,197,o),
(676,273,cs),
(690,357,o),
(678,429,o),
(646,481,cs),
(615,532,o),
(564,561,o),
(495,561,cs),
(432,561,o),
(383,536,o),
(358,503,c),
(349,504,l),
(414,729,l),
(173,729,l),
(-35,0,l),
(199,0,l),
(231,79,l),
(237,79,l),
(255,19,o),
(332,-11,o),
(390,-11,cs)
);
},
{
closed = 1;
nodes = (
(318,179,o),
(299,190,o),
(289,206,cs),
(279,222,o),
(277,244,o),
(284,265,c),
(293,302,l),
(301,322,o),
(308,340,o),
(320,353,cs),
(332,365,o),
(348,373,o),
(371,373,cs),
(394,373,o),
(413,364,o),
(424,345,cs),
(435,325,o),
(439,297,o),
(431,258,c),
(424,234,o),
(412,214,o),
(396,200,cs),
(380,186,o),
(362,179,o),
(343,179,cs)
);
}
);
width = 696;
},
{
layerId = "D36F68F1-AC05-4452-BDF9-AB186909F070";
shapes = (
{
closed = 1;
nodes = (
(384,-10,o),
(454,24,o),
(504,81,cs),
(553,137,o),
(583,219,o),
(587,315,cs),
(591,382,o),
(574,436,o),
(543,476,c),
(511,515,o),
(462,537,o),
(403,537,cs),
(327,537,o),
(264,506,o),
(225,473,c),
(222,473,l),
(295,729,l),
(201,729,l),
(-7,0,l),
(83,0,l),
(117,90,l),
(122,90,l),
(142,38,o),
(219,-10,o),
(300,-10,cs)
);
},
{
closed = 1;
nodes = (
(236,68,o),
(196,88,o),
(173,124,c),
(149,159,o),
(145,211,o),
(162,272,cs),
(174,313,ls),
(188,358,o),
(211,396,o),
(243,421,cs),
(275,445,o),
(316,460,o),
(363,460,cs),
(404,460,o),
(436,445,o),
(459,418,cs),
(482,391,o),
(493,354,o),
(489,307,c),
(488,240,o),
(467,181,o),
(433,138,cs),
(399,94,o),
(350,68,o),
(289,68,cs)
);
}
);
width = 627;
},
{
layerId = "35642718-112C-4883-8033-E2E6DF5C4D00";
shapes = (
{
closed = 1;
nodes = (
(350,-9,o),
(420,24,o),
(471,83,cs),
(523,142,o),
(551,227,o),
(552,331,cs),
(552,391,o),
(534,439,o),
(502,474,cs),
(470,509,o),
(422,528,o),
(367,528,cs),
(286,528,o),
(209,492,o),
(159,419,c),
(158,419,l),
(247,729,l),
(211,729,l),
(5,0,l),
(37,0,l),
(79,136,l),
(83,136,l),
(99,44,o),
(173,-9,o),
(265,-9,cs)
);
},
{
closed = 1;
nodes = (
(204,25,o),
(155,48,o),
(128,92,c),
(100,135,o),
(93,198,o),
(114,275,c),
(128,317,l),
(144,373,o),
(173,418,o),
(214,448,cs),
(254,478,o),
(304,494,o),
(359,494,cs),
(408,494,o),
(447,478,o),
(474,448,cs),
(500,418,o),
(513,377,o),
(513,326,cs),
(512,243,o),
(489,168,o),
(448,113,cs),
(406,58,o),
(345,25,o),
(268,25,cs)
);
}
);
width = 600;
}
);
leftKerningGroup = b2;
rightKerningGroup = b;
unicode = 98;
},
{
glyphname = c;
layers = (
{
layerId = "B9F9456E-5A28-482F-A7A9-E399A36E312B";
shapes = (
{
closed = 1;
nodes = (
(372,-9,o),
(444,14,o),
(498,54,cs),
(551,93,o),
(586,148,o),
(597,215,c),
(366,215,l),
(359,199,o),
(351,189,o),
(340,184,cs),
(329,179,o),
(319,177,o),
(308,177,cs),
(291,177,o),
(275,183,o),
(267,194,cs),
(259,205,o),
(254,222,o),
(258,242,c),
(261,285,o),
(271,319,o),
(284,341,cs),
(297,363,o),
(315,374,o),
(338,374,cs),
(353,374,o),
(363,370,o),
(372,362,cs),
(380,354,o),
(384,343,o),
(383,327,c),
(618,327,l),
(617,398,o),
(590,456,o),
(544,497,cs),
(496,537,o),
(427,561,o),
(347,561,cs),
(259,561,o),
(187,539,o),
(133,497,cs),
(78,455,o),
(40,394,o),
(24,318,c),
(3,217,o),
(22,135,o),
(68,79,cs),
(114,23,o),
(191,-9,o),
(287,-9,cs)
);
}
);
width = 624;
},
{
layerId = "D36F68F1-AC05-4452-BDF9-AB186909F070";
shapes = (
{
closed = 1;
nodes = (
(325,-11,o),
(387,9,o),
(435,42,cs),
(483,75,o),
(518,124,o),
(533,181,c),
(441,181,l),
(429,145,o),
(406,116,o),
(376,97,cs),
(346,77,o),
(308,66,o),
(268,66,cs),
(225,66,o),
(191,79,o),
(167,103,cs),
(143,127,o),
(131,165,o),
(132,210,cs),
(133,277,o),
(152,340,o),
(187,386,cs),
(222,432,o),
(273,461,o),
(340,461,cs),
(380,461,o),
(412,449,o),
(437,429,c),
(461,408,o),
(476,379,o),
(477,343,c),
(568,343,l),
(568,399,o),
(546,449,o),
(508,483,cs),
(468,517,o),
(412,537,o),
(347,537,cs),
(255,537,o),
(180,502,o),
(127,447,cs),
(75,391,o),
(44,314,o),
(39,233,cs),
(33,158,o),
(53,98,o),
(90,56,cs),
(128,14,o),
(186,-11,o),
(258,-11,cs)
);
}
);
width = 585;
},
{
layerId = "35642718-112C-4883-8033-E2E6DF5C4D00";
shapes = (
{
closed = 1;
nodes = (
(306,-11,o),
(364,6,o),
(410,38,cs),
(456,69,o),
(491,114,o),
(507,167,c),
(470,167,l),
(457,124,o),
(428,87,o),
(389,62,cs),
(351,37,o),
(304,22,o),
(251,22,cs),
(198,22,o),
(157,39,o),
(127,68,cs),
(98,97,o),
(82,141,o),
(82,198,cs),
(83,274,o),
(105,348,o),
(148,403,cs),
(192,458,o),
(256,495,o),
(340,495,cs),
(388,495,o),
(431,481,o),
(463,455,cs),
(494,429,o),
(510,393,o),
(513,349,c),
(547,349,l),
(548,400,o),
(528,445,o),
(493,477,cs),
(457,509,o),
(406,528,o),
(346,528,cs),
(253,528,o),
(177,488,o),
(126,427,cs),
(73,366,o),
(46,283,o),
(45,199,cs),
(45,135,o),
(63,83,o),
(98,47,cs),
(133,10,o),
(185,-11,o),
(246,-11,cs)
);
}
);
width = 570;
}
);
leftKerningGroup = c2;
rightKerningGroup = c;
unicode = 99;
},
{
glyphname = d;
layers = (
{
layerId = "B9F9456E-5A28-482F-A7A9-E399A36E312B";
shapes = (
{
closed = 1;
nodes = (
(258,-10,o),
(308,14,o),
(336,47,c),
(344,46,l),
(336,0,l),
(570,0,l),
(779,729,l),
(537,729,l),
(463,472,l),
(457,472,l),
(439,531,o),
(360,561,o),
(303,561,cs),
(222,561,o),
(159,530,o),
(111,479,cs),
(63,427,o),
(31,360,o),
(17,285,cs),
(1,198,o),
(12,125,o),
(45,73,cs),
(76,20,o),
(128,-10,o),
(197,-10,cs)
);
},
{
closed = 1;
nodes = (
(300,177,o),
(280,187,o),
(269,207,cs),
(258,227,o),
(254,257,o),
(262,294,c),
(271,318,o),
(283,338,o),
(299,352,cs),
(314,366,o),
(333,373,o),
(353,372,c),
(378,372,o),
(396,360,o),
(406,344,cs),
(416,328,o),
(417,308,o),
(410,285,cs),
(400,249,l),
(393,228,o),
(384,210,o),
(373,198,cs),
(361,185,o),
(346,177,o),
(323,177,cs)
);
}
);
width = 693;
},
{
layerId = "D36F68F1-AC05-4452-BDF9-AB186909F070";
shapes = (
{
closed = 1;
nodes = (
(297,-10,o),
(369,19,o),
(406,54,c),
(411,54,l),
(394,0,l),
(483,0,l),
(690,729,l),
(596,729,l),
(512,435,l),
(508,435,l),
(486,490,o),
(408,536,o),
(324,536,cs),
(241,536,o),
(173,504,o),
(123,448,cs),
(74,392,o),
(43,312,o),
(38,217,cs),
(33,150,o),
(49,93,o),
(81,53,cs),
(113,13,o),
(162,-10,o),
(222,-10,cs)
);
},
{
closed = 1;
nodes = (
(219,67,o),
(186,82,o),
(164,110,cs),
(142,137,o),
(130,175,o),
(135,223,c),
(138,291,o),
(160,351,o),
(194,392,cs),
(228,433,o),
(278,458,o),
(335,458,cs),
(390,458,o),
(429,438,o),
(452,403,cs),
(475,367,o),
(479,316,o),
(463,255,c),
(451,214,ls),
(437,169,o),
(414,132,o),
(382,107,cs),
(350,82,o),
(310,67,o),
(262,67,cs)
);
}
);
width = 628;
},
{
layerId = "35642718-112C-4883-8033-E2E6DF5C4D00";
shapes = (
{
closed = 1;
nodes = (
(313,-10,o),
(392,22,o),
(442,99,c),
(445,99,l),
(417,0,l),
(449,0,l),
(654,729,l),
(618,729,l),
(521,379,l),
(517,379,l),
(501,473,o),
(427,526,o),
(333,526,cs),
(249,526,o),
(180,494,o),
(130,436,cs),
(79,378,o),
(48,294,o),
(46,191,cs),
(46,131,o),
(63,81,o),
(96,46,c),
(128,10,o),
(176,-10,o),
(232,-10,cs)
);
},
{
closed = 1;
nodes = (
(188,24,o),
(149,42,o),
(123,72,cs),
(98,102,o),
(84,143,o),
(84,195,cs),
(86,280,o),
(111,355,o),
(153,408,cs),
(196,461,o),
(255,492,o),
(328,492,cs),
(395,492,o),
(444,468,o),
(472,425,c),
(498,382,o),
(505,320,o),
(484,243,c),
(471,200,ls),
(455,145,o),
(427,102,o),
(386,71,cs),
(346,40,o),
(296,24,o),
(237,24,cs)
);
}
);
width = 603;
}
);
leftKerningGroup = a2;
rightKerningGroup = d;
unicode = 100;
},
{
glyphname = e;
layers = (
{
layerId = "B9F9456E-5A28-482F-A7A9-E399A36E312B";
shapes = (
{
closed = 1;
nodes = (
(377,-10,o),
(444,9,o),
(496,42,cs),
(549,75,o),
(585,124,o),
(601,181,c),
(364,184,l),
(356,172,o),
(340,163,o),
(312,163,cs),
(293,163,o),
(277,166,o),
(265,175,cs),
(253,183,o),
(247,197,o),
(246,216,c),
(610,216,l),
(633,315,o),
(616,400,o),
(570,462,cs),
(523,524,o),
(445,561,o),
(346,561,cs),
(245,561,o),
(162,527,o),
(105,471,cs),
(48,414,o),
(17,335,o),
(17,242,cs),
(16,166,o),
(41,104,o),
(89,60,cs),
(136,15,o),
(209,-10,o),
(301,-10,cs)
);
},
{
closed = 1;
nodes = (
(274,351,l),
(275,362,o),
(282,370,o),
(291,378,cs),
(300,386,o),
(316,390,o),
(337,390,cs),
(354,390,o),
(368,386,o),
(379,378,cs),
(390,370,o),
(395,360,o),
(396,348,c),
(399,351,l),
(269,351,l)
);
}
);
width = 639;
},
{
layerId = "D36F68F1-AC05-4452-BDF9-AB186909F070";
shapes = (
{
closed = 1;
nodes = (
(323,-10,o),
(382,8,o),
(428,38,cs),
(475,68,o),
(509,110,o),
(524,162,c),
(430,163,l),
(406,103,o),
(344,63,o),
(265,63,cs),
(217,63,o),
(180,81,o),
(156,113,cs),
(131,145,o),
(122,191,o),
(130,246,c),
(542,246,l),
(563,331,o),
(553,403,o),
(517,455,cs),
(482,507,o),
(422,537,o),
(339,537,cs),
(254,537,o),
(180,503,o),
(126,447,cs),
(73,390,o),
(40,310,o),
(37,218,cs),
(33,149,o),
(54,93,o),
(93,53,cs),
(132,12,o),
(188,-10,o),
(259,-10,cs)
);
},
{
closed = 1;
nodes = (
(141,297,l),
(155,352,o),
(181,394,o),
(214,423,cs),
(246,451,o),
(289,465,o),
(332,465,cs),
(380,465,o),
(417,448,o),
(440,419,cs),
(463,390,o),
(471,347,o),
(458,296,c),
(471,308,l),
(129,308,l)
);
}
);
width = 587;
},
{
layerId = "35642718-112C-4883-8033-E2E6DF5C4D00";
shapes = (
{
closed = 1;
nodes = (
(301,-10,o),
(356,7,o),
(400,36,cs),
(444,64,o),
(478,106,o),
(493,154,c),
(456,154,l),
(426,75,o),
(346,24,o),
(247,24,cs),
(187,24,o),
(140,48,o),
(112,89,c),
(83,129,o),
(72,189,o),
(85,258,c),
(515,258,l),
(534,337,o),
(527,405,o),
(497,453,cs),
(466,500,o),
(412,528,o),
(336,528,cs),
(257,528,o),
(187,494,o),
(135,437,cs),
(82,380,o),
(49,300,o),
(43,208,cs),
(40,143,o),
(60,89,o),
(94,50,cs),
(129,11,o),
(181,-10,o),
(242,-10,cs)
);
},
{
closed = 1;
nodes = (
(89,276,l),
(106,349,o),
(139,404,o),
(183,440,cs),
(226,476,o),
(277,495,o),
(329,495,cs),
(389,495,o),
(436,474,o),
(464,436,cs),
(491,398,o),
(500,342,o),
(483,275,c),
(501,290,l),
(75,290,l)
);
}
);
width = 567;
}
);
leftKerningGroup = c2;
rightKerningGroup = e;
unicode = 101;
},
{
glyphname = f;
layers = (
{
layerId = "B9F9456E-5A28-482F-A7A9-E399A36E312B";
shapes = (
{
closed = 1;
nodes = (
(198,-167,l),
(352,362,l),
(455,362,l),
(508,551,l),
(407,551,l),
(404,535,l),
(408,548,o),
(414,557,o),
(426,562,cs),
(437,567,o),
(452,569,o),
(473,569,cs),
(521,569,l),
(568,729,l),
(411,729,ls),
(340,729,o),
(286,716,o),
(250,689,cs),
(212,662,o),
(188,626,o),
(176,583,c),
(168,551,l),
(89,551,l),
(36,362,l),
(113,362,l),
(-41,-167,l)
);
}
);
width = 440;
},
{
layerId = "D36F68F1-AC05-4452-BDF9-AB186909F070";
shapes = (
{
closed = 1;
nodes = (
(86,-167,l),
(256,450,l),
(371,450,l),
(393,527,l),
(279,527,l),
(301,605,ls),
(306,624,o),
(316,638,o),
(329,647,cs),
(341,655,o),
(357,660,o),
(380,660,cs),
(443,660,l),
(463,729,l),
(363,729,ls),
(323,729,o),
(291,720,o),
(265,703,cs),
(240,685,o),
(223,659,o),
(212,625,c),
(185,527,l),
(91,527,l),
(68,450,l),
(163,450,l),
(-8,-167,l)
);
}
);
width = 337;
},
{
layerId = "35642718-112C-4883-8033-E2E6DF5C4D00";
shapes = (
{
closed = 1;
nodes = (
(39,-167,l),
(219,485,l),
(339,485,l),
(348,517,l),
(229,517,l),
(260,632,l),
(267,653,o),
(277,671,o),
(290,681,cs),
(303,691,o),
(320,696,o),
(343,696,cs),
(412,696,l),
(421,729,l),
(343,729,ls),
(316,729,o),
(292,722,o),
(272,709,cs),
(251,695,o),
(236,673,o),
(226,642,c),
(192,517,l),
(92,517,l),
(82,485,l),
(184,485,l),
(2,-167,l)
);
}
);
width = 296;
}
);
leftKerningGroup = f2;
rightKerningGroup = f;
unicode = 102;
},
{
glyphname = g;
layers = (
{
layerId = "B9F9456E-5A28-482F-A7A9-E399A36E312B";
shapes = (
{
closed = 1;
nodes = (
(338,-176,o),
(405,-157,o),
(459,-118,cs),
(511,-79,o),
(547,-24,o),
(571,47,c),
(712,551,l),
(488,551,l),
(452,473,l),
(445,473,l),
(418,538,o),
(349,561,o),
(283,561,cs),
(206,561,o),
(140,526,o),
(94,470,cs),
(49,413,o),
(21,333,o),
(19,244,cs),
(17,184,o),
(32,133,o),
(64,98,c),
(95,62,o),
(141,42,o),
(201,42,cs),
(257,42,o),
(308,65,o),
(332,97,c),
(340,97,l),
(320,27,ls),
(315,10,o),
(306,0,o),
(295,-7,cs),
(283,-14,o),
(271,-15,o),
(259,-15,cs),
(244,-15,o),
(232,-16,o),
(222,-13,cs),
(212,-9,o),
(206,-5,o),
(203,4,c),
(-17,4,l),
(-15,-52,o),
(13,-97,o),
(61,-128,cs),
(107,-159,o),
(174,-176,o),
(254,-176,cs)
);
},
{
closed = 1;
nodes = (
(305,211,o),
(291,214,o),
(281,225,cs),
(270,236,o),
(263,250,o),
(264,274,c),
(264,309,o),
(272,338,o),
(287,359,cs),
(302,380,o),
(322,393,o),
(347,393,cs),
(368,393,o),
(386,386,o),
(395,371,cs),
(404,355,o),
(407,334,o),
(399,303,c),
(391,273,l),
(384,252,o),
(377,237,o),
(366,226,cs),
(354,215,o),
(341,211,o),
(320,211,cs)
);
}
);
width = 677;
},
{
layerId = "D36F68F1-AC05-4452-BDF9-AB186909F070";
shapes = (
{
closed = 1;
nodes = (
(287,-177,o),
(343,-157,o),
(386,-122,cs),
(429,-87,o),
(458,-38,o),
(475,22,cs),
(618,527,l),
(530,527,l),
(497,438,l),
(493,438,l),
(474,495,o),
(399,536,o),
(315,536,cs),
(238,536,o),
(169,502,o),
(120,445,cs),
(71,388,o),
(41,308,o),
(40,216,cs),
(38,159,o),
(55,110,o),
(87,77,cs),
(118,44,o),
(165,24,o),
(222,24,cs),
(295,24,o),
(358,57,o),
(394,83,c),
(399,83,l),
(381,23,ls),
(370,-16,o),
(351,-49,o),
(323,-72,cs),
(296,-95,o),
(261,-107,o),
(218,-107,cs),
(179,-107,o),
(146,-99,o),
(121,-83,cs),
(96,-67,o),
(81,-43,o),
(81,-11,c),
(-7,-11,l),
(-8,-62,o),
(12,-102,o),
(51,-131,cs),
(90,-160,o),
(145,-177,o),
(212,-177,cs)
);
},
{
closed = 1;
nodes = (
(225,95,o),
(193,106,o),
(170,129,cs),
(147,152,o),
(135,185,o),
(136,228,cs),
(137,295,o),
(159,354,o),
(194,397,cs),
(229,440,o),
(277,464,o),
(333,464,cs),
(380,464,o),
(418,447,o),
(441,416,cs),
(464,384,o),
(472,339,o),
(458,284,c),
(443,237,l),
(432,196,o),
(409,160,o),
(378,135,cs),
(346,110,o),
(308,95,o),
(264,95,cs)
);
}
);
width = 612;
},
{
layerId = "35642718-112C-4883-8033-E2E6DF5C4D00";
shapes = (
{
closed = 1;
nodes = (
(266,-177,o),
(317,-156,o),
(357,-123,cs),
(396,-90,o),
(422,-43,o),
(438,12,cs),
(581,517,l),
(547,517,l),
(508,383,l),
(506,383,l),
(496,476,o),
(416,527,o),
(327,527,cs),
(250,527,o),
(179,493,o),
(130,435,cs),
(80,377,o),
(49,297,o),
(47,205,cs),
(46,149,o),
(64,101,o),
(96,69,c),
(128,36,o),
(174,17,o),
(230,17,cs),
(311,17,o),
(385,55,o),
(431,120,c),
(434,120,l),
(404,21,l),
(391,-28,o),
(367,-69,o),
(334,-98,cs),
(301,-127,o),
(257,-143,o),
(201,-143,cs),
(154,-143,o),
(112,-132,o),
(81,-111,cs),
(50,-90,o),
(32,-58,o),
(32,-17,c),
(-4,-17,l),
(-7,-65,o),
(12,-104,o),
(48,-133,cs),
(83,-161,o),
(134,-177,o),
(195,-177,cs)
);
},
{
closed = 1;
nodes = (
(193,49,o),
(154,64,o),
(127,92,c),
(99,119,o),
(85,159,o),
(85,210,cs),
(87,290,o),
(115,360,o),
(157,412,cs),
(200,463,o),
(259,493,o),
(326,493,cs),
(383,493,o),
(431,472,o),
(459,434,cs),
(486,396,o),
(497,341,o),
(481,277,c),
(463,222,l),
(450,174,o),
(421,131,o),
(382,100,cs),
(342,68,o),
(293,49,o),
(241,49,cs)
);
}
);
width = 586;
}
);
leftKerningGroup = g2;
rightKerningGroup = g;
unicode = 103;
},
{
glyphname = h;
layers = (
{
layerId = "B9F9456E-5A28-482F-A7A9-E399A36E312B";
shapes = (
{
closed = 1;
nodes = (
(206,0,l),
(293,305,ls),
(301,330,o),
(311,347,o),
(324,358,cs),
(336,369,o),
(352,372,o),
(368,372,cs),
(387,372,o),
(399,365,o),
(406,350,cs),
(413,335,o),
(412,313,o),
(404,284,cs),
(323,0,l),
(564,0,l),
(655,299,l),
(683,402,o),
(670,466,o),
(639,506,cs),
(607,546,o),
(558,561,o),
(513,561,cs),
(459,561,o),
(387,532,o),
(352,489,c),
(345,489,l),
(413,729,l),
(173,729,l),
(-35,0,l)
);
}
);
width = 677;
},
{
layerId = "D36F68F1-AC05-4452-BDF9-AB186909F070";
shapes = (
{
closed = 1;
nodes = (
(87,0,l),
(170,300,l),
(186,351,o),
(212,391,o),
(246,419,cs),
(280,446,o),
(321,460,o),
(365,460,cs),
(412,460,o),
(443,444,o),
(460,414,cs),
(476,384,o),
(478,339,o),
(461,280,cs),
(381,0,l),
(475,0,l),
(557,286,ls),
(582,369,o),
(576,432,o),
(550,474,cs),
(522,516,o),
(473,537,o),
(412,537,cs),
(336,537,o),
(262,499,o),
(221,468,c),
(214,468,l),
(294,729,l),
(200,729,l),
(-7,0,l)
);
}
);
width = 608;
},
{
layerId = "35642718-112C-4883-8033-E2E6DF5C4D00";
shapes = (
{
closed = 1;
nodes = (
(41,0,l),
(123,298,ls),
(140,359,o),
(173,410,o),
(216,443,cs),
(258,476,o),
(310,494,o),
(363,494,cs),
(420,494,o),
(461,475,o),
(482,439,cs),
(502,403,o),
(504,348,o),
(484,279,cs),
(404,0,l),
(440,0,l),
(520,281,l),
(543,356,o),
(538,417,o),
(514,461,c),
(489,504,o),
(441,528,o),
(373,528,cs),
(287,528,o),
(214,488,o),
(163,418,c),
(156,418,l),
(247,729,l),
(210,729,l),
(5,0,l)
);
}
);
width = 580;
}
);
leftKerningGroup = b2;
rightKerningGroup = h;
unicode = 104;
},
{
glyphname = k;
layers = (
{
layerId = "B9F9456E-5A28-482F-A7A9-E399A36E312B";
shapes = (
{
closed = 1;
nodes = (
(206,0,l),
(246,135,l),
(297,180,l),
(314,125,l),
(359,0,l),
(620,0,l),
(497,313,l),
(780,551,l),
(485,551,l),
(359,428,l),
(317,389,l),
(415,729,l),
(174,729,l),
(-35,0,l)
);
}
);
width = 698;
},
{
layerId = "D36F68F1-AC05-4452-BDF9-AB186909F070";
shapes = (
{
closed = 1;
nodes = (
(88,0,l),
(135,165,l),
(266,265,l),
(287,210,l),
(369,0,l),
(474,0,l),
(344,319,l),
(615,527,l),
(492,527,l),
(238,331,l),
(165,273,l),
(296,729,l),
(201,729,l),
(-7,0,l)
);
}
);
width = 564;
},
{
layerId = "35642718-112C-4883-8033-E2E6DF5C4D00";
shapes = (
{
closed = 1;
nodes = (
(42,0,l),
(92,177,l),
(255,299,l),
(276,244,l),
(374,0,l),
(417,0,l),
(285,321,l),
(550,517,l),
(496,517,l),
(191,293,l),
(106,227,l),
(248,729,l),
(211,729,l),
(5,0,l)
);
}
);
width = 511;
}
);
leftKerningGroup = b2;
rightKerningGroup = k;
unicode = 107;
},
{
glyphname = m;
layers = (
{
layerId = "B9F9456E-5A28-482F-A7A9-E399A36E312B";
shapes = (
{
closed = 1;
nodes = (
(207,0,l),
(297,307,ls),
(306,335,o),
(316,352,o),
(328,361,cs),
(340,369,o),
(355,372,o),
(368,372,cs),
(391,372,o),
(402,359,o),
(406,342,cs),
(409,325,o),
(404,299,o),
(397,274,cs),
(316,0,l),
(558,0,l),
(646,310,l),
(654,333,o),
(663,349,o),
(675,358,cs),
(687,367,o),
(700,372,o),
(715,372,cs),
(738,372,o),
(750,360,o),
(754,343,cs),
(758,326,o),
(753,301,o),
(746,274,c),
(664,0,l),
(906,0,l),
(998,311,ls),
(1020,386,o),
(1017,448,o),
(990,492,cs),
(963,536,o),
(913,561,o),
(845,561,cs),
(773,561,o),
(702,523,o),
(661,464,c),
(652,464,l),
(645,531,o),
(568,561,o),
(509,561,cs),
(450,561,o),
(387,529,o),
(355,489,c),
(347,489,l),
(358,551,l),
(125,551,l),
(-34,0,l)
);
}
);
width = 1018;
},
{
layerId = "D36F68F1-AC05-4452-BDF9-AB186909F070";
shapes = (
{
closed = 1;
nodes = (
(90,0,l),
(173,296,ls),
(189,349,o),
(214,390,o),
(246,418,cs),
(278,445,o),
(319,460,o),
(360,460,cs),
(404,460,o),
(435,444,o),
(451,414,cs),
(466,384,o),
(467,339,o),
(450,280,cs),
(369,0,l),
(464,0,l),
(548,300,l),
(564,351,o),
(588,390,o),
(620,418,cs),
(651,445,o),
(690,460,o),
(734,460,cs),
(779,460,o),
(809,444,o),
(826,413,cs),
(842,382,o),
(842,338,o),
(826,281,cs),
(745,0,l),
(839,0,l),
(923,293,ls),
(947,372,o),
(942,433,o),
(916,474,cs),
(889,515,o),
(842,537,o),
(779,537,cs),
(670,537,o),
(607,511,o),
(550,442,c),
(542,442,l),
(533,496,o),
(486,537,o),
(407,537,cs),
(334,537,o),
(264,500,o),
(224,467,c),
(218,467,l),
(234,527,l),
(145,527,l),
(-5,0,l)
);
}
);
width = 971;
},
{
layerId = "35642718-112C-4883-8033-E2E6DF5C4D00";
shapes = (
{
closed = 1;
nodes = (
(43,0,l),
(123,292,l),
(142,355,o),
(173,405,o),
(214,440,cs),
(254,475,o),
(304,494,o),
(356,494,cs),
(408,494,o),
(448,477,o),
(469,442,c),
(488,407,o),
(491,354,o),
(471,282,cs),
(390,0,l),
(427,0,l),
(510,296,ls),
(526,357,o),
(557,406,o),
(598,441,cs),
(637,476,o),
(685,494,o),
(740,494,cs),
(795,494,o),
(833,476,o),
(854,441,c),
(873,405,o),
(876,353,o),
(857,284,cs),
(776,0,l),
(812,0,l),
(894,286,ls),
(917,366,o),
(912,426,o),
(886,467,cs),
(860,508,o),
(813,528,o),
(753,528,cs),
(658,528,o),
(573,476,o),
(528,391,c),
(521,391,l),
(514,481,o),
(456,528,o),
(367,528,cs),
(287,528,o),
(215,489,o),
(165,417,c),
(160,417,l),
(184,517,l),
(152,517,l),
(6,0,l)
);
}
);
width = 952;
}
);
leftKerningGroup = m;
rightKerningGroup = h;
unicode = 109;
},
{
glyphname = n;
layers = (
{
layerId = "B9F9456E-5A28-482F-A7A9-E399A36E312B";
shapes = (
{
closed = 1;
nodes = (
(207,0,l),
(295,306,l),
(301,329,o),
(312,345,o),
(324,357,cs),
(336,368,o),
(352,372,o),
(369,372,cs),
(388,372,o),
(401,365,o),
(408,350,cs),
(415,335,o),
(414,313,o),
(406,284,cs),
(325,0,l),
(566,0,l),
(656,299,l),
(684,402,o),
(672,466,o),
(641,506,cs),
(609,546,o),
(559,561,o),
(515,561,cs),
(461,561,o),
(388,532,o),
(353,489,c),
(345,489,l),
(356,551,l),
(123,551,l),
(-34,0,l)
);
}
);
width = 677;
},
{
layerId = "D36F68F1-AC05-4452-BDF9-AB186909F070";
shapes = (
{
closed = 1;
nodes = (
(89,0,l),
(171,298,l),
(187,349,o),
(213,389,o),
(246,417,cs),
(279,445,o),
(322,460,o),
(366,460,cs),
(413,460,o),
(445,444,o),
(462,414,cs),
(478,384,o),
(480,339,o),
(462,280,cs),
(382,0,l),
(476,0,l),
(558,286,ls),
(583,369,o),
(577,432,o),
(551,474,cs),
(523,516,o),
(474,537,o),
(414,537,cs),
(339,537,o),
(286,530,o),
(223,468,c),
(217,468,l),
(232,527,l),
(145,527,l),
(-6,0,l)
);
}
);
width = 608;
},
{
layerId = "35642718-112C-4883-8033-E2E6DF5C4D00";
shapes = (
{
closed = 1;
nodes = (
(42,0,l),
(123,294,ls),
(139,355,o),
(172,407,o),
(215,441,cs),
(257,475,o),
(308,494,o),
(363,494,cs),
(422,494,o),
(461,475,o),
(482,439,cs),
(502,403,o),
(504,348,o),
(484,279,cs),
(405,0,l),
(441,0,l),
(520,281,l),
(543,356,o),
(538,417,o),
(514,461,c),
(489,504,o),
(441,528,o),
(374,528,cs),
(288,528,o),
(215,488,o),
(164,418,c),
(159,418,l),
(182,517,l),
(152,517,l),
(5,0,l)
);
}
);
width = 580;
}
);
leftKerningGroup = m;
rightKerningGroup = h;
unicode = 110;
},
{
glyphname = o;
layers = (
{
layerId = "B9F9456E-5A28-482F-A7A9-E399A36E312B";
shapes = (
{
closed = 1;
nodes = (
(381,-9,o),
(455,14,o),
(511,57,cs),
(566,100,o),
(602,160,o),
(618,235,cs),
(638,334,o),
(620,415,o),
(573,472,cs),
(527,528,o),
(451,561,o),
(352,561,cs),
(261,561,o),
(188,536,o),
(133,495,cs),
(77,454,o),
(40,391,o),
(24,319,c),
(3,220,o),
(22,138,o),
(68,81,cs),
(114,24,o),
(190,-9,o),
(289,-9,cs)
);
},
{
closed = 1;
nodes = (
(288,177,o),
(276,182,o),
(268,194,c),
(259,205,o),
(254,221,o),
(258,242,c),
(261,279,o),
(267,313,o),
(281,337,cs),
(293,361,o),
(313,376,o),
(338,376,cs),
(353,376,o),
(366,370,o),
(374,359,cs),
(382,348,o),
(385,332,o),
(383,312,cs),
(380,273,o),
(374,240,o),
(361,216,cs),
(348,192,o),
(331,177,o),
(304,177,cs)
);
}
);
width = 641;
},
{
layerId = "D36F68F1-AC05-4452-BDF9-AB186909F070";
shapes = (
{
closed = 1;
nodes = (
(346,-10,o),
(419,22,o),
(473,76,cs),
(526,130,o),
(560,206,o),
(564,297,c),
(570,369,o),
(553,430,o),
(516,472,cs),
(478,514,o),
(420,537,o),
(347,537,cs),
(259,537,o),
(184,506,o),
(130,452,cs),
(77,398,o),
(44,320,o),
(39,231,cs),
(33,159,o),
(53,99,o),
(90,57,cs),
(128,15,o),
(186,-10,o),
(259,-10,cs)
);
},
{
closed = 1;
nodes = (
(224,66,o),
(189,79,o),
(166,104,cs),
(142,129,o),
(128,168,o),
(132,217,c),
(135,289,o),
(157,350,o),
(193,394,cs),
(228,437,o),
(279,461,o),
(339,461,cs),
(382,461,o),
(416,447,o),
(440,422,cs),
(464,397,o),
(476,358,o),
(474,310,c),
(470,239,o),
(448,178,o),
(413,135,cs),
(377,91,o),
(327,66,o),
(267,66,cs)
);
}
);
width = 604;
},
{
layerId = "35642718-112C-4883-8033-E2E6DF5C4D00";
shapes = (
{
closed = 1;
nodes = (
(331,-11,o),
(404,24,o),
(457,83,cs),
(510,142,o),
(542,225,o),
(543,322,cs),
(543,383,o),
(526,435,o),
(492,471,cs),
(458,507,o),
(408,528,o),
(344,528,cs),
(257,528,o),
(183,494,o),
(131,435,cs),
(77,375,o),
(46,293,o),
(45,197,cs),
(45,134,o),
(63,83,o),
(98,47,cs),
(133,10,o),
(183,-11,o),
(246,-11,cs)
);
},
{
closed = 1;
nodes = (
(198,22,o),
(153,38,o),
(124,69,cs),
(96,100,o),
(80,147,o),
(81,208,c),
(85,293,o),
(112,364,o),
(157,415,cs),
(202,466,o),
(265,495,o),
(338,495,cs),
(391,495,o),
(435,478,o),
(466,447,c),
(496,415,o),
(512,369,o),
(509,310,cs),
(505,225,o),
(478,154,o),
(434,103,cs),
(388,52,o),
(326,22,o),
(251,22,cs)
);
}
);
width = 590;
}
);
leftKerningGroup = c2;
rightKerningGroup = o;
unicode = 111;
},
{
glyphname = p;
layers = (
{
layerId = "B9F9456E-5A28-482F-A7A9-E399A36E312B";
shapes = (
{
closed = 1;
nodes = (
(158,-167,l),
(229,79,l),
(235,79,l),
(254,20,o),
(331,-10,o),
(388,-10,cs),
(469,-10,o),
(533,21,o),
(582,73,cs),
(629,124,o),
(661,191,o),
(674,266,cs),
(690,353,o),
(678,426,o),
(646,479,cs),
(615,531,o),
(563,561,o),
(494,561,cs),
(433,561,o),
(382,537,o),
(357,504,c),
(350,505,l),
(357,551,l),
(122,551,l),
(-84,-167,l)
);
},
{
closed = 1;
nodes = (
(314,180,o),
(296,191,o),
(286,207,cs),
(276,223,o),
(275,245,o),
(282,266,c),
(291,301,ls),
(304,344,o),
(322,373,o),
(369,373,cs),
(392,373,o),
(410,364,o),
(422,344,cs),
(434,324,o),
(437,296,o),
(429,257,c),
(422,233,o),
(409,214,o),
(393,200,cs),
(377,186,o),
(358,179,o),
(339,179,c)
);
}
);
width = 693;
},
{
layerId = "D36F68F1-AC05-4452-BDF9-AB186909F070";
shapes = (
{
closed = 1;
nodes = (
(42,-167,l),
(115,91,l),
(120,91,l),
(141,37,o),
(221,-10,o),
(303,-10,cs),
(384,-10,o),
(454,23,o),
(504,79,cs),
(553,135,o),
(584,214,o),
(589,309,cs),
(594,377,o),
(578,434,o),
(547,474,cs),
(514,514,o),
(465,537,o),
(405,537,cs),
(329,537,o),
(258,507,o),
(221,472,c),
(216,472,l),
(233,527,l),
(144,527,l),
(-52,-167,l)
);
},
{
closed = 1;
nodes = (
(239,69,o),
(199,89,o),
(176,124,cs),
(152,159,o),
(148,209,o),
(164,272,c),
(176,312,l),
(202,404,o),
(270,460,o),
(366,460,cs),
(409,460,o),
(442,445,o),
(464,418,cs),
(486,390,o),
(496,352,o),
(492,304,cs),
(489,236,o),
(469,177,o),
(434,135,cs),
(399,93,o),
(351,68,o),
(292,68,c)
);
}
);
width = 628;
},
{
layerId = "35642718-112C-4883-8033-E2E6DF5C4D00";
shapes = (
{
closed = 1;
nodes = (
(-5,-167,l),
(81,138,l),
(85,138,l),
(101,45,o),
(176,-9,o),
(268,-9,cs),
(352,-9,o),
(423,24,o),
(472,82,cs),
(522,140,o),
(553,224,o),
(555,327,cs),
(556,387,o),
(538,437,o),
(506,473,c),
(473,508,o),
(425,528,o),
(369,528,cs),
(288,528,o),
(209,497,o),
(160,417,c),
(157,417,l),
(184,517,l),
(152,517,l),
(-41,-167,l)
);
},
{
closed = 1;
nodes = (
(208,25,o),
(159,48,o),
(132,92,c),
(104,135,o),
(96,197,o),
(117,274,c),
(131,316,l),
(163,428,o),
(248,494,o),
(364,494,cs),
(415,494,o),
(454,477,o),
(480,446,cs),
(505,415,o),
(518,374,o),
(517,323,cs),
(515,236,o),
(492,162,o),
(450,110,cs),
(407,57,o),
(346,25,o),
(273,25,cs)
);
}
);
width = 602;
}
);
leftKerningGroup = m;
rightKerningGroup = b;
unicode = 112;
},
{
glyphname = q;
layers = (
{
layerId = "B9F9456E-5A28-482F-A7A9-E399A36E312B";
shapes = (
{
closed = 1;
nodes = (
(524,-167,l),
(731,551,l),
(498,551,l),
(465,472,l),
(459,472,l),
(436,532,o),
(365,562,o),
(304,562,cs),
(223,562,o),
(160,530,o),
(112,479,cs),
(64,428,o),
(32,360,o),
(18,285,c),
(4,200,o),
(14,125,o),
(47,73,c),
(78,20,o),
(131,-10,o),
(199,-10,cs),
(264,-10,o),
(313,14,o),
(338,47,c),
(347,47,l),
(284,-167,l)
);
},
{
closed = 1;
nodes = (
(303,178,o),
(283,188,o),
(271,208,cs),
(260,227,o),
(256,256,o),
(263,295,c),
(272,319,o),
(283,339,o),
(299,352,cs),
(314,365,o),
(333,373,o),
(354,372,c),
(378,372,o),
(398,360,o),
(408,344,cs),
(418,328,o),
(417,307,o),
(412,286,cs),
(403,249,l),
(395,229,o),
(386,211,o),
(375,199,cs),
(363,186,o),
(348,178,o),
(324,178,cs)
);
}
);
width = 697;
},
{
layerId = "D36F68F1-AC05-4452-BDF9-AB186909F070";
shapes = (
{
closed = 1;
nodes = (
(436,-167,l),
(632,527,l),
(544,527,l),
(514,436,l),
(509,436,l),
(482,491,o),
(409,536,o),
(325,536,cs),
(242,536,o),
(174,504,o),
(124,448,cs),
(75,392,o),
(44,312,o),
(39,217,cs),
(34,149,o),
(50,93,o),
(82,53,c),
(114,12,o),
(163,-10,o),
(223,-10,cs),
(299,-10,o),
(367,21,o),
(401,54,c),
(404,54,l),
(341,-167,l)
);
},
{
closed = 1;
nodes = (
(223,67,o),
(189,82,o),
(166,110,cs),
(143,137,o),
(132,175,o),
(136,223,cs),
(140,291,o),
(162,351,o),
(196,392,cs),
(230,433,o),
(279,458,o),
(338,458,cs),
(391,458,o),
(430,438,o),
(453,403,cs),
(476,367,o),
(480,316,o),
(464,255,c),
(452,214,l),
(439,167,o),
(415,131,o),
(383,106,cs),
(351,81,o),
(311,67,o),
(264,67,cs)
);
}
);
width = 627;
},
{
layerId = "35642718-112C-4883-8033-E2E6DF5C4D00";
shapes = (
{
closed = 1;
nodes = (
(400,-167,l),
(593,517,l),
(561,517,l),
(520,381,l),
(515,381,l),
(501,474,o),
(424,526,o),
(333,526,cs),
(249,526,o),
(180,494,o),
(130,436,cs),
(79,378,o),
(48,293,o),
(46,190,cs),
(46,130,o),
(63,80,o),
(96,45,c),
(128,9,o),
(175,-11,o),
(232,-11,cs),
(312,-11,o),
(390,24,o),
(439,99,c),
(441,99,l),
(363,-167,l)
);
},
{
closed = 1;
nodes = (
(189,23,o),
(151,41,o),
(124,71,cs),
(98,101,o),
(85,143,o),
(86,194,c),
(87,279,o),
(112,355,o),
(154,408,cs),
(197,460,o),
(257,492,o),
(330,492,cs),
(395,492,o),
(444,469,o),
(472,426,c),
(498,382,o),
(505,319,o),
(484,243,c),
(470,200,l),
(457,144,o),
(426,100,o),
(385,70,cs),
(345,40,o),
(295,23,o),
(240,23,cs)
);
}
);
width = 600;
}
);
leftKerningGroup = a2;
rightKerningGroup = a;
unicode = 113;
},
{
glyphname = r;
layers = (
{
layerId = "B9F9456E-5A28-482F-A7A9-E399A36E312B";
shapes = (
{
closed = 1;
nodes = (
(204,0,l),
(255,163,l),
(271,230,o),
(295,272,o),
(320,297,cs),
(345,321,o),
(373,330,o),
(397,330,cs),
(413,330,o),
(429,327,o),
(440,322,c),
(506,559,l),
(493,562,o),
(480,562,o),
(467,562,cs),
(418,562,o),
(361,521,o),
(335,464,c),
(326,464,l),
(340,551,l),
(124,551,l),
(-34,0,l)
);
}
);
width = 441;
},
{
layerId = "D36F68F1-AC05-4452-BDF9-AB186909F070";
shapes = (
{
closed = 1;
nodes = (
(88,0,l),
(171,287,l),
(189,340,o),
(216,380,o),
(248,406,cs),
(280,432,o),
(318,443,o),
(354,443,cs),
(373,443,o),
(391,442,o),
(402,435,c),
(429,528,l),
(418,532,o),
(400,535,o),
(380,535,cs),
(311,535,o),
(246,492,o),
(208,428,c),
(204,428,l),
(227,527,l),
(145,527,l),
(-6,0,l)
);
}
);
width = 372;
},
{
layerId = "35642718-112C-4883-8033-E2E6DF5C4D00";
shapes = (
{
closed = 1;
nodes = (
(41,0,l),
(138,336,l),
(155,384,o),
(185,423,o),
(220,449,cs),
(255,475,o),
(296,488,o),
(337,488,cs),
(357,488,o),
(378,485,o),
(387,480,c),
(399,516,l),
(388,520,o),
(368,524,o),
(345,524,cs),
(269,524,o),
(200,481,o),
(158,414,c),
(155,414,l),
(182,517,l),
(152,517,l),
(5,0,l)
);
}
);
width = 344;
}
);
leftKerningGroup = m;
rightKerningGroup = r;
unicode = 114;
},
{
glyphname = s;
layers = (
{
layerId = "B9F9456E-5A28-482F-A7A9-E399A36E312B";
shapes = (
{
closed = 1;
nodes = (
(341,-10,o),
(414,11,o),
(465,49,cs),
(515,87,o),
(540,140,o),
(540,208,cs),
(541,253,o),
(528,286,o),
(500,310,cs),
(472,334,o),
(427,350,o),
(366,361,c),
(335,368,o),
(317,369,o),
(308,373,cs),
(299,376,o),
(296,379,o),
(296,383,cs),
(296,395,o),
(306,402,o),
(322,402,cs),
(330,402,o),
(337,400,o),
(343,396,cs),
(349,391,o),
(351,384,o),
(351,379,c),
(574,379,l),
(580,438,o),
(560,482,o),
(518,514,cs),
(475,545,o),
(413,561,o),
(330,561,cs),
(247,561,o),
(176,540,o),
(127,503,cs),
(77,466,o),
(49,412,o),
(48,341,cs),
(47,296,o),
(62,264,o),
(93,240,cs),
(123,216,o),
(165,201,o),
(221,189,c),
(250,184,o),
(266,182,o),
(277,179,cs),
(288,176,o),
(290,174,o),
(290,171,cs),
(290,150,o),
(272,149,o),
(259,149,cs),
(244,149,o),
(232,152,o),
(224,157,cs),
(216,161,o),
(213,168,o),
(214,180,c),
(-18,180,l),
(-22,123,o),
(0,75,o),
(44,43,cs),
(88,10,o),
(155,-10,o),
(242,-10,cs)
);
}
);
width = 578;
},
{
layerId = "D36F68F1-AC05-4452-BDF9-AB186909F070";
shapes = (
{
closed = 1;
nodes = (
(294,-10,o),
(352,6,o),
(391,36,cs),
(431,66,o),
(452,110,o),
(452,166,cs),
(453,206,o),
(439,236,o),
(412,257,cs),
(385,278,o),
(347,292,o),
(296,303,c),
(253,314,o),
(223,322,o),
(205,334,cs),
(185,346,o),
(177,361,o),
(177,384,cs),
(177,436,o),
(219,468,o),
(286,468,cs),
(326,468,o),
(359,459,o),
(379,443,cs),
(400,426,o),
(411,402,o),
(410,373,c),
(500,373,l),
(504,424,o),
(485,464,o),
(449,492,cs),
(412,520,o),
(358,537,o),
(291,537,cs),
(227,537,o),
(175,520,o),
(139,492,cs),
(103,463,o),
(81,421,o),
(81,369,cs),
(81,333,o),
(93,307,o),
(120,285,cs),
(147,263,o),
(187,246,o),
(242,233,c),
(283,222,o),
(312,214,o),
(330,202,cs),
(347,190,o),
(354,175,o),
(354,151,cs),
(354,95,o),
(314,59,o),
(227,59,cs),
(182,59,o),
(149,69,o),
(126,89,c),
(102,108,o),
(91,135,o),
(95,168,c),
(4,168,l),
(0,115,o),
(18,71,o),
(54,40,c),
(90,8,o),
(148,-10,o),
(221,-10,cs)
);
}
);
width = 520;
},
{
layerId = "35642718-112C-4883-8033-E2E6DF5C4D00";
shapes = (
{
closed = 1;
nodes = (
(276,-10,o),
(327,4,o),
(362,31,cs),
(397,58,o),
(417,98,o),
(417,149,cs),
(417,188,o),
(401,216,o),
(376,236,cs),
(352,256,o),
(314,270,o),
(269,281,cs),
(221,292,o),
(186,304,o),
(163,320,cs),
(140,335,o),
(129,355,o),
(129,384,cs),
(130,453,o),
(184,494,o),
(271,494,cs),
(323,494,o),
(365,482,o),
(394,461,cs),
(422,440,o),
(435,410,o),
(432,371,c),
(469,371,l),
(473,418,o),
(455,457,o),
(420,484,cs),
(385,511,o),
(336,527,o),
(275,527,cs),
(219,527,o),
(175,512,o),
(144,487,cs),
(112,462,o),
(95,424,o),
(94,380,cs),
(94,348,o),
(106,323,o),
(131,302,cs),
(155,281,o),
(195,263,o),
(249,250,cs),
(296,238,o),
(328,227,o),
(349,212,cs),
(370,196,o),
(379,175,o),
(379,144,cs),
(378,72,o),
(331,23,o),
(214,23,cs),
(158,23,o),
(114,37,o),
(86,62,c),
(58,86,o),
(44,120,o),
(48,164,c),
(13,164,l),
(8,112,o),
(24,69,o),
(57,38,cs),
(90,7,o),
(144,-10,o),
(212,-10,cs)
);
}
);
width = 497;
}
);
leftKerningGroup = s2;
rightKerningGroup = s;
unicode = 115;
},
{
glyphname = t;
layers = (
{
layerId = "B9F9456E-5A28-482F-A7A9-E399A36E312B";
shapes = (
{
closed = 1;
nodes = (
(354,0,l),
(410,196,l),
(342,196,ls),
(330,196,o),
(323,198,o),
(319,202,cs),
(315,206,o),
(314,213,o),
(317,221,c),
(359,362,l),
(459,362,l),
(513,551,l),
(413,551,l),
(458,705,l),
(214,678,l),
(176,551,l),
(91,551,l),
(35,362,l),
(122,362,l),
(69,188,ls),
(52,131,o),
(58,83,o),
(84,51,cs),
(109,19,o),
(156,0,o),
(221,0,cs)
);
}
);
width = 469;
},
{
layerId = "D36F68F1-AC05-4452-BDF9-AB186909F070";
shapes = (
{
closed = 1;
nodes = (
(258,0,l),
(281,79,l),
(230,79,ls),
(206,79,o),
(190,82,o),
(180,91,cs),
(170,100,o),
(168,116,o),
(175,144,c),
(262,450,l),
(387,450,l),
(408,527,l),
(284,527,l),
(332,694,l),
(235,680,l),
(192,527,l),
(91,527,l),
(69,450,l),
(170,450,l),
(79,133,ls),
(67,90,o),
(70,57,o),
(87,34,cs),
(104,11,o),
(136,0,o),
(180,0,cs)
);
}
);
width = 364;
},
{
layerId = "35642718-112C-4883-8033-E2E6DF5C4D00";
shapes = (
{
closed = 1;
nodes = (
(221,0,l),
(231,33,l),
(186,33,ls),
(158,33,o),
(136,36,o),
(124,48,cs),
(112,59,o),
(110,78,o),
(120,114,c),
(225,485,l),
(360,485,l),
(368,517,l),
(234,517,l),
(283,690,l),
(245,681,l),
(199,517,l),
(92,517,l),
(84,485,l),
(189,485,l),
(84,111,l),
(74,74,o),
(76,46,o),
(90,28,cs),
(104,10,o),
(129,0,o),
(165,0,cs)
);
}
);
width = 323;
}
);
leftKerningGroup = t2;
rightKerningGroup = t;
unicode = 116;
},
{
glyphname = u;
layers = (
{
layerId = "B9F9456E-5A28-482F-A7A9-E399A36E312B";
shapes = (
{
closed = 1;
nodes = (
(225,-10,o),
(283,10,o),
(324,62,c),
(332,62,l),
(324,0,l),
(553,0,l),
(712,551,l),
(470,551,l),
(382,245,l),
(376,222,o),
(369,206,o),
(358,195,cs),
(347,183,o),
(333,178,o),
(312,178,cs),
(292,178,o),
(278,186,o),
(271,202,c),
(263,217,o),
(264,239,o),
(271,266,cs),
(352,551,l),
(112,551,l),
(23,254,l),
(1,173,o),
(1,106,o),
(25,61,cs),
(48,16,o),
(94,-10,o),
(161,-10,cs)
);
}
);
width = 677;
},
{
layerId = "D36F68F1-AC05-4452-BDF9-AB186909F070";
shapes = (
{
closed = 1;
nodes = (
(265,-11,o),
(338,18,o),
(381,59,c),
(385,59,l),
(376,0,l),
(463,0,l),
(613,527,l),
(519,527,l),
(436,229,ls),
(420,177,o),
(395,137,o),
(363,110,cs),
(330,82,o),
(290,67,o),
(243,67,cs),
(198,67,o),
(164,83,o),
(148,113,cs),
(131,143,o),
(129,189,o),
(146,249,cs),
(226,527,l),
(131,527,l),
(49,244,ls),
(25,161,o),
(30,98,o),
(56,55,cs),
(83,11,o),
(130,-11,o),
(194,-11,cs)
);
}
);
width = 608;
},
{
layerId = "35642718-112C-4883-8033-E2E6DF5C4D00";
shapes = (
{
closed = 1;
nodes = (
(279,-11,o),
(359,21,o),
(417,100,c),
(420,100,l),
(396,0,l),
(428,0,l),
(573,517,l),
(538,517,l),
(457,222,l),
(438,161,o),
(407,110,o),
(364,76,cs),
(322,42,o),
(271,23,o),
(215,23,cs),
(159,23,o),
(119,41,o),
(99,78,c),
(79,114,o),
(76,169,o),
(96,242,cs),
(175,517,l),
(139,517,l),
(58,240,ls),
(35,157,o),
(42,95,o),
(69,53,cs),
(96,11,o),
(144,-11,o),
(207,-11,cs)
);
}
);
width = 581;
}
);
leftKerningGroup = u;
rightKerningGroup = a;
unicode = 117;
},
{
glyphname = v;
layers = (
{
layerId = "B9F9456E-5A28-482F-A7A9-E399A36E312B";
shapes = (
{
closed = 1;
nodes = (
(393,0,l),
(713,551,l),
(461,551,l),
(341,286,l),
(300,192,l),
(292,192,l),
(298,290,l),
(311,551,l),
(75,551,l),
(110,0,l)
);
}
);
width = 634;
},
{
layerId = "D36F68F1-AC05-4452-BDF9-AB186909F070";
shapes = (
{
closed = 1;
nodes = (
(252,0,l),
(600,527,l),
(496,527,l),
(267,156,l),
(220,83,l),
(217,83,l),
(216,159,l),
(183,527,l),
(90,527,l),
(145,0,l)
);
}
);
width = 540;
},
{
layerId = "35642718-112C-4883-8033-E2E6DF5C4D00";
shapes = (
{
closed = 1;
nodes = (
(196,0,l),
(554,517,l),
(509,517,l),
(239,105,l),
(187,40,l),
(186,40,l),
(185,108,l),
(133,517,l),
(96,517,l),
(158,0,l)
);
}
);
width = 503;
}
);
unicode = 118;
},
{
glyphname = w;
layers = (
{
layerId = "B9F9456E-5A28-482F-A7A9-E399A36E312B";
shapes = (
{
closed = 1;
nodes = (
(333,0,l),
(382,129,l),
(435,267,l),
(442,267,l),
(422,130,l),
(396,0,l),
(702,0,l),
(978,551,l),
(734,551,l),
(655,372,l),
(588,213,l),
(583,213,l),
(608,369,l),
(650,551,l),
(402,551,l),
(330,369,l),
(274,219,l),
(266,219,l),
(283,372,l),
(314,551,l),
(82,551,l),
(36,0,l)
);
}
);
width = 903;
},
{
layerId = "D36F68F1-AC05-4452-BDF9-AB186909F070";
shapes = (
{
closed = 1;
nodes = (
(209,0,l),
(352,270,l),
(428,415,l),
(432,415,l),
(428,267,l),
(424,0,l),
(544,0,l),
(836,527,l),
(739,527,l),
(581,235,l),
(502,88,l),
(499,88,l),
(505,243,l),
(513,527,l),
(412,527,l),
(255,232,l),
(180,89,l),
(176,89,l),
(181,226,l),
(184,527,l),
(95,527,l),
(86,0,l)
);
}
);
width = 780;
},
{
layerId = "35642718-112C-4883-8033-E2E6DF5C4D00";
shapes = (
{
closed = 1;
nodes = (
(159,0,l),
(340,325,l),
(424,473,l),
(427,473,l),
(429,321,l),
(435,0,l),
(481,0,l),
(779,517,l),
(740,517,l),
(551,181,l),
(467,39,l),
(464,39,l),
(463,194,l),
(458,517,l),
(415,517,l),
(225,179,l),
(142,38,l),
(139,38,l),
(140,169,l),
(132,517,l),
(100,517,l),
(106,0,l)
);
}
);
width = 732;
}
);
leftKerningGroup = w2;
rightKerningGroup = w;
unicode = 119;
},
{
glyphname = x;
layers = (
{
layerId = "B9F9456E-5A28-482F-A7A9-E399A36E312B";
shapes = (
{
closed = 1;
nodes = (
(204,0,l),
(295,104,l),
(319,129,l),
(328,129,l),
(339,104,l),
(389,0,l),
(655,0,l),
(518,279,l),
(795,551,l),
(503,551,l),
(432,468,l),
(410,444,l),
(402,444,l),
(391,468,l),
(362,551,l),
(94,551,l),
(216,306,l),
(-83,0,l)
);
}
);
width = 728;
},
{
layerId = "D36F68F1-AC05-4452-BDF9-AB186909F070";
shapes = (
{
closed = 1;
nodes = (
(51,0,l),
(248,191,l),
(272,214,l),
(277,214,l),
(287,192,l),
(380,0,l),
(485,0,l),
(350,274,l),
(611,527,l),
(495,527,l),
(330,364,l),
(306,341,l),
(301,341,l),
(290,364,l),
(213,527,l),
(109,527,l),
(229,285,l),
(-63,0,l)
);
}
);
width = 572;
},
{
layerId = "35642718-112C-4883-8033-E2E6DF5C4D00";
shapes = (
{
closed = 1;
nodes = (
(-9,0,l),
(229,226,l),
(252,247,l),
(255,247,l),
(266,226,l),
(376,0,l),
(418,0,l),
(284,272,l),
(538,517,l),
(491,517,l),
(289,323,l),
(265,300,l),
(261,300,l),
(250,323,l),
(154,517,l),
(114,517,l),
(234,277,l),
(-55,0,l)
);
}
);
width = 510;
}
);
unicode = 120;
},
{
glyphname = y;
layers = (
{
layerId = "B9F9456E-5A28-482F-A7A9-E399A36E312B";
shapes = (
{
closed = 1;
nodes = (
(28,-167,ls),
(125,-167,o),
(198,-151,o),
(256,-119,cs),
(312,-86,o),
(357,-36,o),
(397,29,cs),
(713,551,l),
(444,551,l),
(334,310,l),
(316,253,l),
(308,253,l),
(310,311,l),
(314,551,l),
(75,551,l),
(135,16,l),
(144,84,l),
(138,70,l),
(129,55,o),
(117,45,o),
(101,38,cs),
(85,30,o),
(65,27,o),
(45,27,cs),
(-21,27,l),
(-74,-167,l)
);
}
);
width = 634;
},
{
layerId = "D36F68F1-AC05-4452-BDF9-AB186909F070";
shapes = (
{
closed = 1;
nodes = (
(-21,-167,ls),
(32,-167,o),
(73,-161,o),
(109,-143,cs),
(144,-125,o),
(174,-95,o),
(204,-51,cs),
(596,527,l),
(489,527,l),
(318,259,l),
(233,122,l),
(227,122,l),
(214,258,l),
(183,527,l),
(89,527,l),
(164,12,l),
(167,54,l),
(113,-24,l),
(96,-51,o),
(77,-68,o),
(57,-77,c),
(36,-85,o),
(12,-88,o),
(-19,-88,cs),
(-55,-88,l),
(-76,-167,l)
);
}
);
width = 537;
},
{
layerId = "35642718-112C-4883-8033-E2E6DF5C4D00";
shapes = (
{
closed = 1;
nodes = (
(-41,-167,ls),
(-5,-167,o),
(23,-164,o),
(51,-152,cs),
(78,-140,o),
(102,-119,o),
(127,-83,c),
(549,517,l),
(506,517,l),
(310,239,l),
(200,71,l),
(195,71,l),
(175,237,l),
(131,517,l),
(95,517,l),
(175,11,l),
(177,42,l),
(104,-61,l),
(80,-93,o),
(62,-112,o),
(39,-122,cs),
(16,-132,o),
(-9,-134,o),
(-45,-134,cs),
(-68,-134,l),
(-77,-167,l)
);
}
);
width = 498;
}
);
leftKerningGroup = y2;
rightKerningGroup = y;
unicode = 121;
},
{
glyphname = z;
layers = (
{
layerId = "B9F9456E-5A28-482F-A7A9-E399A36E312B";
shapes = (
{
closed = 1;
nodes = (
(470,0,l),
(524,189,l),
(316,189,l),
(568,389,l),
(614,551,l),
(123,551,l),
(70,362,l),
(244,362,l),
(-6,167,l),
(-54,0,l)
);
}
);
width = 575;
},
{
layerId = "D36F68F1-AC05-4452-BDF9-AB186909F070";
shapes = (
{
closed = 1;
nodes = (
(407,0,l),
(428,76,l),
(100,76,l),
(526,459,l),
(545,527,l),
(114,527,l),
(92,450,l),
(397,450,l),
(-30,68,l),
(-50,0,l)
);
}
);
width = 509;
},
{
layerId = "35642718-112C-4883-8033-E2E6DF5C4D00";
shapes = (
{
closed = 1;
nodes = (
(382,0,l),
(390,32,l),
(14,32,l),
(508,487,l),
(517,517,l),
(110,517,l),
(100,485,l),
(457,485,l),
(-40,29,l),
(-48,0,l)
);
}
);
width = 482;
}
);
leftKerningGroup = z2;
rightKerningGroup = z;
unicode = 122;
},
{
glyphname = braceleft;
layers = (
{
layerId = "B9F9456E-5A28-482F-A7A9-E399A36E312B";
shapes = (
{
closed = 1;
nodes = (
(299,-167,l),
(351,9,l),
(239,9,l),
(281,160,l),
(289,192,o),
(294,222,o),
(288,247,c),
(281,271,o),
(265,293,o),
(230,308,c),
(232,311,l),
(294,327,o),
(340,360,o),
(366,453,cs),
(414,616,l),
(526,616,l),
(578,793,l),
(400,793,ls),
(349,793,o),
(307,779,o),
(273,750,cs),
(240,721,o),
(218,685,o),
(205,643,cs),
(153,466,ls),
(141,422,o),
(110,390,o),
(69,390,cs),
(44,390,l),
(-8,215,l),
(17,215,ls),
(57,215,o),
(72,186,o),
(60,141,cs),
(14,-17,l),
(2,-60,o),
(3,-96,o),
(20,-124,cs),
(36,-151,o),
(69,-167,o),
(121,-167,cs)
);
}
);
width = 451;
},
{
layerId = "D36F68F1-AC05-4452-BDF9-AB186909F070";
shapes = (
{
closed = 1;
nodes = (
(239,-167,l),
(260,-94,l),
(105,-94,l),
(188,194,l),
(197,225,o),
(198,251,o),
(190,271,cs),
(182,291,o),
(169,305,o),
(146,310,c),
(146,314,l),
(190,319,o),
(235,356,o),
(254,427,cs),
(339,720,l),
(493,720,l),
(514,793,l),
(345,793,ls),
(320,793,o),
(300,786,o),
(285,772,cs),
(269,758,o),
(258,741,o),
(252,720,cs),
(169,431,ls),
(154,378,o),
(117,348,o),
(84,348,cs),
(51,348,l),
(29,272,l),
(62,272,ls),
(94,272,o),
(114,243,o),
(100,190,c),
(19,-94,l),
(14,-114,o),
(14,-133,o),
(22,-146,cs),
(30,-159,o),
(45,-167,o),
(70,-167,cs)
);
}
);
width = 395;
},
{
layerId = "35642718-112C-4883-8033-E2E6DF5C4D00";
shapes = (
{
closed = 1;
nodes = (
(215,-167,l),
(224,-135,l),
(54,-135,l),
(152,208,ls),
(160,237,o),
(160,263,o),
(153,281,cs),
(145,299,o),
(131,310,o),
(114,311,c),
(114,315,l),
(149,316,o),
(195,356,o),
(211,417,cs),
(310,761,l),
(480,761,l),
(489,793,l),
(324,793,ls),
(310,793,o),
(299,789,o),
(290,781,cs),
(281,773,o),
(274,763,o),
(270,750,c),
(176,417,ls),
(160,361,o),
(121,331,o),
(90,331,cs),
(54,331,l),
(45,294,l),
(80,294,ls),
(109,294,o),
(133,265,o),
(117,209,cs),
(22,-124,ls),
(19,-136,o),
(19,-147,o),
(23,-155,cs),
(27,-163,o),
(37,-167,o),
(50,-167,cs)
);
}
);
width = 373;
}
);
unicode = 123;
},
{
glyphname = bar;
layers = (
{
layerId = "B9F9456E-5A28-482F-A7A9-E399A36E312B";
shapes = (
{
closed = 1;
nodes = (
(169,-67,l),
(400,729,l),
(185,729,l),
(-44,-67,l)
);
}
);
width = 325;
},
{
layerId = "D36F68F1-AC05-4452-BDF9-AB186909F070";
shapes = (
{
closed = 1;
nodes = (
(81,-67,l),
(308,729,l),
(223,729,l),
(-5,-67,l)
);
}
);
width = 266;
},
{
layerId = "35642718-112C-4883-8033-E2E6DF5C4D00";
shapes = (
{
closed = 1;
nodes = (
(47,-67,l),
(272,729,l),
(237,729,l),
(12,-67,l)
);
}
);
width = 243;
}
);
unicode = 124;
},
{
glyphname = braceright;
layers = (
{
layerId = "B9F9456E-5A28-482F-A7A9-E399A36E312B";
shapes = (
{
closed = 1;
nodes = (
(172,793,l),
(120,617,l),
(232,617,l),
(190,466,l),
(182,434,o),
(177,404,o),
(183,380,cs),
(190,355,o),
(208,333,o),
(241,318,c),
(239,315,l),
(177,299,o),
(131,266,o),
(105,173,cs),
(57,10,l),
(-55,10,l),
(-107,-167,l),
(72,-167,ls),
(123,-167,o),
(165,-153,o),
(199,-124,cs),
(231,-95,o),
(253,-59,o),
(266,-17,cs),
(318,160,ls),
(330,204,o),
(361,236,o),
(402,236,cs),
(427,236,l),
(479,411,l),
(454,411,ls),
(414,411,o),
(399,440,o),
(411,485,cs),
(457,643,l),
(471,686,o),
(468,722,o),
(451,750,cs),
(435,777,o),
(402,793,o),
(350,793,cs)
);
}
);
width = 451;
},
{
layerId = "D36F68F1-AC05-4452-BDF9-AB186909F070";
shapes = (
{
closed = 1;
nodes = (
(184,793,l),
(163,720,l),
(317,720,l),
(234,432,l),
(226,401,o),
(224,375,o),
(232,355,cs),
(240,335,o),
(254,321,o),
(275,316,c),
(275,312,l),
(232,307,o),
(187,270,o),
(168,199,cs),
(83,-94,l),
(-71,-94,l),
(-92,-167,l),
(78,-167,ls),
(103,-167,o),
(123,-160,o),
(138,-146,cs),
(153,-132,o),
(164,-115,o),
(170,-94,cs),
(252,195,l),
(269,248,o),
(304,278,o),
(339,278,cs),
(371,278,l),
(393,354,l),
(360,354,ls),
(328,354,o),
(308,383,o),
(321,436,c),
(403,720,l),
(410,740,o),
(409,759,o),
(401,772,cs),
(393,785,o),
(377,793,o),
(352,793,cs)
);
}
);
width = 395;
},
{
layerId = "35642718-112C-4883-8033-E2E6DF5C4D00";
shapes = (
{
closed = 1;
nodes = (
(189,793,l),
(180,761,l),
(350,761,l),
(251,418,ls),
(243,389,o),
(244,364,o),
(252,346,cs),
(259,328,o),
(273,316,o),
(290,315,c),
(290,311,l),
(255,310,o),
(209,270,o),
(192,209,cs),
(94,-135,l),
(-76,-135,l),
(-86,-167,l),
(80,-167,ls),
(94,-167,o),
(106,-163,o),
(115,-155,cs),
(124,-147,o),
(130,-137,o),
(133,-124,c),
(227,209,ls),
(244,265,o),
(283,295,o),
(314,295,cs),
(350,295,l),
(359,332,l),
(324,332,ls),
(295,332,o),
(271,361,o),
(286,417,cs),
(381,750,l),
(385,762,o),
(385,773,o),
(381,781,cs),
(377,789,o),
(369,793,o),
(354,793,cs)
);
}
);
width = 373;
}
);
unicode = 125;
},
{
glyphname = asciitilde;
layers = (
{
layerId = "B9F9456E-5A28-482F-A7A9-E399A36E312B";
shapes = (
{
closed = 1;
nodes = (
(185,265,l),
(185,284,o),
(208,311,o),
(237,311,cs),
(262,311,o),
(278,298,o),
(300,283,cs),
(322,268,o),
(348,255,o),
(395,255,cs),
(427,255,o),
(465,266,o),
(499,297,cs),
(534,328,o),
(565,378,o),
(582,455,c),
(493,455,l),
(488,436,o),
(470,410,o),
(427,410,cs),
(399,410,o),
(381,423,o),
(361,436,cs),
(341,449,o),
(319,463,o),
(280,463,cs),
(249,463,o),
(213,453,o),
(179,424,cs),
(144,395,o),
(112,345,o),
(94,265,c)
);
}
);
width = 636;
},
{
layerId = "D36F68F1-AC05-4452-BDF9-AB186909F070";
shapes = (
{
closed = 1;
nodes = (
(152,291,l),
(159,324,o),
(183,349,o),
(212,349,cs),
(236,349,o),
(257,336,o),
(280,324,c),
(303,311,o),
(331,299,o),
(364,299,cs),
(391,299,o),
(420,307,o),
(445,328,cs),
(469,348,o),
(488,382,o),
(499,430,c),
(453,430,l),
(444,394,o),
(420,372,o),
(383,372,cs),
(355,372,o),
(333,384,o),
(310,397,c),
(286,409,o),
(263,421,o),
(232,421,cs),
(207,421,o),
(181,413,o),
(158,393,cs),
(135,372,o),
(116,339,o),
(106,291,c)
);
}
);
width = 636;
},
{
layerId = "35642718-112C-4883-8033-E2E6DF5C4D00";
shapes = (
{
closed = 1;
nodes = (
(141,301,l),
(149,341,o),
(173,364,o),
(202,364,cs),
(225,364,o),
(248,352,o),
(273,340,cs),
(297,328,o),
(325,316,o),
(353,316,cs),
(378,316,o),
(403,324,o),
(423,341,cs),
(443,357,o),
(459,384,o),
(467,421,c),
(438,421,l),
(427,377,o),
(401,357,o),
(366,357,cs),
(339,357,o),
(314,369,o),
(290,381,cs),
(265,393,o),
(241,405,o),
(213,405,cs),
(190,405,o),
(169,396,o),
(151,380,cs),
(133,363,o),
(119,337,o),
(111,301,c)
);
}
);
width = 636;
}
);
unicode = 126;
},
{
glyphname = exclamdown;
layers = (
{
layerId = "B9F9456E-5A28-482F-A7A9-E399A36E312B";
shapes = (
{
closed = 1;
nodes = (
(104,308,l),
(-23,67,l),
(-93,-178,l),
(141,-178,l),
(211,67,l),
(223,308,l)
);
},
{
closed = 1;
nodes = (
(135,560,o),
(80,517,o),
(79,444,cs),
(78,388,o),
(123,351,o),
(191,351,cs),
(275,351,o),
(331,395,o),
(332,468,cs),
(333,524,o),
(289,560,o),
(220,560,cs)
);
}
);
width = 309;
},
{
layerId = "D36F68F1-AC05-4452-BDF9-AB186909F070";
shapes = (
{
closed = 1;
nodes = (
(114,324,l),
(8,36,l),
(-60,-202,l),
(34,-202,l),
(102,36,l),
(162,324,l)
);
},
{
closed = 1;
nodes = (
(151,534,o),
(126,513,o),
(126,480,cs),
(125,452,o),
(146,433,o),
(177,433,cs),
(214,433,o),
(240,455,o),
(241,488,cs),
(241,516,o),
(220,534,o),
(188,534,cs)
);
}
);
width = 241;
},
{
layerId = "35642718-112C-4883-8033-E2E6DF5C4D00";
shapes = (
{
closed = 1;
nodes = (
(118,331,l),
(21,24,l),
(-46,-212,l),
(-8,-212,l),
(60,24,l),
(138,331,l)
);
},
{
closed = 1;
nodes = (
(156,524,o),
(144,513,o),
(144,494,cs),
(144,477,o),
(155,466,o),
(172,466,cs),
(191,466,o),
(204,477,o),
(204,496,cs),
(204,513,o),
(192,524,o),
(175,524,cs)
);
}
);
width = 215;
}
);
unicode = 161;
},
{
glyphname = cent;
layers = (
{
layerId = "B9F9456E-5A28-482F-A7A9-E399A36E312B";
shapes = (
{
closed = 1;
nodes = (
(393,80,o),
(465,102,o),
(520,142,cs),
(574,181,o),
(609,236,o),
(620,305,c),
(389,305,l),
(380,289,o),
(371,282,o),
(361,276,cs),
(351,270,o),
(342,269,o),
(330,269,cs),
(317,269,o),
(306,274,o),
(298,283,cs),
(290,291,o),
(284,302,o),
(285,318,c),
(284,338,o),
(287,373,o),
(300,405,cs),
(312,436,o),
(333,461,o),
(366,461,cs),
(377,461,o),
(389,458,o),
(398,450,cs),
(406,442,o),
(412,431,o),
(412,415,c),
(647,415,l),
(654,487,o),
(632,547,o),
(586,588,c),
(538,628,o),
(467,650,o),
(379,650,cs),
(278,650,o),
(195,616,o),
(138,556,cs),
(81,495,o),
(48,407,o),
(47,299,cs),
(47,226,o),
(72,170,o),
(118,134,cs),
(165,98,o),
(229,80,o),
(308,80,cs)
);
},
{
closed = 1;
nodes = (
(320,0,l),
(371,180,l),
(218,180,l),
(168,0,l)
);
},
{
closed = 1;
nodes = (
(472,536,l),
(527,729,l),
(375,729,l),
(320,536,l)
);
}
);
width = 633;
},
{
layerId = "D36F68F1-AC05-4452-BDF9-AB186909F070";
shapes = (
{
closed = 1;
nodes = (
(361,91,o),
(422,110,o),
(470,143,cs),
(518,176,o),
(555,224,o),
(568,281,c),
(476,281,l),
(464,246,o),
(441,218,o),
(411,199,cs),
(380,179,o),
(343,168,o),
(303,168,cs),
(260,168,o),
(226,181,o),
(204,206,c),
(180,231,o),
(168,268,o),
(168,316,c),
(172,383,o),
(192,444,o),
(229,489,cs),
(264,533,o),
(314,561,o),
(377,561,cs),
(414,561,o),
(448,550,o),
(473,530,c),
(497,509,o),
(513,481,o),
(513,446,c),
(604,446,l),
(608,502,o),
(587,551,o),
(548,585,cs),
(509,619,o),
(453,639,o),
(385,639,cs),
(297,639,o),
(221,605,o),
(166,548,cs),
(112,491,o),
(77,409,o),
(75,310,cs),
(74,242,o),
(93,186,o),
(132,149,cs),
(171,112,o),
(226,91,o),
(294,91,cs)
);
},
{
closed = 1;
nodes = (
(268,0,l),
(304,133,l),
(237,133,l),
(201,0,l)
);
},
{
closed = 1;
nodes = (
(435,593,l),
(473,729,l),
(406,729,l),
(368,593,l)
);
}
);
width = 607;
},
{
layerId = "35642718-112C-4883-8033-E2E6DF5C4D00";
shapes = (
{
closed = 1;
nodes = (
(349,96,o),
(406,114,o),
(452,144,cs),
(498,174,o),
(532,219,o),
(549,272,c),
(512,272,l),
(496,229,o),
(467,193,o),
(430,168,cs),
(393,143,o),
(345,129,o),
(293,129,cs),
(240,129,o),
(197,145,o),
(167,177,cs),
(137,208,o),
(123,255,o),
(124,315,c),
(127,400,o),
(155,473,o),
(200,523,cs),
(245,573,o),
(309,601,o),
(382,601,cs),
(430,601,o),
(471,586,o),
(503,561,cs),
(534,536,o),
(552,499,o),
(555,458,c),
(588,458,l),
(589,509,o),
(569,552,o),
(533,584,cs),
(498,615,o),
(448,634,o),
(388,634,cs),
(304,634,o),
(231,601,o),
(177,545,cs),
(124,489,o),
(90,409,o),
(87,314,cs),
(85,249,o),
(103,194,o),
(139,156,cs),
(174,118,o),
(225,96,o),
(289,96,cs)
);
},
{
closed = 1;
nodes = (
(247,0,l),
(279,114,l),
(246,114,l),
(214,0,l)
);
},
{
closed = 1;
nodes = (
(420,616,l),
(450,729,l),
(417,729,l),
(387,616,l)
);
}
);
width = 597;
}
);
unicode = 162;
},
{
glyphname = sterling;
layers = (
{
layerId = "B9F9456E-5A28-482F-A7A9-E399A36E312B";
shapes = (
{
closed = 1;
nodes = (
(589,0,l),
(656,231,l),
(460,231,l),
(451,199,l),
(308,199,l),
(327,262,l),
(465,262,l),
(514,434,l),
(377,434,l),
(390,483,l),
(398,510,o),
(414,527,o),
(446,527,cs),
(462,527,o),
(472,522,o),
(477,514,cs),
(482,506,o),
(485,495,o),
(481,482,c),
(481,481,l),
(710,481,l),
(711,478,l),
(731,557,o),
(717,621,o),
(673,666,cs),
(630,710,o),
(558,736,o),
(463,736,cs),
(392,736,o),
(327,721,o),
(272,685,cs),
(216,649,o),
(176,594,o),
(151,514,c),
(129,434,l),
(61,434,l),
(11,262,l),
(78,262,l),
(60,199,l),
(-7,199,l),
(-65,0,l)
);
}
);
width = 715;
},
{
layerId = "D36F68F1-AC05-4452-BDF9-AB186909F070";
shapes = (
{
closed = 1;
nodes = (
(504,0,l),
(559,193,l),
(479,193,l),
(448,82,l),
(136,82,l),
(205,321,l),
(425,321,l),
(447,394,l),
(226,394,l),
(262,527,l),
(286,606,o),
(337,652,o),
(418,652,cs),
(467,652,o),
(504,639,o),
(525,612,cs),
(545,585,o),
(551,546,o),
(538,498,c),
(533,482,l),
(624,482,l),
(629,498,l),
(649,570,o),
(639,629,o),
(603,671,cs),
(567,713,o),
(508,736,o),
(427,736,cs),
(366,736,o),
(312,720,o),
(267,688,cs),
(222,656,o),
(189,608,o),
(169,540,cs),
(129,394,l),
(51,394,l),
(29,321,l),
(108,321,l),
(41,82,l),
(-38,82,l),
(-63,0,l)
);
}
);
width = 632;
},
{
layerId = "35642718-112C-4883-8033-E2E6DF5C4D00";
shapes = (
{
closed = 1;
nodes = (
(472,0,l),
(523,178,l),
(488,178,l),
(447,36,l),
(69,36,l),
(157,344,l),
(411,344,l),
(422,379,l),
(167,379,l),
(211,545,l),
(241,644,o),
(307,702,o),
(407,702,cs),
(468,702,o),
(516,685,o),
(544,651,cs),
(572,617,o),
(578,567,o),
(561,504,c),
(554,483,l),
(591,483,l),
(597,506,l),
(617,575,o),
(609,632,o),
(577,672,cs),
(544,712,o),
(488,736,o),
(412,736,cs),
(356,736,o),
(305,720,o),
(265,689,cs),
(225,658,o),
(195,612,o),
(177,551,cs),
(130,379,l),
(47,379,l),
(37,344,l),
(121,344,l),
(34,36,l),
(-50,36,l),
(-61,0,l)
);
}
);
width = 599;
}
);
unicode = 163;
},
{
glyphname = currency;
layers = (
{
layerId = "B9F9456E-5A28-482F-A7A9-E399A36E312B";
shapes = (
{
closed = 1;
nodes = (
(280,144,l),
(304,143,o),
(328,140,o),
(359,140,cs),
(383,140,o),
(415,141,o),
(440,144,c),
(531,48,l),
(667,180,l),
(584,267,l),
(595,296,o),
(602,324,o),
(603,352,c),
(603,383,o),
(604,409,o),
(592,440,c),
(685,526,l),
(564,658,l),
(460,559,l),
(432,564,o),
(402,566,o),
(383,566,cs),
(363,566,o),
(332,564,o),
(305,559,c),
(213,658,l),
(77,526,l),
(160,440,l),
(149,413,o),
(142,385,o),
(141,352,cs),
(140,329,o),
(137,299,o),
(148,267,c),
(55,180,l),
(177,48,l)
);
},
{
closed = 1;
nodes = (
(360,318,o),
(350,321,o),
(343,326,cs),
(336,331,o),
(333,340,o),
(333,351,cs),
(333,362,o),
(338,370,o),
(346,377,cs),
(353,384,o),
(362,387,o),
(371,387,cs),
(383,387,o),
(392,384,o),
(399,378,cs),
(406,372,o),
(409,363,o),
(409,351,cs),
(409,342,o),
(404,332,o),
(397,327,cs),
(389,322,o),
(380,318,o),
(369,318,cs)
);
}
);
width = 701;
},
{
layerId = "D36F68F1-AC05-4452-BDF9-AB186909F070";
shapes = (
{
closed = 1;
nodes = (
(253,188,l),
(282,169,o),
(319,157,o),
(360,157,cs),
(399,157,o),
(438,168,o),
(469,189,c),
(571,80,l),
(627,133,l),
(529,239,l),
(553,270,o),
(566,310,o),
(570,350,c),
(573,393,o),
(561,431,o),
(541,463,c),
(650,567,l),
(600,622,l),
(487,512,l),
(456,533,o),
(418,542,o),
(381,542,cs),
(340,542,o),
(303,531,o),
(272,512,c),
(172,622,l),
(115,567,l),
(213,463,l),
(189,432,o),
(173,393,o),
(172,350,c),
(168,309,o),
(179,270,o),
(199,239,c),
(91,133,l),
(142,80,l)
);
},
{
closed = 1;
nodes = (
(330,233,o),
(301,245,o),
(281,266,c),
(260,286,o),
(250,317,o),
(251,350,c),
(254,385,o),
(268,414,o),
(290,435,cs),
(313,456,o),
(342,468,o),
(377,468,cs),
(412,468,o),
(441,456,o),
(461,435,cs),
(481,414,o),
(492,385,o),
(491,350,c),
(489,317,o),
(474,286,o),
(452,266,cs),
(430,245,o),
(400,233,o),
(365,233,cs)
);
}
);
width = 694;
},
{
layerId = "35642718-112C-4883-8033-E2E6DF5C4D00";
shapes = (
{
closed = 1;
nodes = (
(242,205,l),
(274,180,o),
(315,164,o),
(360,164,cs),
(405,164,o),
(448,179,o),
(480,206,c),
(586,93,l),
(612,115,l),
(506,229,l),
(536,260,o),
(553,304,o),
(556,349,cs),
(559,397,o),
(544,440,o),
(520,472,c),
(635,583,l),
(614,607,l),
(497,494,l),
(465,521,o),
(424,533,o),
(379,533,cs),
(331,533,o),
(290,518,o),
(258,494,c),
(155,607,l),
(129,583,l),
(233,472,l),
(205,440,o),
(185,396,o),
(182,349,cs),
(179,301,o),
(195,258,o),
(218,229,c),
(105,115,l),
(128,93,l)
);
},
{
closed = 1;
nodes = (
(318,199,o),
(280,214,o),
(255,242,cs),
(231,269,o),
(217,306,o),
(218,349,c),
(221,393,o),
(239,431,o),
(267,458,cs),
(295,485,o),
(334,501,o),
(377,501,cs),
(421,501,o),
(457,485,o),
(484,458,cs),
(511,431,o),
(524,393,o),
(521,349,c),
(520,306,o),
(501,269,o),
(472,242,c),
(444,214,o),
(406,199,o),
(362,199,cs)
);
}
);
width = 691;
}
);
unicode = 164;
},
{
glyphname = yen;
layers = (
{
layerId = "B9F9456E-5A28-482F-A7A9-E399A36E312B";
shapes = (
{
closed = 1;
nodes = (
(436,0,l),
(454,63,l),
(633,63,l),
(679,220,l),
(499,220,l),
(514,268,l),
(695,268,l),
(738,425,l),
(661,425,l),
(904,729,l),
(619,729,l),
(436,464,l),
(426,464,l),
(402,729,l),
(135,729,l),
(209,425,l),
(130,425,l),
(84,268,l),
(261,268,l),
(247,220,l),
(70,220,l),
(24,63,l),
(202,63,l),
(185,0,l)
);
}
);
width = 781;
},
{
layerId = "D36F68F1-AC05-4452-BDF9-AB186909F070";
shapes = (
{
closed = 1;
nodes = (
(308,0,l),
(346,132,l),
(537,132,l),
(556,200,l),
(366,200,l),
(393,297,l),
(584,297,l),
(603,365,l),
(458,365,l),
(778,729,l),
(663,729,l),
(365,377,l),
(359,377,l),
(263,729,l),
(162,729,l),
(274,365,l),
(128,365,l),
(109,297,l),
(295,297,l),
(268,200,l),
(82,200,l),
(62,132,l),
(248,132,l),
(211,0,l)
);
}
);
width = 677;
},
{
layerId = "35642718-112C-4883-8033-E2E6DF5C4D00";
shapes = (
{
closed = 1;
nodes = (
(259,0,l),
(304,159,l),
(500,159,l),
(508,192,l),
(313,192,l),
(346,309,l),
(542,309,l),
(550,342,l),
(378,342,l),
(727,729,l),
(680,729,l),
(337,342,l),
(333,342,l),
(208,729,l),
(172,729,l),
(299,342,l),
(128,342,l),
(120,309,l),
(309,309,l),
(276,192,l),
(86,192,l),
(78,159,l),
(267,159,l),
(222,0,l)
);
}
);
width = 636;
}
);
unicode = 165;
},
{
glyphname = brokenbar;
layers = (
{
layerId = "B9F9456E-5A28-482F-A7A9-E399A36E312B";
shapes = (
{
closed = 1;
nodes = (
(297,370,l),
(400,729,l),
(185,729,l),
(84,370,l)
);
},
{
closed = 1;
nodes = (
(169,-67,l),
(273,292,l),
(58,292,l),
(-44,-67,l)
);
}
);
width = 326;
},
{
layerId = "D36F68F1-AC05-4452-BDF9-AB186909F070";
shapes = (
{
closed = 1;
nodes = (
(215,404,l),
(308,729,l),
(223,729,l),
(129,404,l)
);
},
{
closed = 1;
nodes = (
(81,-67,l),
(174,258,l),
(87,258,l),
(-5,-67,l)
);
}
);
width = 266;
},
{
layerId = "35642718-112C-4883-8033-E2E6DF5C4D00";
shapes = (
{
closed = 1;
nodes = (
(183,417,l),
(272,729,l),
(237,729,l),
(148,417,l)
);
},
{
closed = 1;
nodes = (
(47,-67,l),
(135,245,l),
(99,245,l),
(12,-67,l)
);
}
);
width = 243;
}
);
unicode = 166;
},
{
glyphname = section;
layers = (
{
layerId = "B9F9456E-5A28-482F-A7A9-E399A36E312B";
shapes = (
{
closed = 1;
nodes = (
(339,-10,o),
(398,5,o),
(443,37,cs),
(488,68,o),
(518,113,o),
(519,172,cs),
(519,199,o),
(513,232,o),
(498,256,c),
(554,277,o),
(583,323,o),
(583,376,c),
(584,411,o),
(572,436,o),
(548,460,cs),
(523,484,o),
(486,505,o),
(434,525,c),
(386,546,o),
(357,558,o),
(357,569,cs),
(357,578,o),
(364,579,o),
(368,579,cs),
(375,579,o),
(387,579,o),
(395,576,c),
(402,572,o),
(408,564,o),
(404,548,c),
(627,548,l),
(629,611,o),
(599,657,o),
(552,689,cs),
(504,721,o),
(439,736,o),
(366,736,cs),
(301,736,o),
(241,720,o),
(197,688,cs),
(152,655,o),
(125,607,o),
(124,546,cs),
(124,522,o),
(132,496,o),
(150,473,c),
(93,446,o),
(58,398,o),
(58,346,c),
(57,309,o),
(73,280,o),
(100,257,cs),
(127,234,o),
(160,217,o),
(200,201,c),
(235,185,o),
(255,178,o),
(267,172,cs),
(279,166,o),
(282,162,o),
(282,157,cs),
(282,146,o),
(273,147,o),
(270,147,cs),
(257,147,o),
(243,150,o),
(234,155,cs),
(225,159,o),
(219,168,o),
(220,179,c),
(-8,179,l),
(-12,114,o),
(24,66,o),
(78,35,cs),
(133,4,o),
(206,-10,o),
(278,-10,cs)
);
},
{
closed = 1;
nodes = (
(330,352,o),
(307,363,o),
(300,366,c),
(279,378,o),
(280,386,o),
(284,398,c),
(287,391,o),
(282,391,o),
(278,394,c),
(294,386,o),
(310,378,o),
(318,373,c),
(345,360,o),
(350,350,o),
(343,341,c),
(340,345,o),
(342,344,o),
(349,343,c)
);
}
);
width = 584;
},
{
layerId = "D36F68F1-AC05-4452-BDF9-AB186909F070";
shapes = (
{
closed = 1;
nodes = (
(300,-10,o),
(352,5,o),
(389,34,cs),
(426,63,o),
(450,107,o),
(450,162,cs),
(450,187,o),
(443,212,o),
(428,231,c),
(485,258,o),
(516,302,o),
(517,361,cs),
(517,398,o),
(502,426,o),
(478,448,cs),
(454,470,o),
(417,486,o),
(373,499,cs),
(300,522,o),
(259,543,o),
(259,580,cs),
(260,635,o),
(301,668,o),
(366,668,cs),
(403,668,o),
(434,659,o),
(455,643,cs),
(476,626,o),
(486,603,o),
(481,572,c),
(571,572,l),
(575,623,o),
(553,664,o),
(517,692,cs),
(481,720,o),
(430,736,o),
(369,736,cs),
(317,736,o),
(266,723,o),
(228,695,cs),
(191,667,o),
(167,627,o),
(166,572,cs),
(166,543,o),
(173,519,o),
(196,498,c),
(139,471,o),
(101,421,o),
(101,366,cs),
(101,331,o),
(114,304,o),
(139,284,c),
(163,263,o),
(199,248,o),
(244,233,cs),
(284,220,o),
(311,210,o),
(330,198,c),
(348,185,o),
(356,173,o),
(356,153,cs),
(356,90,o),
(311,58,o),
(238,58,cs),
(197,58,o),
(163,69,o),
(140,88,cs),
(117,107,o),
(106,134,o),
(110,169,c),
(21,169,l),
(17,113,o),
(37,68,o),
(75,37,cs),
(114,6,o),
(171,-10,o),
(240,-10,cs)
);
},
{
closed = 1;
nodes = (
(342,285,o),
(310,297,o),
(281,305,cs),
(218,324,o),
(192,344,o),
(193,381,c),
(193,420,o),
(216,444,o),
(252,464,c),
(272,451,o),
(297,441,o),
(330,432,c),
(394,412,o),
(423,390,o),
(420,347,c),
(419,311,o),
(401,288,o),
(369,269,c)
);
}
);
width = 551;
},
{
layerId = "35642718-112C-4883-8033-E2E6DF5C4D00";
shapes = (
{
closed = 1;
nodes = (
(285,-10,o),
(334,5,o),
(369,34,cs),
(404,62,o),
(424,105,o),
(424,158,cs),
(424,183,o),
(415,204,o),
(400,221,c),
(457,250,o),
(490,295,o),
(490,355,cs),
(490,394,o),
(476,422,o),
(451,443,cs),
(426,463,o),
(390,477,o),
(349,489,cs),
(266,512,o),
(221,536,o),
(221,585,cs),
(222,657,o),
(277,703,o),
(365,703,cs),
(413,703,o),
(453,690,o),
(479,669,cs),
(505,648,o),
(517,618,o),
(512,582,c),
(549,582,l),
(553,627,o),
(536,666,o),
(504,693,cs),
(472,720,o),
(426,736,o),
(370,736,cs),
(322,736,o),
(275,724,o),
(241,698,cs),
(207,672,o),
(184,634,o),
(183,582,cs),
(183,551,o),
(192,529,o),
(213,508,c),
(157,481,o),
(119,430,o),
(118,374,cs),
(118,341,o),
(131,314,o),
(155,294,cs),
(179,274,o),
(214,259,o),
(260,246,cs),
(303,234,o),
(333,223,o),
(354,208,cs),
(375,193,o),
(385,176,o),
(385,152,cs),
(384,68,o),
(328,23,o),
(227,23,cs),
(174,23,o),
(131,37,o),
(103,62,cs),
(76,86,o),
(62,121,o),
(67,165,c),
(33,165,l),
(28,113,o),
(42,69,o),
(75,38,cs),
(107,7,o),
(157,-10,o),
(225,-10,cs)
);
},
{
closed = 1;
nodes = (
(349,259,o),
(314,270,o),
(275,281,cs),
(195,302,o),
(156,327,o),
(156,374,cs),
(157,430,o),
(190,466,o),
(241,491,c),
(264,476,o),
(292,467,o),
(335,455,cs),
(415,432,o),
(451,405,o),
(451,349,cs),
(451,298,o),
(425,265,o),
(377,240,c)
);
}
);
width = 538;
}
);
unicode = 167;
},
{
glyphname = copyright;
layers = (
{
layerId = "B9F9456E-5A28-482F-A7A9-E399A36E312B";
shapes = (
{
closed = 1;
nodes = (
(572,-9,o),
(669,28,o),
(740,93,cs),
(811,158,o),
(852,252,o),
(853,365,cs),
(854,478,o),
(815,572,o),
(746,637,cs),
(677,702,o),
(580,740,o),
(467,740,cs),
(354,740,o),
(257,702,o),
(186,637,cs),
(115,572,o),
(72,478,o),
(71,365,cs),
(70,252,o),
(111,158,o),
(180,93,cs),
(249,28,o),
(346,-9,o),
(459,-9,cs)
);
},
{
closed = 1;
nodes = (
(372,79,o),
(298,108,o),
(247,158,cs),
(195,208,o),
(166,278,o),
(167,365,cs),
(168,452,o),
(199,524,o),
(251,574,cs),
(304,624,o),
(378,651,o),
(466,651,cs),
(554,651,o),
(626,624,o),
(678,574,cs),
(730,524,o),
(758,452,o),
(757,365,cs),
(756,278,o),
(726,208,o),
(674,158,cs),
(621,108,o),
(548,79,o),
(460,79,cs)
);
},
{
closed = 1;
nodes = (
(524,160,o),
(577,176,o),
(614,205,c),
(652,233,o),
(675,273,o),
(677,324,c),
(509,324,l),
(504,305,o),
(491,295,o),
(467,295,cs),
(454,295,o),
(442,298,o),
(434,310,cs),
(426,322,o),
(421,339,o),
(421,366,cs),
(421,387,o),
(425,404,o),
(433,416,cs),
(440,428,o),
(452,435,o),
(469,435,cs),
(492,435,o),
(506,424,o),
(509,404,c),
(678,404,l),
(678,451,o),
(659,493,o),
(624,523,cs),
(588,553,o),
(537,570,o),
(473,570,cs),
(405,570,o),
(349,550,o),
(310,515,cs),
(270,480,o),
(248,430,o),
(247,366,cs),
(246,303,o),
(268,253,o),
(304,217,cs),
(341,181,o),
(398,160,o),
(463,160,cs)
);
}
);
width = 876;
},
{
layerId = "D36F68F1-AC05-4452-BDF9-AB186909F070";
shapes = (
{
closed = 1;
nodes = (
(584,-10,o),
(679,28,o),
(748,93,cs),
(815,158,o),
(855,251,o),
(856,364,cs),
(857,476,o),
(818,570,o),
(752,635,cs),
(684,699,o),
(590,737,o),
(478,737,cs),
(366,737,o),
(270,699,o),
(203,635,cs),
(134,570,o),
(95,476,o),
(94,364,cs),
(93,251,o),
(131,158,o),
(199,93,cs),
(265,28,o),
(360,-10,o),
(472,-10,cs)
);
},
{
closed = 1;
nodes = (
(375,38,o),
(292,71,o),
(235,128,cs),
(178,185,o),
(145,267,o),
(146,364,cs),
(147,461,o),
(181,543,o),
(239,600,cs),
(296,657,o),
(380,690,o),
(477,690,cs),
(574,690,o),
(657,657,o),
(715,600,cs),
(772,543,o),
(805,461,o),
(804,364,cs),
(803,267,o),
(768,185,o),
(711,128,cs),
(654,71,o),
(569,38,o),
(472,38,cs)
);
},
{
closed = 1;
nodes = (
(531,160,o),
(576,175,o),
(610,201,cs),
(643,227,o),
(664,263,o),
(668,307,c),
(595,307,l),
(586,252,o),
(541,221,o),
(481,221,cs),
(442,221,o),
(412,234,o),
(390,259,cs),
(368,283,o),
(355,319,o),
(356,363,cs),
(356,406,o),
(368,442,o),
(391,467,cs),
(413,492,o),
(444,506,o),
(484,506,cs),
(537,506,o),
(584,481,o),
(594,426,c),
(667,426,l),
(664,467,o),
(644,503,o),
(613,528,cs),
(581,553,o),
(537,567,o),
(486,567,cs),
(425,567,o),
(373,547,o),
(338,512,cs),
(302,476,o),
(281,424,o),
(281,363,cs),
(280,302,o),
(300,251,o),
(335,216,c),
(369,180,o),
(419,160,o),
(479,160,cs)
);
}
);
width = 894;
},
{
layerId = "35642718-112C-4883-8033-E2E6DF5C4D00";
shapes = (
{
closed = 1;
nodes = (
(590,-10,o),
(685,28,o),
(752,93,cs),
(818,158,o),
(856,251,o),
(857,363,cs),
(858,475,o),
(820,569,o),
(755,634,cs),
(689,698,o),
(594,736,o),
(482,736,cs),
(370,736,o),
(276,698,o),
(209,634,cs),
(141,569,o),
(103,475,o),
(102,363,cs),
(101,251,o),
(139,158,o),
(206,93,cs),
(272,28,o),
(366,-10,o),
(478,-10,cs)
);
},
{
closed = 1;
nodes = (
(377,22,o),
(291,57,o),
(232,117,cs),
(171,176,o),
(137,262,o),
(137,363,c),
(138,466,o),
(173,550,o),
(235,610,cs),
(295,670,o),
(381,705,o),
(482,705,cs),
(583,705,o),
(669,670,o),
(730,610,cs),
(789,550,o),
(823,466,o),
(822,363,c),
(822,262,o),
(787,176,o),
(727,117,cs),
(665,57,o),
(579,22,o),
(478,22,cs)
);
},
{
closed = 1;
nodes = (
(535,160,o),
(577,174,o),
(608,199,cs),
(639,223,o),
(661,259,o),
(665,300,c),
(630,300,l),
(618,232,o),
(562,192,o),
(486,192,cs),
(439,192,o),
(399,209,o),
(372,238,cs),
(345,267,o),
(330,310,o),
(330,362,cs),
(330,413,o),
(346,456,o),
(374,487,cs),
(402,518,o),
(441,534,o),
(490,534,cs),
(557,534,o),
(614,502,o),
(629,435,c),
(664,435,l),
(660,474,o),
(639,507,o),
(609,530,cs),
(579,553,o),
(538,566,o),
(491,566,cs),
(432,566,o),
(384,546,o),
(350,510,cs),
(316,474,o),
(296,423,o),
(295,362,cs),
(295,302,o),
(313,251,o),
(346,216,cs),
(379,180,o),
(429,160,o),
(486,160,cs)
);
}
);
width = 901;
}
);
unicode = 169;
},
{
glyphname = ordfeminine;
leftMetricsKey = "=10";
rightMetricsKey = "=13";
layers = (
{
hints = (
{
horizontal = 1;
place = (532,43);
type = Stem;
},
{
horizontal = 1;
place = (620,84);
type = Stem;
},
{
horizontal = 1;
place = (743,119);
type = Stem;
}
);
layerId = "B9F9456E-5A28-482F-A7A9-E399A36E312B";
leftMetricsKey = "=4";
rightMetricsKey = "=3";
shapes = (
{
closed = 1;
nodes = (
(211,359,o),
(273,374,o),
(290,407,c),
(297,407,l),
(297,404,l),
(296,368,o),
(335,359,o),
(366,359,cs),
(387,359,o),
(404,363,o),
(419,367,c),
(443,438,l),
(438,437,o),
(434,437,o),
(431,437,cs),
(420,437,o),
(420,445,o),
(425,461,c),
(458,577,l),
(475,628,o),
(466,669,o),
(435,696,c),
(406,723,o),
(359,737,o),
(302,737,cs),
(209,737,o),
(129,699,o),
(109,595,c),
(239,595,l),
(246,611,o),
(258,618,o),
(283,618,cs),
(297,618,o),
(310,616,o),
(317,611,cs),
(325,606,o),
(327,599,o),
(322,587,c),
(317,579,l),
(223,579,ls),
(136,579,o),
(67,537,o),
(67,449,cs),
(66,387,o),
(121,359,o),
(176,359,cs)
);
},
{
closed = 1;
nodes = (
(223,450,o),
(210,456,o),
(211,468,c),
(211,490,o),
(230,495,o),
(258,495,cs),
(296,495,l),
(291,476,l),
(284,462,o),
(272,450,o),
(245,450,cs)
);
}
);
width = 393;
},
{
hints = (
{
horizontal = 1;
place = (466,52);
type = Stem;
},
{
horizontal = 1;
place = (632,51);
type = Stem;
},
{
horizontal = 1;
place = (776,56);
type = Stem;
},
{
place = (77,71);
type = Stem;
},
{
place = (128,68);
type = Stem;
}
);
layerId = "D36F68F1-AC05-4452-BDF9-AB186909F070";
leftMetricsKey = "=13";
shapes = (
{
closed = 1;
nodes = (
(246,371,o),
(307,389,o),
(326,407,c),
(336,407,l),
(336,405,ls),
(336,380,o),
(365,371,o),
(389,371,cs),
(403,371,o),
(415,373,o),
(423,376,c),
(436,420,l),
(430,418,o),
(424,417,o),
(416,417,cs),
(401,417,o),
(395,426,o),
(402,449,c),
(457,597,l),
(470,639,o),
(463,675,o),
(439,699,cs),
(415,723,o),
(371,737,o),
(310,737,cs),
(223,737,o),
(151,700,o),
(130,622,c),
(198,622,l),
(210,657,o),
(245,681,o),
(303,681,cs),
(333,681,o),
(359,676,o),
(375,664,cs),
(390,652,o),
(396,634,o),
(387,604,cs),
(382,588,l),
(260,588,ls),
(152,588,o),
(81,539,o),
(78,465,cs),
(75,394,o),
(142,371,o),
(201,371,cs)
);
},
{
closed = 1;
nodes = (
(178,423,o),
(147,441,o),
(149,473,c),
(150,517,o),
(188,537,o),
(268,537,cs),
(363,537,l),
(347,494,l),
(331,449,o),
(292,423,o),
(225,423,cs)
);
}
);
width = 402;
},
{
layerId = "35642718-112C-4883-8033-E2E6DF5C4D00";
rightMetricsKey = "=9";
shapes = (
{
closed = 1;
nodes = (
(234,377,o),
(287,395,o),
(313,432,c),
(317,432,l),
(312,420,l),
(305,399,o),
(326,377,o),
(350,377,cs),
(359,377,o),
(367,379,o),
(372,382,c),
(378,404,l),
(372,402,o),
(366,400,o),
(357,400,cs),
(341,400,o),
(331,409,o),
(341,437,c),
(394,604,ls),
(406,642,o),
(403,675,o),
(383,699,cs),
(363,722,o),
(326,736,o),
(270,736,cs),
(199,736,o),
(140,699,o),
(122,631,c),
(150,631,l),
(164,678,o),
(204,710,o),
(271,710,cs),
(305,710,o),
(336,705,o),
(354,689,cs),
(374,673,o),
(379,648,o),
(368,609,c),
(360,585,l),
(246,585,ls),
(169,585,o),
(82,563,o),
(76,472,cs),
(71,405,o),
(134,377,o),
(193,377,cs)
);
},
{
closed = 1;
nodes = (
(135,401,o),
(101,431,o),
(102,468,cs),
(104,542,o),
(171,560,o),
(238,560,cs),
(352,560,l),
(333,498,l),
(316,437,o),
(265,401,o),
(185,401,cs)
);
}
);
width = 344;
}
);
unicode = 170;
},
{
glyphname = guillemotleft;
layers = (
{
layerId = "B9F9456E-5A28-482F-A7A9-E399A36E312B";
shapes = (
{
closed = 1;
nodes = (
(352,77,l),
(256,319,l),
(425,551,l),
(226,551,l),
(36,330,l),
(161,77,l)
);
},
{
closed = 1;
nodes = (
(615,77,l),
(531,307,l),
(715,551,l),
(504,551,l),
(319,316,l),
(420,77,l)
);
}
);
width = 683;
},
{
layerId = "D36F68F1-AC05-4452-BDF9-AB186909F070";
shapes = (
{
closed = 1;
nodes = (
(211,79,l),
(141,304,l),
(302,527,l),
(221,527,l),
(53,307,l),
(137,79,l)
);
},
{
closed = 1;
nodes = (
(388,79,l),
(322,300,l),
(488,527,l),
(404,527,l),
(236,303,l),
(313,79,l)
);
}
);
width = 474;
},
{
layerId = "35642718-112C-4883-8033-E2E6DF5C4D00";
shapes = (
{
closed = 1;
nodes = (
(154,80,l),
(96,298,l),
(254,517,l),
(218,517,l),
(60,298,l),
(126,80,l)
);
},
{
closed = 1;
nodes = (
(298,79,l),
(240,298,l),
(399,517,l),
(365,517,l),
(204,298,l),
(270,79,l)
);
}
);
width = 392;
}
);
leftKerningGroup = guillemotleft;
unicode = 171;
},
{
glyphname = logicalnot;
layers = (
{
layerId = "B9F9456E-5A28-482F-A7A9-E399A36E312B";
shapes = (
{
closed = 1;
nodes = (
(505,129,l),
(597,444,l),
(124,444,l),
(70,258,l),
(360,258,l),
(322,129,l)
);
}
);
width = 636;
},
{
layerId = "D36F68F1-AC05-4452-BDF9-AB186909F070";
shapes = (
{
closed = 1;
nodes = (
(500,139,l),
(577,407,l),
(101,407,l),
(80,331,l),
(480,331,l),
(425,139,l)
);
}
);
width = 636;
},
{
layerId = "35642718-112C-4883-8033-E2E6DF5C4D00";
shapes = (
{
closed = 1;
nodes = (
(499,143,l),
(569,392,l),
(93,392,l),
(84,360,l),
(528,360,l),
(467,143,l)
);
}
);
width = 636;
}
);
unicode = 172;
},
{
glyphname = registered;
layers = (
{
layerId = "B9F9456E-5A28-482F-A7A9-E399A36E312B";
shapes = (
{
closed = 1;
nodes = (
(425,200,o),
(500,232,o),
(552,285,cs),
(605,337,o),
(636,410,o),
(637,495,cs),
(637,571,o),
(612,632,o),
(569,673,cs),
(524,714,o),
(460,738,o),
(383,738,cs),
(291,738,o),
(217,705,o),
(165,652,cs),
(113,599,o),
(84,525,o),
(83,440,cs),
(82,367,o),
(106,307,o),
(150,265,cs),
(193,223,o),
(258,200,o),
(334,200,cs)
);
},
{
closed = 1;
nodes = (
(280,261,o),
(229,281,o),
(195,314,cs),
(160,347,o),
(142,396,o),
(143,453,cs),
(144,521,o),
(167,579,o),
(208,620,cs),
(247,660,o),
(306,684,o),
(377,684,cs),
(438,684,o),
(486,666,o),
(521,633,cs),
(556,600,o),
(573,554,o),
(573,495,cs),
(572,427,o),
(551,370,o),
(512,328,cs),
(471,286,o),
(415,261,o),
(343,261,cs)
);
},
{
closed = 1;
nodes = (
(302,338,l),
(355,526,l),
(385,526,ls),
(394,526,o),
(401,526,o),
(401,517,c),
(402,498,o),
(389,491,o),
(370,491,cs),
(327,491,l),
(310,426,l),
(348,426,ls),
(369,426,o),
(373,419,o),
(368,403,c),
(358,368,ls),
(355,356,o),
(354,346,o),
(354,338,c),
(460,338,l),
(460,343,o),
(460,354,o),
(464,370,c),
(473,397,l),
(486,438,o),
(477,459,o),
(452,464,c),
(452,466,l),
(492,478,o),
(509,505,o),
(509,540,cs),
(509,557,o),
(504,574,o),
(491,586,c),
(477,597,o),
(454,604,o),
(419,604,cs),
(272,604,l),
(195,338,l)
);
}
);
width = 610;
},
{
layerId = "D36F68F1-AC05-4452-BDF9-AB186909F070";
shapes = (
{
closed = 1;
nodes = (
(433,222,o),
(505,254,o),
(557,306,cs),
(610,357,o),
(641,428,o),
(642,508,cs),
(642,580,o),
(619,637,o),
(577,677,cs),
(535,716,o),
(476,738,o),
(407,738,cs),
(326,738,o),
(253,707,o),
(202,655,cs),
(150,603,o),
(118,532,o),
(117,451,cs),
(117,380,o),
(141,323,o),
(183,284,cs),
(225,244,o),
(284,222,o),
(353,222,cs)
);
},
{
closed = 1;
nodes = (
(293,260,o),
(243,280,o),
(208,314,cs),
(173,348,o),
(155,395,o),
(155,454,cs),
(156,525,o),
(183,586,o),
(227,631,cs),
(271,676,o),
(332,703,o),
(403,703,cs),
(466,703,o),
(515,684,o),
(550,650,cs),
(585,616,o),
(603,567,o),
(603,508,cs),
(602,439,o),
(577,376,o),
(533,332,cs),
(488,287,o),
(427,260,o),
(356,260,cs)
);
},
{
closed = 1;
nodes = (
(288,346,l),
(353,578,l),
(427,578,ls),
(456,578,o),
(469,566,o),
(468,541,cs),
(467,513,o),
(447,492,o),
(408,492,cs),
(320,492,l),
(311,456,l),
(402,456,ls),
(427,456,o),
(436,448,o),
(427,412,cs),
(418,377,l),
(415,369,o),
(414,353,o),
(413,346,c),
(463,346,l),
(463,355,o),
(464,363,o),
(467,374,cs),
(478,415,ls),
(487,447,o),
(481,466,o),
(458,475,c),
(458,476,l),
(494,487,o),
(519,511,o),
(520,550,c),
(520,570,o),
(515,586,o),
(503,598,cs),
(490,610,o),
(470,617,o),
(446,617,cs),
(316,617,l),
(238,346,l)
);
}
);
width = 640;
},
{
layerId = "35642718-112C-4883-8033-E2E6DF5C4D00";
shapes = (
{
closed = 1;
nodes = (
(436,231,o),
(509,262,o),
(561,314,cs),
(612,365,o),
(645,436,o),
(645,513,cs),
(645,584,o),
(621,639,o),
(581,678,cs),
(540,717,o),
(481,738,o),
(416,738,cs),
(339,738,o),
(268,707,o),
(217,656,cs),
(165,604,o),
(131,535,o),
(131,456,cs),
(130,387,o),
(155,330,o),
(197,291,cs),
(238,252,o),
(295,231,o),
(360,231,cs)
);
},
{
closed = 1;
nodes = (
(299,259,o),
(249,280,o),
(214,314,cs),
(179,348,o),
(160,396,o),
(161,455,cs),
(161,526,o),
(189,590,o),
(235,636,cs),
(281,682,o),
(344,710,o),
(415,710,cs),
(476,710,o),
(527,691,o),
(563,656,cs),
(598,621,o),
(616,573,o),
(616,513,cs),
(616,444,o),
(588,380,o),
(542,334,cs),
(496,288,o),
(433,259,o),
(362,259,cs)
);
},
{
closed = 1;
nodes = (
(282,350,l),
(354,599,l),
(445,599,ls),
(482,599,o),
(498,582,o),
(495,551,c),
(494,519,o),
(471,493,o),
(424,493,cs),
(317,493,l),
(312,468,l),
(424,468,ls),
(451,468,o),
(463,459,o),
(451,415,c),
(441,380,l),
(438,375,o),
(437,355,o),
(437,350,c),
(465,350,l),
(465,359,o),
(466,367,o),
(469,376,c),
(482,422,ls),
(490,450,o),
(482,468,o),
(461,479,c),
(461,480,l),
(494,489,o),
(524,514,o),
(525,554,c),
(525,574,o),
(520,591,o),
(508,603,cs),
(496,615,o),
(478,622,o),
(457,622,cs),
(334,622,l),
(255,350,l)
);
}
);
width = 651;
}
);
unicode = 174;
},
{
glyphname = degree;
layers = (
{
layerId = "B9F9456E-5A28-482F-A7A9-E399A36E312B";
shapes = (
{
closed = 1;
nodes = (
(359,370,o),
(414,391,o),
(452,427,cs),
(489,462,o),
(514,512,o),
(514,573,cs),
(515,624,o),
(496,667,o),
(463,696,cs),
(429,725,o),
(381,740,o),
(329,740,cs),
(266,740,o),
(212,720,o),
(173,685,cs),
(133,649,o),
(111,597,o),
(110,540,cs),
(109,484,o),
(131,443,o),
(167,415,c),
(201,386,o),
(247,370,o),
(298,370,cs)
);
},
{
closed = 1;
nodes = (
(296,513,o),
(286,517,o),
(279,523,cs),
(272,529,o),
(268,538,o),
(268,549,cs),
(268,562,o),
(273,575,o),
(282,584,cs),
(290,592,o),
(303,598,o),
(318,598,cs),
(331,598,o),
(341,594,o),
(349,587,c),
(355,580,o),
(358,571,o),
(358,559,cs),
(358,546,o),
(353,533,o),
(345,526,cs),
(336,518,o),
(324,513,o),
(309,513,cs)
);
}
);
width = 466;
},
{
layerId = "D36F68F1-AC05-4452-BDF9-AB186909F070";
shapes = (
{
closed = 1;
nodes = (
(358,422,o),
(401,440,o),
(434,470,c),
(465,500,o),
(484,542,o),
(485,591,cs),
(485,635,o),
(468,672,o),
(440,698,cs),
(413,724,o),
(373,738,o),
(329,738,cs),
(280,738,o),
(237,720,o),
(205,691,cs),
(173,662,o),
(154,619,o),
(153,570,cs),
(153,525,o),
(171,489,o),
(200,463,c),
(227,437,o),
(265,422,o),
(309,422,cs)
);
},
{
closed = 1;
nodes = (
(288,488,o),
(265,496,o),
(249,512,cs),
(233,528,o),
(224,548,o),
(224,575,c),
(225,603,o),
(237,627,o),
(254,645,cs),
(271,663,o),
(297,672,o),
(324,672,cs),
(351,672,o),
(373,664,o),
(389,649,cs),
(405,633,o),
(414,612,o),
(413,585,c),
(413,557,o),
(401,532,o),
(384,515,cs),
(367,498,o),
(341,488,o),
(313,488,cs)
);
}
);
width = 461;
},
{
layerId = "35642718-112C-4883-8033-E2E6DF5C4D00";
shapes = (
{
closed = 1;
nodes = (
(359,443,o),
(398,459,o),
(427,487,cs),
(455,514,o),
(473,553,o),
(474,598,cs),
(474,639,o),
(459,674,o),
(433,699,cs),
(407,723,o),
(371,737,o),
(328,737,cs),
(285,737,o),
(246,721,o),
(218,694,cs),
(190,667,o),
(172,629,o),
(171,582,cs),
(171,541,o),
(187,506,o),
(213,482,cs),
(239,457,o),
(274,443,o),
(315,443,cs)
);
},
{
closed = 1;
nodes = (
(284,478,o),
(258,488,o),
(239,508,c),
(219,527,o),
(208,553,o),
(208,585,c),
(209,620,o),
(223,648,o),
(244,669,cs),
(265,690,o),
(295,702,o),
(327,702,cs),
(359,702,o),
(386,692,o),
(406,673,c),
(425,653,o),
(436,627,o),
(436,595,c),
(435,562,o),
(421,532,o),
(400,511,cs),
(379,490,o),
(348,478,o),
(315,478,cs)
);
}
);
width = 459;
}
);
unicode = 176;
},
{
glyphname = plusminus;
layers = (
{
layerId = "B9F9456E-5A28-482F-A7A9-E399A36E312B";
shapes = (
{
closed = 1;
nodes = (
(391,206,l),
(426,317,l),
(588,317,l),
(641,502,l),
(479,502,l),
(511,613,l),
(320,613,l),
(288,502,l),
(128,502,l),
(74,317,l),
(234,317,l),
(202,206,l)
);
},
{
closed = 1;
nodes = (
(496,0,l),
(541,162,l),
(28,162,l),
(-19,0,l)
);
}
);
width = 636;
},
{
layerId = "D36F68F1-AC05-4452-BDF9-AB186909F070";
shapes = (
{
closed = 1;
nodes = (
(331,177,l),
(382,351,l),
(587,351,l),
(608,427,l),
(404,427,l),
(454,601,l),
(376,601,l),
(326,427,l),
(121,427,l),
(100,351,l),
(304,351,l),
(253,177,l)
);
},
{
closed = 1;
nodes = (
(487,0,l),
(507,69,l),
(19,69,l),
(-1,0,l)
);
}
);
width = 636;
},
{
layerId = "35642718-112C-4883-8033-E2E6DF5C4D00";
shapes = (
{
closed = 1;
nodes = (
(308,165,l),
(364,365,l),
(585,365,l),
(595,398,l),
(374,398,l),
(430,596,l),
(398,596,l),
(340,398,l),
(118,398,l),
(109,365,l),
(330,365,l),
(274,165,l)
);
},
{
closed = 1;
nodes = (
(482,0,l),
(492,33,l),
(15,33,l),
(6,0,l)
);
}
);
width = 636;
}
);
unicode = 177;
},
{
glyphname = paragraph;
layers = (
{
layerId = "B9F9456E-5A28-482F-A7A9-E399A36E312B";
shapes = (
{
closed = 1;
nodes = (
(482,0,l),
(488,526,l),
(555,526,l),
(549,0,l),
(778,0,l),
(784,526,l),
(856,526,l),
(858,729,l),
(344,729,ls),
(263,729,o),
(199,709,o),
(158,673,cs),
(116,636,o),
(93,581,o),
(93,512,cs),
(92,449,o),
(113,399,o),
(153,364,cs),
(193,328,o),
(251,308,o),
(324,311,c),
(321,0,l)
);
}
);
width = 847;
},
{
layerId = "D36F68F1-AC05-4452-BDF9-AB186909F070";
shapes = (
{
closed = 1;
nodes = (
(394,0,l),
(399,647,l),
(511,647,l),
(506,0,l),
(597,0,l),
(602,647,l),
(698,647,l),
(699,729,l),
(333,729,ls),
(270,729,o),
(219,713,o),
(184,684,cs),
(149,655,o),
(130,611,o),
(129,554,cs),
(129,501,o),
(147,457,o),
(179,426,cs),
(212,395,o),
(262,379,o),
(326,379,c),
(323,0,l)
);
}
);
width = 686;
},
{
layerId = "35642718-112C-4883-8033-E2E6DF5C4D00";
shapes = (
{
closed = 1;
nodes = (
(360,0,l),
(364,695,l),
(494,695,l),
(490,0,l),
(526,0,l),
(530,695,l),
(635,695,l),
(635,729,l),
(328,729,ls),
(272,729,o),
(226,716,o),
(195,689,cs),
(163,662,o),
(145,623,o),
(144,571,cs),
(144,522,o),
(160,479,o),
(191,451,cs),
(222,422,o),
(267,406,o),
(326,406,c),
(324,0,l)
);
}
);
width = 622;
}
);
unicode = 182;
},
{
glyphname = periodcentered;
layers = (
{
layerId = "B9F9456E-5A28-482F-A7A9-E399A36E312B";
shapes = (
{
closed = 1;
nodes = (
(142,169,o),
(172,183,o),
(193,205,cs),
(215,227,o),
(228,257,o),
(228,290,cs),
(229,346,o),
(193,385,o),
(134,385,cs),
(99,385,o),
(69,372,o),
(48,350,cs),
(27,328,o),
(12,297,o),
(12,264,cs),
(11,208,o),
(51,169,o),
(107,169,cs)
);
}
);
width = 238;
},
{
layerId = "D36F68F1-AC05-4452-BDF9-AB186909F070";
shapes = (
{
closed = 1;
nodes = (
(126,209,o),
(144,218,o),
(157,231,cs),
(170,244,o),
(179,264,o),
(179,285,cs),
(179,321,o),
(157,345,o),
(118,345,cs),
(97,345,o),
(78,336,o),
(63,323,cs),
(49,310,o),
(41,290,o),
(41,269,cs),
(41,233,o),
(66,209,o),
(103,209,cs)
);
}
);
width = 210;
},
{
layerId = "35642718-112C-4883-8033-E2E6DF5C4D00";
shapes = (
{
closed = 1;
nodes = (
(117,224,o),
(131,230,o),
(142,241,cs),
(153,252,o),
(159,266,o),
(159,283,cs),
(159,311,o),
(142,330,o),
(111,330,cs),
(95,330,o),
(80,323,o),
(69,313,cs),
(58,303,o),
(52,287,o),
(52,271,c),
(51,243,o),
(71,224,o),
(100,224,cs)
);
}
);
width = 199;
}
);
unicode = 183;
},
{
glyphname = ordmasculine;
leftMetricsKey = "=11";
rightMetricsKey = "=11";
layers = (
{
hints = (
{
horizontal = 1;
place = (485,123);
type = Stem;
},
{
horizontal = 1;
place = (740,122);
type = Stem;
}
);
layerId = "B9F9456E-5A28-482F-A7A9-E399A36E312B";
shapes = (
{
closed = 1;
nodes = (
(384,360,o),
(469,418,o),
(489,531,c),
(513,654,o),
(443,737,o),
(319,737,cs),
(208,737,o),
(125,678,o),
(102,567,cs),
(77,445,o),
(150,360,o),
(273,360,cs)
);
},
{
closed = 1;
nodes = (
(256,483,o),
(237,501,o),
(240,528,cs),
(244,562,o),
(257,615,o),
(310,615,cs),
(338,615,o),
(355,598,o),
(352,570,cs),
(349,536,o),
(335,483,o),
(282,483,cs)
);
}
);
width = 422;
},
{
hints = (
{
horizontal = 1;
place = (467,57);
type = Stem;
},
{
horizontal = 1;
place = (775,57);
type = Stem;
}
);
layerId = "D36F68F1-AC05-4452-BDF9-AB186909F070";
leftMetricsKey = "=25";
rightMetricsKey = "=24";
shapes = (
{
closed = 1;
nodes = (
(378,372,o),
(457,462,o),
(462,577,c),
(471,675,o),
(417,737,o),
(318,737,cs),
(197,737,o),
(120,650,o),
(112,533,c),
(103,438,o),
(164,372,o),
(259,372,cs)
);
},
{
closed = 1;
nodes = (
(204,429,o),
(170,465,o),
(174,525,c),
(178,603,o),
(221,680,o),
(312,680,cs),
(372,680,o),
(405,643,o),
(402,584,c),
(397,507,o),
(355,429,o),
(264,429,cs)
);
}
);
width = 401;
},
{
hints = (
{
horizontal = 1;
place = (457,25);
type = Stem;
},
{
horizontal = 1;
place = (792,25);
type = Stem;
},
{
place = (117,27);
type = Stem;
},
{
place = (429,26);
type = Stem;
}
);
layerId = "35642718-112C-4883-8033-E2E6DF5C4D00";
leftMetricsKey = "=32";
rightMetricsKey = "=32";
shapes = (
{
closed = 1;
nodes = (
(380,377,o),
(456,483,o),
(457,599,cs),
(457,682,o),
(407,737,o),
(321,737,cs),
(194,737,o),
(119,634,o),
(118,516,cs),
(118,434,o),
(169,377,o),
(254,377,cs)
);
},
{
closed = 1;
nodes = (
(181,402,o),
(143,449,o),
(145,524,cs),
(149,622,o),
(208,712,o),
(316,712,cs),
(390,712,o),
(435,665,o),
(431,591,c),
(427,492,o),
(367,402,o),
(258,402,cs)
);
}
);
width = 400;
}
);
unicode = 186;
},
{
glyphname = guillemotright;
layers = (
{
layerId = "B9F9456E-5A28-482F-A7A9-E399A36E312B";
shapes = (
{
closed = 1;
nodes = (
(352,550,l),
(448,308,l),
(279,76,l),
(478,76,l),
(668,297,l),
(543,550,l)
);
},
{
closed = 1;
nodes = (
(89,550,l),
(173,321,l),
(-11,76,l),
(200,76,l),
(385,311,l),
(284,550,l)
);
}
);
width = 683;
},
{
layerId = "D36F68F1-AC05-4452-BDF9-AB186909F070";
shapes = (
{
closed = 1;
nodes = (
(286,529,l),
(355,304,l),
(194,81,l),
(276,81,l),
(443,301,l),
(360,529,l)
);
},
{
closed = 1;
nodes = (
(109,530,l),
(174,308,l),
(9,81,l),
(92,81,l),
(260,305,l),
(184,530,l)
);
}
);
width = 474;
},
{
layerId = "35642718-112C-4883-8033-E2E6DF5C4D00";
shapes = (
{
closed = 1;
nodes = (
(260,521,l),
(319,303,l),
(160,84,l),
(195,84,l),
(354,303,l),
(287,521,l)
);
},
{
closed = 1;
nodes = (
(116,522,l),
(175,303,l),
(15,84,l),
(49,84,l),
(211,303,l),
(144,522,l)
);
}
);
width = 392;
}
);
leftKerningGroup = guillemotright2;
rightKerningGroup = guillemotright;
unicode = 187;
},
{
glyphname = questiondown;
layers = (
{
layerId = "B9F9456E-5A28-482F-A7A9-E399A36E312B";
shapes = (
{
closed = 1;
nodes = (
(199,315,l),
(197,312,l),
(194,301,o),
(187,291,o),
(174,281,cs),
(148,260,o),
(110,238,o),
(69,211,c),
(48,198,o),
(29,182,o),
(11,165,cs),
(-26,129,o),
(-52,85,o),
(-56,25,cs),
(-61,-63,o),
(-25,-116,o),
(27,-147,cs),
(79,-178,o),
(146,-187,o),
(205,-187,cs),
(289,-187,o),
(364,-165,o),
(419,-123,cs),
(473,-81,o),
(511,-20,o),
(525,59,c),
(296,59,l),
(286,24,o),
(267,9,o),
(231,9,cs),
(223,9,o),
(213,12,o),
(205,17,cs),
(197,21,o),
(193,31,o),
(194,44,c),
(195,58,o),
(200,70,o),
(209,81,cs),
(227,102,o),
(255,119,o),
(288,139,cs),
(304,148,o),
(320,159,o),
(335,172,cs),
(365,196,o),
(391,229,o),
(402,277,c),
(410,315,l)
);
},
{
closed = 1;
nodes = (
(270,560,o),
(215,517,o),
(214,444,cs),
(213,388,o),
(257,351,o),
(326,351,cs),
(410,351,o),
(465,395,o),
(466,468,cs),
(467,524,o),
(423,560,o),
(354,560,cs)
);
}
);
width = 599;
},
{
layerId = "D36F68F1-AC05-4452-BDF9-AB186909F070";
shapes = (
{
closed = 1;
nodes = (
(248,340,l),
(243,327,l),
(235,306,o),
(224,287,o),
(209,271,cs),
(177,239,o),
(135,211,o),
(91,180,cs),
(69,165,o),
(49,148,o),
(30,129,cs),
(-7,91,o),
(-35,43,o),
(-39,-22,cs),
(-43,-86,o),
(-20,-132,o),
(19,-164,cs),
(58,-195,o),
(110,-210,o),
(170,-210,cs),
(233,-210,o),
(290,-194,o),
(335,-162,cs),
(379,-129,o),
(412,-78,o),
(429,-10,c),
(339,-10,l),
(317,-85,o),
(269,-131,o),
(182,-131,cs),
(146,-131,o),
(114,-122,o),
(92,-103,cs),
(70,-83,o),
(57,-56,o),
(60,-17,c),
(61,10,o),
(67,34,o),
(79,54,cs),
(103,93,o),
(139,122,o),
(180,150,c),
(201,163,o),
(221,178,o),
(240,193,cs),
(280,224,o),
(313,261,o),
(326,317,cs),
(332,340,l)
);
},
{
closed = 1;
nodes = (
(292,534,o),
(267,513,o),
(267,480,cs),
(266,452,o),
(287,433,o),
(319,433,cs),
(356,433,o),
(381,455,o),
(382,488,cs),
(382,516,o),
(361,534,o),
(329,534,cs)
);
}
);
width = 537;
},
{
layerId = "35642718-112C-4883-8033-E2E6DF5C4D00";
shapes = (
{
closed = 1;
nodes = (
(266,350,l),
(260,332,ls),
(251,307,o),
(239,286,o),
(222,268,cs),
(188,231,o),
(144,200,o),
(99,168,cs),
(76,151,o),
(56,134,o),
(37,115,cs),
(-1,77,o),
(-29,27,o),
(-33,-41,cs),
(-37,-94,o),
(-18,-139,o),
(15,-171,cs),
(48,-202,o),
(97,-219,o),
(157,-219,cs),
(212,-219,o),
(261,-206,o),
(302,-177,cs),
(342,-148,o),
(374,-102,o),
(392,-37,c),
(356,-37,l),
(330,-128,o),
(270,-187,o),
(163,-187,cs),
(115,-187,o),
(75,-174,o),
(47,-150,cs),
(19,-125,o),
(4,-89,o),
(6,-41,cs),
(7,-9,o),
(14,19,o),
(27,42,cs),
(53,89,o),
(93,124,o),
(138,154,cs),
(160,169,o),
(182,185,o),
(203,202,cs),
(245,236,o),
(281,275,o),
(296,332,c),
(300,350,l)
);
},
{
closed = 1;
nodes = (
(300,524,o),
(287,513,o),
(287,494,cs),
(287,477,o),
(299,466,o),
(316,466,cs),
(335,466,o),
(347,477,o),
(347,496,cs),
(347,513,o),
(336,524,o),
(319,524,cs)
);
}
);
width = 513;
}
);
unicode = 191;
},
